<svg width="80" height="80" viewBox="0 0 80 80" fill="none" xmlns="http://www.w3.org/2000/svg">
<path fill-rule="evenodd" clip-rule="evenodd" d="M0 40C0 29.3913 4.21427 19.2172 11.7157 11.7157C19.2172 4.21427 29.3913 0 40 0C50.6087 0 60.7828 4.21427 68.2843 11.7157C75.7857 19.2172 80 29.3913 80 40C80 50.6087 75.7857 60.7828 68.2843 68.2843C60.7828 75.7857 50.6087 80 40 80C29.3913 80 19.2172 75.7857 11.7157 68.2843C4.21427 60.7828 0 50.6087 0 40ZM40 5C33.4089 5.00035 26.9518 6.86181 21.372 10.3701C15.7922 13.8785 11.3164 18.8911 8.45982 24.831C5.60323 30.7709 4.48193 37.3967 5.22499 43.9458C5.96805 50.4949 8.54526 56.701 12.66 61.85C16.21 56.13 24.025 50 40 50C55.975 50 63.785 56.125 67.34 61.85C71.4547 56.701 74.0319 50.4949 74.775 43.9458C75.5181 37.3967 74.3968 30.7709 71.5402 24.831C68.6836 18.8911 64.2078 13.8785 58.628 10.3701C53.0482 6.86181 46.5911 5.00035 40 5Z" fill="#FFFAFA"/>
</svg>
