<svg width="47" height="46" viewBox="0 0 47 46" fill="none" xmlns="http://www.w3.org/2000/svg">
<path fill-rule="evenodd" clip-rule="evenodd" d="M23.6126 0.801884C28.0011 0.804666 32.2902 2.10855 35.9378 4.5487C39.5854 6.98884 42.4275 10.4557 44.105 14.5109C45.7825 18.5662 46.22 23.0278 45.3621 27.3316C44.5042 31.6354 42.3896 35.5883 39.2854 38.6905C36.1813 41.7926 32.2271 43.9048 27.9227 44.7599C23.6183 45.6151 19.157 45.1748 15.1029 43.4947C11.0487 41.8147 7.58364 38.9703 5.1458 35.3212C2.70797 31.6721 1.4068 27.3821 1.4068 22.9936C1.4068 20.0782 1.98127 17.1913 3.09739 14.4979C4.2135 11.8046 5.84939 9.35758 7.91157 7.29671C9.97375 5.23583 12.4218 3.6015 15.1159 2.48709C17.8099 1.37268 20.6971 0.800036 23.6126 0.801884Z" fill="url(#paint0_radial_22_83)"/>
<path style="mix-blend-mode:screen" fill-rule="evenodd" clip-rule="evenodd" d="M23.6126 0.801884C28.0011 0.804666 32.2902 2.10855 35.9378 4.5487C39.5854 6.98884 42.4275 10.4557 44.105 14.5109C45.7825 18.5662 46.22 23.0278 45.3621 27.3316C44.5042 31.6354 42.3896 35.5883 39.2854 38.6905C36.1813 41.7926 32.2271 43.9048 27.9227 44.7599C23.6183 45.6151 19.157 45.1748 15.1029 43.4947C11.0487 41.8147 7.58364 38.9703 5.1458 35.3212C2.70797 31.6721 1.4068 27.3821 1.4068 22.9936C1.4068 20.0782 1.98127 17.1913 3.09739 14.4979C4.2135 11.8046 5.84939 9.35758 7.91157 7.29671C9.97375 5.23583 12.4218 3.6015 15.1159 2.48709C17.8099 1.37268 20.6971 0.800036 23.6126 0.801884Z" fill="url(#paint1_radial_22_83)"/>
<path style="mix-blend-mode:multiply" fill-rule="evenodd" clip-rule="evenodd" d="M33.2419 35.8725C32.862 35.9428 31.195 35.6615 30.6112 35.6685C27.184 35.7773 23.793 36.4034 20.5529 37.5255C19.7644 37.7884 19.0251 38.1806 18.3653 38.686C17.7182 39.2206 17.9363 40.2335 16.5787 40.1772C15.6362 40.1772 14.5319 39.6919 14.6233 38.6438C14.7007 37.7224 14.7922 36.4704 14.2294 35.9499C12.2559 34.2027 10.1539 32.6062 7.94121 31.1739C6.49224 30.1892 5.73962 30.7449 4.88853 30.4705C3.81939 30.1048 3.29889 28.6206 3.0527 27.657C2.52517 25.5469 3.45363 22.1495 3.41143 20.8623C3.36923 19.4134 1.5756 21.4321 2.70805 15.6643C0.972399 20.6608 1.07909 26.1131 3.00887 31.0379C4.93866 35.9627 8.56454 40.0359 13.2327 42.5231C17.9008 45.0102 23.304 45.7477 28.4679 44.6024C33.6318 43.4571 38.2166 40.5044 41.3955 36.2769C44.5744 32.0493 46.1382 26.8251 45.8049 21.5462C45.4717 16.2673 43.2633 11.2812 39.5779 7.48703C35.8926 3.69283 30.9729 1.34022 25.706 0.853445C20.4391 0.366667 15.1715 1.77775 10.8532 4.83225C13.0511 3.47885 15.4936 2.57068 18.0418 2.1594C20.3243 1.78441 22.6565 1.83449 24.9209 2.30711C25.5364 2.35993 26.1553 2.35993 26.7708 2.30711C28.7402 2.34228 30.991 3.84048 32.637 5.12064C33.7553 6.0069 34.3321 7.49807 34.8596 8.02561C35.5208 8.72899 35.563 8.12408 36.3297 8.67272C37.9053 9.8122 41.1479 16.2059 40.972 18.1262C40.9087 18.7803 40.5148 18.7874 40.4867 19.4415C40.4586 20.0956 40.8314 21.2 40.7892 21.826C40.5148 26.1377 38.679 25.8915 37.9756 29.4084C37.8701 30.0063 37.9264 31.814 37.7646 32.7565C37.6935 33.2163 37.4794 33.6421 37.1527 33.9734C36.0534 34.9614 34.698 35.6196 33.2419 35.8725Z" fill="url(#paint2_radial_22_83)"/>
<path style="mix-blend-mode:screen" fill-rule="evenodd" clip-rule="evenodd" d="M3.62954 19.6033C3.88276 19.948 4.40326 20.0746 4.60021 20.4614C5.15383 21.904 5.56378 23.3978 5.82409 24.9209C5.82409 25.3218 5.4513 25.6665 5.42316 26.0674C5.35283 27.2139 6.82993 28.9653 7.65288 28.48C8.15229 28.1705 8.44067 27.5797 8.94711 27.2913C9.45354 27.0029 10.3539 27.3968 10.7829 27.2913C10.8561 27.2481 10.915 27.1845 10.9525 27.1082C10.99 27.032 11.0044 26.9465 10.994 26.8622C10.9755 26.6755 10.928 26.4927 10.8533 26.3206C10.61 25.7941 10.5243 25.2083 10.6067 24.6341C10.6891 24.06 10.936 23.5219 11.3175 23.085C12.5268 21.727 13.9187 20.5434 15.4534 19.5681C16.8602 18.6256 18.8789 18.3653 20.0183 18.2458C20.7639 18.1684 21.1016 17.5846 20.3982 16.8812C18.8534 15.6283 17.6266 14.028 16.818 12.2108C16.4663 11.3808 16.5788 9.01036 17.1415 8.25775C17.6709 7.50662 18.3623 6.88404 19.1646 6.43601C19.9669 5.98799 20.8596 5.72596 21.7768 5.6693C23.7111 5.6693 26.4051 6.6259 28.2268 7.34335C29.8516 7.98343 30.133 7.83572 30.337 7.53326C30.5409 7.23081 30.0275 6.19684 28.691 5.04329C24.9209 1.8429 20.778 1.8851 16.1779 3.35517C15.5167 3.56619 11.1276 5.46532 11.2542 6.52039C11.2542 6.6048 12.9564 8.5813 13.1955 9.03147C13.387 9.39711 13.4746 9.80825 13.4488 10.2202C13.3224 12.672 12.6213 15.0598 11.4019 17.1907C11.2063 17.4791 10.9105 17.6847 10.5719 17.7675C9.2777 18.1614 6.16875 18.8577 4.82529 18.703C4.43843 18.6608 4.12191 18.091 3.77725 18.1965C3.517 18.2809 3.48886 19.4486 3.6014 19.6033H3.62954ZM30.1822 9.00333C30.4853 9.91881 30.963 10.7668 31.589 11.5003C31.6798 11.579 31.7959 11.6223 31.9161 11.6223C32.0362 11.6223 32.1523 11.579 32.2431 11.5003C32.8199 10.797 31.9477 8.73605 31.5397 8.1241C31.1318 7.51216 30.133 8.42656 30.2174 8.98223L30.1822 9.00333ZM32.6863 12.3585C32.7739 12.4115 32.8489 12.4831 32.906 12.5681C32.9631 12.6531 33.0009 12.7496 33.0168 12.8508C33.0198 13.1506 32.9395 13.4452 32.7847 13.7019C32.7463 13.7957 32.6881 13.8801 32.614 13.9493C32.54 14.0185 32.4519 14.0709 32.3557 14.1028C32.2703 14.1099 32.1848 14.0916 32.1097 14.0503C32.0347 14.0091 31.9734 13.9466 31.9336 13.8707C31.7567 13.5281 31.6742 13.1445 31.6945 12.7594C31.6971 12.6417 31.7311 12.5269 31.7929 12.4267C31.8547 12.3266 31.9422 12.2447 32.0462 12.1897C32.1585 12.1631 32.2757 12.1646 32.3873 12.1941C32.499 12.2235 32.6016 12.28 32.6863 12.3585ZM25.7298 19.5119C25.6942 19.5528 25.6746 19.6053 25.6746 19.6596C25.6746 19.7139 25.6942 19.7663 25.7298 19.8073C26.5319 20.5091 27.5006 20.9934 28.5433 21.214C29.5773 21.3969 29.6265 19.7721 29.2467 19.3923C28.9757 19.184 28.6382 19.0815 28.2972 19.1039C27.7485 19.1039 26.0956 19.1039 25.7087 19.54L25.7298 19.5119Z" fill="url(#paint3_radial_22_83)"/>
<path style="mix-blend-mode:multiply" fill-rule="evenodd" clip-rule="evenodd" d="M31.5608 31.4764L35.7248 26.6301C36.3524 27.4233 36.8968 28.2789 37.3496 29.1833C37.5184 29.8229 37.5732 30.4872 37.5114 31.1458C37.2844 31.5715 37.0004 31.9643 36.6673 32.3134C35.9578 32.7642 35.1584 33.0546 34.3251 33.1645C33.9827 33.1788 33.6449 33.0826 33.3614 32.8902C32.7213 32.4752 32.1657 31.9476 31.5608 31.4834V31.4764Z" fill="url(#paint4_radial_22_83)"/>
<path style="mix-blend-mode:multiply" fill-rule="evenodd" clip-rule="evenodd" d="M31.9617 21.3829L34.2126 16.8812C34.8735 17.2827 35.465 17.7886 35.964 18.3794C36.2282 18.8394 36.4114 19.3415 36.5056 19.8636C36.4191 20.2414 36.2818 20.6057 36.0976 20.9468C35.6458 21.4491 35.0886 21.8454 34.4658 22.1073C34.2063 22.1985 33.9234 22.1985 33.6639 22.1073C33.0801 21.9245 32.5315 21.6361 31.9688 21.404L31.9617 21.3829Z" fill="url(#paint5_radial_22_83)"/>
<path style="mix-blend-mode:multiply" fill-rule="evenodd" clip-rule="evenodd" d="M37.5043 40.3038C35.7947 38.8745 33.9556 37.6077 32.0109 36.5196L22.9162 45.1783H23.6196C28.6688 45.1873 33.5688 43.467 37.5043 40.3038Z" fill="url(#paint6_radial_22_83)"/>
<path style="mix-blend-mode:multiply" fill-rule="evenodd" clip-rule="evenodd" d="M21.0453 45.0166C20.2388 44.4245 19.5272 43.713 18.9351 42.9065L16.2974 43.9404C17.8351 44.4744 19.4276 44.8354 21.0453 45.0166Z" fill="url(#paint7_radial_22_83)"/>
<path style="mix-blend-mode:multiply" fill-rule="evenodd" clip-rule="evenodd" d="M31.9969 5.7326C34.0285 5.70713 36.0587 5.84828 38.0671 6.15463C36.0539 4.42219 33.7451 3.06647 31.2513 2.15238L31.9969 5.7326Z" fill="url(#paint8_radial_22_83)"/>
<path style="mix-blend-mode:multiply" fill-rule="evenodd" clip-rule="evenodd" d="M15.6362 38.5102C16.5724 37.7762 17.3724 36.8834 17.9996 35.8725C18.6314 35.6309 19.2947 35.4816 19.9691 35.4294C21.3632 35.8706 22.7946 36.1837 24.2456 36.3649C26.7862 35.9722 29.2051 35.0104 31.3217 33.5513C32.2521 32.5442 33.0488 31.4212 33.6921 30.2103C33.8337 28.7807 33.7506 27.3377 33.4459 25.9337C31.3357 24.1049 28.7754 23.0217 26.616 21.629C22.5294 24.4988 18.5764 27.2561 14.6023 30.0204C17.3103 35.4223 16.6632 35.6474 13.0689 31.0825L5.76074 36.182C6.93057 37.7608 8.3021 39.1796 9.84036 40.4023C11.8237 39.9413 13.763 39.3082 15.6362 38.5102Z" fill="url(#paint9_radial_22_83)"/>
<path style="mix-blend-mode:multiply" fill-rule="evenodd" clip-rule="evenodd" d="M3.26373 17.3032C3.91376 17.9391 4.73504 18.3718 5.6271 18.5482C7.83918 18.4815 10.0223 18.0268 12.0771 17.2048C13.1322 15.6362 13.4839 12.879 13.6035 10.7477C13.3156 9.93884 12.8922 9.18484 12.3514 8.518C9.67155 11.6832 5.95769 14.1451 3.2778 17.3032H3.26373Z" fill="url(#paint10_radial_22_83)"/>
<path style="mix-blend-mode:multiply" fill-rule="evenodd" clip-rule="evenodd" d="M1.4068 22.9936C1.40685 24.5537 1.56951 26.1095 1.89213 27.6359C3.45466 27.4746 4.97887 27.0514 6.40081 26.3839C6.38777 25.2171 6.14501 24.0644 5.6864 22.9915C5.22779 21.9186 4.5623 20.9465 3.72796 20.1308L1.51231 20.8342C1.44197 21.5376 1.4068 22.2832 1.4068 23.0147V22.9936Z" fill="url(#paint11_radial_22_83)"/>
<path fill-rule="evenodd" clip-rule="evenodd" d="M41.7529 14.8203C42.8634 13.8539 43.909 12.8153 44.8829 11.7113C44.1638 10.5237 43.2057 9.49851 42.0694 8.70086C41.618 8.66524 41.1639 8.70566 40.7259 8.82044C40.9287 10.8437 41.2814 12.8492 41.781 14.8203H41.7529Z" fill="url(#paint12_radial_22_83)"/>
<path fill-rule="evenodd" clip-rule="evenodd" d="M44.8829 11.7113C43.909 12.8153 42.8634 13.8539 41.7528 14.8203C42.8089 16.4236 44.0613 17.8886 45.4807 19.1813C46.0014 18.6931 46.4177 18.1045 46.7046 17.4509C46.8524 16.9075 46.9513 16.352 47 15.791C46.6582 14.2726 45.9315 12.8677 44.8899 11.7113H44.8829Z" fill="url(#paint13_radial_22_83)"/>
<path fill-rule="evenodd" clip-rule="evenodd" d="M42.0412 8.70085C43.1776 9.4985 44.1357 10.5237 44.8548 11.7113C45.8964 12.8677 46.623 14.2726 46.9649 15.7909C46.8827 15.0106 46.7153 14.2417 46.4655 13.4979C45.87 12.2123 45.08 11.0261 44.1232 9.98101C43.4979 9.44071 42.7841 9.0124 42.0131 8.71492L42.0412 8.70085Z" fill="url(#paint14_radial_22_83)"/>
<path fill-rule="evenodd" clip-rule="evenodd" d="M42.4422 30.1048C42.7365 28.6579 43.1747 27.2441 43.7504 25.8845C42.5676 26.9049 41.5205 28.0726 40.6345 29.3592C41.1985 29.6826 41.8079 29.9197 42.4422 30.0626V30.1048Z" fill="url(#paint15_radial_22_83)"/>
<path fill-rule="evenodd" clip-rule="evenodd" d="M42.4422 30.1048C41.8079 29.9619 41.1985 29.7248 40.6345 29.4014C40.1723 30.2876 39.8384 31.2349 39.6427 32.2149C40.5972 32.1822 41.5432 32.0237 42.4562 31.7437C42.4174 31.2098 42.4174 30.6738 42.4562 30.14L42.4422 30.1048Z" fill="url(#paint16_radial_22_83)"/>
<path fill-rule="evenodd" clip-rule="evenodd" d="M42.4773 31.7085C41.5642 31.9885 40.6182 32.147 39.6638 32.1798C39.5829 32.9208 39.5829 33.6684 39.6638 34.4095C40.6755 33.8131 41.7485 33.3273 42.8641 32.9605C42.6912 32.5592 42.5661 32.139 42.4914 31.7085H42.4773Z" fill="url(#paint17_radial_22_83)"/>
<path fill-rule="evenodd" clip-rule="evenodd" d="M42.8501 32.9605C41.7344 33.3273 40.6614 33.8131 39.6497 34.4095C40.3478 34.8991 41.1195 35.2743 41.9357 35.5208C42.7521 35.2477 43.5263 34.8618 44.2358 34.3743C43.6968 33.981 43.2223 33.5065 42.829 32.9675L42.8501 32.9605Z" fill="url(#paint18_radial_22_83)"/>
<path fill-rule="evenodd" clip-rule="evenodd" d="M42.4773 31.7085C42.552 32.139 42.6771 32.5592 42.8501 32.9605C43.2433 33.4995 43.7179 33.974 44.2568 34.3673C45.5911 32.4485 46.5197 30.2777 46.986 27.9876C46.8565 26.8271 46.4194 25.7222 45.7199 24.7872C45.0183 25.0776 44.3527 25.4482 43.7363 25.8915C43.1606 27.2512 42.7223 28.665 42.428 30.1118C42.3892 30.6457 42.3892 31.1817 42.428 31.7155L42.4773 31.7085Z" fill="url(#paint19_radial_22_83)"/>
<path fill-rule="evenodd" clip-rule="evenodd" d="M18.8014 1.51229C18.547 0.96541 18.218 0.456467 17.8237 2.28882e-05C17.3677 0.0750489 16.9292 0.232351 16.5295 0.464255C16.2984 1.1173 16.1427 1.79459 16.0652 2.48296C16.9494 2.08548 17.8645 1.76085 18.8014 1.51229Z" fill="url(#paint20_radial_22_83)"/>
<path fill-rule="evenodd" clip-rule="evenodd" d="M17.8238 1.04081e-05C18.218 0.456454 18.5471 0.965398 18.8015 1.51228C19.6433 1.39965 20.4913 1.33858 21.3407 1.3294H21.5658C21.3747 0.954953 21.1385 0.605342 20.8624 0.288397C19.8614 0.0927747 18.8436 -0.00382011 17.8238 1.04081e-05Z" fill="url(#paint21_radial_22_83)"/>
<path fill-rule="evenodd" clip-rule="evenodd" d="M21.3406 1.32941C20.4913 1.33859 19.6433 1.39967 18.8014 1.51229C17.8645 1.76085 16.9494 2.08548 16.0652 2.48296C17.7701 1.88473 19.5417 1.49733 21.3406 1.32941Z" fill="url(#paint22_radial_22_83)"/>
<path fill-rule="evenodd" clip-rule="evenodd" d="M31.3217 20.7498C32.2518 20.6717 33.1635 20.4462 34.0227 20.0816C34.2886 19.6672 34.5058 19.2235 34.6698 18.7592C34.3586 18.0379 33.9794 17.3478 33.5373 16.6983C33.072 17.0278 32.6573 17.4235 32.3064 17.873C31.8589 18.7869 31.5281 19.7534 31.3217 20.7498Z" fill="url(#paint23_radial_22_83)"/>
<path fill-rule="evenodd" clip-rule="evenodd" d="M34.0227 20.0816C33.1635 20.4462 32.2518 20.6717 31.3217 20.7498C31.4996 21.0347 31.7402 21.2753 32.0251 21.4532C32.6376 21.5196 33.2554 21.5196 33.8679 21.4532C33.9729 21.0204 34.0226 20.5761 34.0156 20.1308L34.0227 20.0816Z" fill="url(#paint24_radial_22_83)"/>
<path fill-rule="evenodd" clip-rule="evenodd" d="M34.0226 20.0816C34.0295 20.5268 33.9799 20.9712 33.8749 21.4039C34.4477 21.0325 34.9443 20.555 35.3379 19.9972C35.4074 19.5316 35.438 19.061 35.4294 18.5904C35.1645 18.6034 34.9055 18.6729 34.6697 18.7944C34.5057 19.2586 34.2886 19.7024 34.0226 20.1167V20.0816Z" fill="url(#paint25_radial_22_83)"/>
<path fill-rule="evenodd" clip-rule="evenodd" d="M33.5373 16.6983C33.9794 17.3478 34.3586 18.0379 34.6698 18.7592C34.9055 18.6378 35.1645 18.5682 35.4294 18.5552C35.2573 18.1221 35.038 17.7093 34.7753 17.3243C34.6266 17.1365 34.4389 16.9833 34.2251 16.8752C34.0114 16.7671 33.7767 16.7067 33.5373 16.6983Z" fill="url(#paint26_radial_22_83)"/>
<path fill-rule="evenodd" clip-rule="evenodd" d="M20.8061 42.4773C21.0279 41.7392 21.1879 40.984 21.2844 40.2194C20.5243 39.9136 19.7983 39.5294 19.118 39.0729C19.4796 40.2968 20.0508 41.4486 20.8061 42.4773Z" fill="url(#paint27_radial_22_83)"/>
<path fill-rule="evenodd" clip-rule="evenodd" d="M21.2844 40.2194C21.8119 40.3249 25.0123 40.5078 25.779 40.5852C27.5975 39.7326 29.3289 38.7056 30.9489 37.5184C30.7648 37.1183 30.6279 36.6982 30.5409 36.2664C26.8904 36.2664 21.6291 37.3215 19.132 39.0799C19.8124 39.5364 20.5384 39.9206 21.2985 40.2265L21.2844 40.2194Z" fill="url(#paint28_radial_22_83)"/>
<path fill-rule="evenodd" clip-rule="evenodd" d="M30.9489 37.5184C29.3333 38.7048 27.6067 39.7318 25.7931 40.5852C28.5644 42.2944 31.5256 43.4831 33.8187 43.455C34.1769 43.0062 34.5081 42.5364 34.8104 42.0482C33.4257 40.6242 32.1357 39.1111 30.9489 37.5184Z" fill="url(#paint29_radial_22_83)"/>
<path fill-rule="evenodd" clip-rule="evenodd" d="M30.9489 37.5184C32.1367 39.1014 33.4266 40.6052 34.8104 42.0201C34.932 41.6753 35.0307 41.3228 35.1058 40.965C35.0058 40.3164 34.8311 39.6815 34.5853 39.0729C33.8225 38.1356 32.9645 37.2799 32.025 36.5196C31.536 36.4048 31.0403 36.3202 30.5409 36.2664C30.6278 36.6982 30.7648 37.1183 30.9489 37.5184Z" fill="url(#paint30_radial_22_83)"/>
<path fill-rule="evenodd" clip-rule="evenodd" d="M33.8046 43.455C31.5116 43.455 28.5503 42.2944 25.779 40.5852C25.0123 40.5078 21.8119 40.3249 21.2844 40.2194C21.1879 40.984 21.0279 41.7392 20.8061 42.4773C21.5866 43.7187 22.5332 44.8476 23.6196 45.8324C27.1818 46.2217 30.7701 45.383 33.7905 43.455H33.8046Z" fill="url(#paint31_radial_22_83)"/>
<path fill-rule="evenodd" clip-rule="evenodd" d="M12.1052 42.5476C12.7681 42.7773 13.451 42.9445 14.145 43.047C14.4375 42.312 14.6864 41.5604 14.8906 40.7962C14.1208 40.8014 13.3591 40.9542 12.6468 41.2464C12.395 41.6494 12.2119 42.0915 12.1052 42.5547V42.5476Z" fill="url(#paint32_radial_22_83)"/>
<path fill-rule="evenodd" clip-rule="evenodd" d="M14.145 43.047C13.451 42.9445 12.7681 42.7773 12.1052 42.5476C12.4015 43.246 12.8289 43.8811 13.3643 44.4186C14.061 44.9199 14.8027 45.3555 15.5799 45.7199C14.9727 44.914 14.4978 44.0165 14.1732 43.0611L14.145 43.047Z" fill="url(#paint33_radial_22_83)"/>
<path fill-rule="evenodd" clip-rule="evenodd" d="M14.145 43.047C14.4697 44.0024 14.9446 44.8999 15.5518 45.7058C16.0351 45.6293 16.5075 45.4947 16.9585 45.3049C17.6186 44.915 18.2261 44.4422 18.7662 43.8981C18.871 43.578 18.9232 43.2431 18.921 42.9064C17.6226 42.12 16.2765 41.4153 14.8906 40.7962C14.6867 41.5628 14.4377 42.3168 14.145 43.0541V43.047Z" fill="url(#paint34_radial_22_83)"/>
<path fill-rule="evenodd" clip-rule="evenodd" d="M30.9981 5.26133C29.9286 4.64172 28.9626 3.85852 28.1353 2.94017C28.8493 3.89602 29.6372 4.79441 30.4916 5.62709C30.6781 5.53463 30.849 5.41359 30.9981 5.26837V5.26133Z" fill="url(#paint35_radial_22_83)"/>
<path fill-rule="evenodd" clip-rule="evenodd" d="M33.3052 4.7971C32.5536 5.02864 31.7807 5.18416 30.9981 5.26134C30.849 5.40656 30.6781 5.5276 30.4917 5.62006C31.4878 5.7481 32.4949 5.76697 33.4951 5.67633C33.411 5.38813 33.3476 5.09431 33.3052 4.7971Z" fill="url(#paint36_radial_22_83)"/>
<path fill-rule="evenodd" clip-rule="evenodd" d="M33.3051 4.79707C33.3475 5.09428 33.411 5.3881 33.4951 5.6763C33.905 5.23267 34.2636 4.74426 34.5642 4.2203C34.2762 4.17994 33.9933 4.1092 33.7201 4.00928C33.5569 4.26043 33.4179 4.52658 33.3051 4.80411V4.79707Z" fill="url(#paint37_radial_22_83)"/>
<path fill-rule="evenodd" clip-rule="evenodd" d="M32.9324 1.47711C33.1481 2.33273 33.4111 3.17574 33.7202 4.00225C33.9933 4.10217 34.2762 4.1729 34.5642 4.21327C34.4065 2.97955 34.0552 1.77843 33.5232 0.654151C33.3479 0.496625 33.142 0.376907 32.9183 0.30246C32.8832 0.693222 32.8832 1.08635 32.9183 1.47711H32.9324Z" fill="url(#paint38_radial_22_83)"/>
<path fill-rule="evenodd" clip-rule="evenodd" d="M29.5421 1.02695C30.683 1.10381 31.8178 1.25417 32.9394 1.47711C32.9043 1.08635 32.9043 0.693227 32.9394 0.302464C31.9358 0.19361 30.9216 0.231522 29.9289 0.415005C29.2503 0.644213 28.5954 0.938666 27.9735 1.29423C28.4875 1.15909 29.0124 1.06965 29.5421 1.02695Z" fill="url(#paint39_radial_22_83)"/>
<path fill-rule="evenodd" clip-rule="evenodd" d="M32.9324 1.47714C31.8131 1.2545 30.6807 1.10414 29.5421 1.02698C29.0077 1.06885 28.4781 1.1583 27.9595 1.29426C27.9483 1.84813 28.0074 2.40119 28.1354 2.94018C28.9733 3.86143 29.9513 4.64477 31.0333 5.26134C31.8159 5.18417 32.5888 5.02864 33.3404 4.79711C33.4531 4.51958 33.5921 4.25343 33.7554 4.00228C33.4344 3.17649 33.1597 2.33347 32.9324 1.47714Z" fill="url(#paint40_radial_22_83)"/>
<path fill-rule="evenodd" clip-rule="evenodd" d="M21.0382 19.3712C19.8089 19.5437 18.6061 19.8698 17.458 20.3419C15.669 21.3163 14.0297 22.5435 12.5906 23.9854C12.3456 24.6655 12.1919 25.375 12.1334 26.0955C13.0285 28.3793 14.3591 30.4672 16.0512 32.2431C18.1524 33.1868 20.3682 33.8513 22.6419 34.2196C24.5757 33.6663 26.4055 32.7989 28.058 31.6522C29.1806 30.3513 30.0384 28.8436 30.5831 27.2139C30.6774 26.7497 30.7408 26.2797 30.773 25.8071C29.5702 24.2575 28.1864 22.8572 26.6512 21.6361C24.8481 20.7044 22.9648 19.937 21.0241 19.343L21.0382 19.3712Z" fill="#7A369E"/>
<path fill-rule="evenodd" clip-rule="evenodd" d="M16.0512 32.2642C16.771 31.8221 17.3932 31.2382 17.88 30.5479C16.129 28.869 14.2023 27.3833 12.1334 26.1166C13.0285 28.4004 14.3591 30.4883 16.0512 32.2642Z" fill="url(#paint41_radial_22_83)"/>
<path fill-rule="evenodd" clip-rule="evenodd" d="M17.88 30.5479C17.3932 31.2381 16.771 31.8221 16.0512 32.2641C18.1524 33.2079 20.3682 33.8723 22.6419 34.2407C22.6119 33.2838 22.387 32.3432 21.9808 31.4764C20.5807 31.338 19.2032 31.0261 17.88 30.5479Z" fill="url(#paint42_radial_22_83)"/>
<path fill-rule="evenodd" clip-rule="evenodd" d="M24.119 28.909C23.52 29.8455 22.8117 30.7074 22.0089 31.4764C22.4151 32.3432 22.6401 33.2839 22.6701 34.2407C24.5954 33.678 26.4155 32.8036 28.058 31.6522C29.1806 30.3513 30.0384 28.8436 30.5831 27.2139C30.6774 26.7497 30.7408 26.2797 30.773 25.8071C29.9404 25.9603 29.0904 25.9958 28.2479 25.9126C27.0192 27.0927 25.629 28.0921 24.119 28.8809V28.909Z" fill="url(#paint43_radial_22_83)"/>
<path fill-rule="evenodd" clip-rule="evenodd" d="M23.085 24.0627C23.2725 25.7077 23.6187 27.3308 24.119 28.909C25.629 28.1202 27.0191 27.1208 28.2478 25.9408C26.4988 25.3968 24.7778 24.7708 23.085 24.0627Z" fill="url(#paint44_radial_22_83)"/>
<path fill-rule="evenodd" clip-rule="evenodd" d="M23.085 24.0627C24.7732 24.7708 26.4941 25.3968 28.2479 25.9408C29.0904 26.0239 29.9404 25.9884 30.773 25.8353C29.5702 24.2856 28.1864 22.8854 26.6512 21.6642C24.8481 20.7325 22.9648 19.9651 21.0241 19.3712C19.7948 19.5437 18.592 19.8698 17.4439 20.3418C19.1848 21.7748 21.0708 23.0219 23.071 24.0627H23.085Z" fill="url(#paint45_radial_22_83)"/>
<path fill-rule="evenodd" clip-rule="evenodd" d="M24.119 28.909C23.6188 27.3308 23.2725 25.7078 23.0851 24.0627C21.0848 23.0219 19.1989 21.7748 17.458 20.3418C15.669 21.3163 14.0297 22.5434 12.5906 23.9854C12.3456 24.6655 12.1919 25.375 12.1334 26.0955C14.2023 27.3622 16.129 28.8479 17.88 30.5268C19.2032 31.005 20.5807 31.3169 21.9807 31.4553C22.7835 30.6863 23.4919 29.8244 24.0909 28.8879L24.119 28.909Z" fill="url(#paint46_radial_22_83)"/>
<path fill-rule="evenodd" clip-rule="evenodd" d="M9.71373 28.8739C8.91187 29.2115 5.45827 30.8855 4.08667 32.1235C4.18937 33.7046 4.11624 35.2923 3.86862 36.8573C4.05747 37.1108 4.26939 37.3462 4.50167 37.5606C5.54884 37.5898 6.59001 37.3931 7.55434 36.9839C7.97479 36.6898 8.32933 36.3113 8.59535 35.8725C8.99022 35.1893 9.34714 34.4849 9.66449 33.7624C9.89856 32.1306 9.91512 30.4749 9.71373 28.8387V28.8739Z" fill="url(#paint47_radial_22_83)"/>
<path fill-rule="evenodd" clip-rule="evenodd" d="M10.9236 35.6263C10.1401 35.6158 9.35827 35.7009 8.59538 35.8795C8.32756 36.3049 7.97572 36.6711 7.56141 36.9557C6.59707 37.365 5.5559 37.5617 4.50873 37.5325C5.55903 38.3969 6.71768 39.1204 7.9553 39.6848C8.86272 39.6895 9.76658 39.5712 10.6422 39.3331C11.7722 38.7678 12.8502 38.1041 13.8637 37.3496C13.562 36.8838 13.2283 36.4396 12.8649 36.0202C12.1967 35.8584 11.5566 35.7389 10.9236 35.6263Z" fill="url(#paint48_radial_22_83)"/>
<path fill-rule="evenodd" clip-rule="evenodd" d="M8.59537 35.8725C9.35826 35.6938 10.1401 35.6088 10.9236 35.6193C10.4511 35.0478 10.0298 34.4358 9.66451 33.7905C9.34716 34.513 8.99024 35.2174 8.59537 35.9007V35.8725Z" fill="url(#paint49_radial_22_83)"/>
<path fill-rule="evenodd" clip-rule="evenodd" d="M15.0102 34.3181C14.2208 34.7849 13.499 35.3576 12.8649 36.0202C13.2283 36.4397 13.562 36.8839 13.8637 37.3496C14.3991 36.4103 14.7813 35.3917 14.9961 34.3321L15.0102 34.3181Z" fill="url(#paint50_radial_22_83)"/>
<path fill-rule="evenodd" clip-rule="evenodd" d="M12.8649 36.0202C13.499 35.3576 14.2208 34.7849 15.0102 34.3181C14.3917 32.9846 13.6147 31.7306 12.6961 30.5831C12.1205 30.0835 11.5195 29.6139 10.8954 29.1763C10.5206 29.0176 10.1204 28.9271 9.71373 28.909C9.91512 30.5452 9.89856 32.2009 9.66449 33.8327C10.0298 34.478 10.4511 35.09 10.9235 35.6615C11.5566 35.7741 12.1967 35.8936 12.8649 36.0554V36.0202Z" fill="url(#paint51_radial_22_83)"/>
<path fill-rule="evenodd" clip-rule="evenodd" d="M35.978 28.5433C35.8584 28.0368 35.563 26.8903 35.7248 26.6301C36.0252 27.2245 36.261 27.8494 36.4282 28.494C36.2834 28.4856 36.1382 28.5023 35.9991 28.5433H35.978Z" fill="url(#paint52_radial_22_83)"/>
<path fill-rule="evenodd" clip-rule="evenodd" d="M35.0988 30.358C35.4423 29.7788 35.7364 29.1718 35.978 28.5433C36.1172 28.5023 36.2623 28.4856 36.4071 28.494C36.3546 29.2252 36.2369 29.9502 36.0554 30.6604C35.7451 30.5345 35.4252 30.4333 35.0988 30.358Z" fill="url(#paint53_radial_22_83)"/>
<path fill-rule="evenodd" clip-rule="evenodd" d="M35.0988 30.358C35.4252 30.4334 35.745 30.5345 36.0554 30.6605C35.6284 31.2416 35.1271 31.7642 34.5642 32.2149C34.522 31.7211 34.522 31.2246 34.5642 30.7308C34.7547 30.6321 34.93 30.5066 35.0847 30.358H35.0988Z" fill="url(#paint54_radial_22_83)"/>
<path fill-rule="evenodd" clip-rule="evenodd" d="M34.5783 30.7308C34.536 31.2246 34.536 31.7211 34.5783 32.2149C34.2686 32.4049 33.9467 32.5741 33.6146 32.7214C32.9053 32.3566 32.2236 31.9405 31.5748 31.4764C31.4513 31.2514 31.3478 31.0161 31.2654 30.773C31.6422 30.5824 31.9942 30.3461 32.3134 30.0696C33.0078 30.4725 33.7902 30.6995 34.5923 30.7308H34.5783Z" fill="url(#paint55_radial_22_83)"/>
<path fill-rule="evenodd" clip-rule="evenodd" d="M32.9676 27.3616C32.64 28.2351 32.4157 29.144 32.2994 30.0696C31.9802 30.3461 31.6282 30.5823 31.2513 30.773C31.6434 29.5379 32.1278 28.3341 32.7003 27.1717L32.9676 27.3827V27.3616Z" fill="url(#paint56_radial_22_83)"/>
<path fill-rule="evenodd" clip-rule="evenodd" d="M32.9676 27.3616L32.7003 27.1506C33.1722 26.7199 33.7056 26.362 34.2829 26.0885C33.8157 26.4821 33.3763 26.9075 32.9676 27.3616Z" fill="url(#paint57_radial_22_83)"/>
<path fill-rule="evenodd" clip-rule="evenodd" d="M32.9676 27.3616C33.3762 26.9075 33.8157 26.4821 34.2829 26.0885C34.7713 26.2136 35.2434 26.3953 35.6897 26.6301C35.5279 26.8903 35.8233 28.0368 35.9429 28.5433C35.7012 29.1718 35.4071 29.7788 35.0637 30.358C34.9089 30.5066 34.7336 30.6321 34.5432 30.7308C33.741 30.6995 32.9586 30.4725 32.2642 30.0696C32.3805 29.144 32.6048 28.2351 32.9324 27.3616H32.9676Z" fill="url(#paint58_radial_22_83)"/>
<path fill-rule="evenodd" clip-rule="evenodd" d="M5.73962 18.1332C5.14306 17.6512 4.60484 17.1012 4.13591 16.4943C3.28495 16.3635 2.46217 16.0901 1.70221 15.6855C2.40521 16.6271 3.28724 17.4207 4.29769 18.0207C4.77324 18.1073 5.2564 18.145 5.73962 18.1332Z" fill="url(#paint59_radial_22_83)"/>
<path fill-rule="evenodd" clip-rule="evenodd" d="M4.13593 16.4943C4.60485 17.1012 5.14307 17.6512 5.73964 18.1332C6.80878 18.0207 10.4312 16.7265 10.9869 16.2833C10.3493 15.5007 9.83028 14.6285 9.44646 13.6949C7.75953 14.7821 5.9829 15.7233 4.13593 16.5084V16.4943Z" fill="url(#paint60_radial_22_83)"/>
<path fill-rule="evenodd" clip-rule="evenodd" d="M9.4465 13.6949C9.83032 14.6285 10.3493 15.5007 10.9869 16.2833C11.9621 14.5342 12.6306 12.631 12.9634 10.6563C12.9543 10.2126 12.8953 9.7714 12.7876 9.34093C12.5082 8.7852 12.191 8.24936 11.838 7.73722C11.2424 9.79818 10.4412 11.7941 9.4465 13.6949Z" fill="url(#paint61_radial_22_83)"/>
<path fill-rule="evenodd" clip-rule="evenodd" d="M4.13593 16.4943C5.9829 15.7092 7.75953 14.768 9.44646 13.6808C10.4403 11.7845 11.2414 9.79337 11.838 7.73723C11.0485 6.91981 10.1545 6.21028 9.17918 5.62708C7.43015 6.41607 5.80859 7.46155 4.36804 8.729C3.22314 10.1103 2.2762 11.6444 1.55451 13.2869C1.5062 14.0854 1.56057 14.8868 1.71629 15.6714C2.47625 16.076 3.29904 16.3495 4.15 16.4803L4.13593 16.4943Z" fill="url(#paint62_radial_22_83)"/>
<path fill-rule="evenodd" clip-rule="evenodd" d="M0.759705 26.6512C1.10202 26.9325 1.45371 27.1928 1.81478 27.4319C1.913 27.4801 2.014 27.5224 2.11723 27.5585C1.9466 27.6441 1.764 27.7034 1.57563 27.7344C1.24926 27.4177 0.974015 27.0523 0.759705 26.6512Z" fill="url(#paint63_radial_22_83)"/>
<path fill-rule="evenodd" clip-rule="evenodd" d="M1.81476 27.4319C1.95207 26.729 2.18891 26.0493 2.51814 25.4132C3.41475 25.4835 4.31549 25.4835 5.21209 25.4132C4.29628 26.2894 3.23776 27.003 2.08204 27.5234C1.99145 27.4975 1.90224 27.467 1.81476 27.4319Z" fill="url(#paint64_radial_22_83)"/>
<path fill-rule="evenodd" clip-rule="evenodd" d="M2.55331 25.4132C2.22408 26.0493 1.98723 26.729 1.84993 27.4319C1.48886 27.1928 1.13717 26.9325 0.794852 26.6512C0.477357 25.8317 0.211889 24.993 3.05176e-05 24.1401C3.05176e-05 23.0709 0.0351996 22.0299 0.119605 20.9327C0.389977 20.6933 0.690245 20.4899 1.0129 20.3278C1.63026 20.383 2.25006 20.4065 2.86983 20.3981C2.95094 20.4749 3.0466 20.5347 3.15118 20.5739C2.76783 20.9351 2.48856 21.3927 2.34255 21.8988C2.19654 22.4049 2.18917 22.9409 2.32119 23.4508C2.20283 24.1135 2.28361 24.7964 2.55331 25.4132Z" fill="url(#paint65_radial_22_83)"/>
<path fill-rule="evenodd" clip-rule="evenodd" d="M2.55332 25.4132C2.28362 24.7964 2.20284 24.1135 2.3212 23.4508C2.18511 22.9378 2.19042 22.3976 2.33654 21.8874C2.48267 21.3772 2.76417 20.916 3.15119 20.5529C3.46366 20.5524 3.7759 20.5359 4.08669 20.5036C4.35398 21.0945 5.30354 24.0205 5.24727 25.4273C4.35066 25.4976 3.44993 25.4976 2.55332 25.4273V25.4132Z" fill="url(#paint66_radial_22_83)"/>
<path fill-rule="evenodd" clip-rule="evenodd" d="M4.08672 20.5036C3.77593 20.5359 3.46369 20.5524 3.15123 20.5528C3.04665 20.5136 2.95098 20.4538 2.86987 20.377C3.15491 20.276 3.44627 20.1937 3.74207 20.1308C3.86949 20.2429 3.98499 20.3678 4.08672 20.5036Z" fill="url(#paint67_radial_22_83)"/>
<path fill-rule="evenodd" clip-rule="evenodd" d="M3.742 20.1308C3.44571 20.2006 3.15434 20.2899 2.86981 20.3981C2.2504 20.4135 1.6306 20.3971 1.01288 20.3489C1.50525 20.1027 2.01168 19.8776 2.52515 19.6455C2.93883 19.7836 3.345 19.9432 3.742 20.1238V20.1308Z" fill="url(#paint68_radial_22_83)"/>
<path fill-rule="evenodd" clip-rule="evenodd" d="M17.2188 11.8591C17.1453 10.7949 17.2139 9.72576 17.4228 8.67976C17.7146 9.67411 18.1132 10.634 18.6115 11.5425C18.1331 11.5998 17.6617 11.7059 17.2048 11.8591H17.2188Z" fill="url(#paint69_radial_22_83)"/>
<path fill-rule="evenodd" clip-rule="evenodd" d="M17.2188 11.859C17.6757 11.7059 18.1471 11.5998 18.6256 11.5425C19.3568 12.2838 20.1498 12.9615 20.996 13.5683C20.702 14.359 20.3469 15.1257 19.9339 15.8613C18.9215 14.6064 18.0179 13.2675 17.2329 11.859H17.2188Z" fill="url(#paint70_radial_22_83)"/>
<path fill-rule="evenodd" clip-rule="evenodd" d="M19.9198 15.8613C20.3329 15.1257 20.688 14.359 20.9819 13.5683C22.2053 13.3995 23.4061 13.0951 24.5622 12.6609C25.6397 14.5801 26.8724 16.408 28.2479 18.1262C27.5107 18.4248 26.7446 18.6464 25.9619 18.7874C23.8172 18.0961 21.7825 17.1012 19.9198 15.8332V15.8613Z" fill="url(#paint71_radial_22_83)"/>
<path fill-rule="evenodd" clip-rule="evenodd" d="M28.2478 18.1543C26.871 16.4271 25.6383 14.5898 24.5621 12.6609L25.9689 11.029C26.9301 11.1573 27.8739 11.3933 28.7824 11.7324C29.7085 12.538 30.5371 13.4492 31.2513 14.4475C30.4925 15.8712 29.4598 17.1309 28.2127 18.1543H28.2478Z" fill="url(#paint72_radial_22_83)"/>
<path fill-rule="evenodd" clip-rule="evenodd" d="M31.2865 14.4475C30.5789 13.4504 29.7574 12.5392 28.8387 11.7324C29.0031 10.6428 29.0291 9.53675 28.9161 8.4406C29.9487 10.3508 30.7447 12.3798 31.2865 14.4827V14.4475Z" fill="url(#paint73_radial_22_83)"/>
<path fill-rule="evenodd" clip-rule="evenodd" d="M28.9161 8.44062C29.0291 9.53677 29.0031 10.6428 28.8387 11.7324C27.9302 11.3933 26.9864 11.1574 26.0252 11.0291C25.5923 9.7713 25.0115 8.56946 24.2949 7.44885C23.3344 6.92275 22.311 6.52094 21.2492 6.2531C22.2938 6.34616 23.3319 6.50118 24.3582 6.71733C25.7649 7.11826 27.4812 7.83571 28.9723 8.37731L28.9161 8.44062Z" fill="url(#paint74_radial_22_83)"/>
<path fill-rule="evenodd" clip-rule="evenodd" d="M24.2386 7.47698C24.9552 8.59759 25.5361 9.79943 25.9689 11.0572L24.5621 12.689C23.405 13.1137 22.2042 13.4086 20.9819 13.5683C20.1357 12.9615 19.3427 12.2838 18.6115 11.5425C18.1132 10.6339 17.7146 9.6741 17.4228 8.67976C18.5506 7.69369 19.8219 6.88493 21.1929 6.28123C22.2548 6.54907 23.2782 6.95088 24.2386 7.47698Z" fill="url(#paint75_radial_22_83)"/>
<g style="mix-blend-mode:screen">
<path fill-rule="evenodd" clip-rule="evenodd" d="M20.159 12.9634C20.4873 12.8757 20.833 12.8771 21.1606 12.9673C21.4882 13.0576 21.7858 13.2334 22.0229 13.4768C22.1355 13.7019 21.0663 14.2998 20.7498 14.2365C20.4333 14.1732 19.9691 13.1744 20.159 12.9634Z" fill="#796AE5"/>
</g>
<path fill-rule="evenodd" clip-rule="evenodd" d="M20.1027 12.9423C20.4173 12.8882 20.7399 12.9043 21.0476 12.9894C21.3552 13.0745 21.6402 13.2265 21.8823 13.4346C21.9807 13.6527 21.0101 14.2576 20.7147 14.2013C20.4192 14.1451 19.9269 13.1392 20.1027 12.9423Z" fill="url(#paint76_radial_22_83)"/>
<path style="mix-blend-mode:screen" opacity="0.75" fill-rule="evenodd" clip-rule="evenodd" d="M23.0851 24.0627C21.0848 23.0219 19.1989 21.7748 17.458 20.3418C15.669 21.3163 14.0297 22.5434 12.5906 23.9854C12.3456 24.6655 12.1919 25.375 12.1334 26.0955C13.4288 26.8977 14.6737 27.7786 15.8613 28.7332C17.5846 28.8387 22.2058 25.983 23.0851 24.0627Z" fill="url(#paint77_radial_22_83)"/>
<path style="mix-blend-mode:screen" fill-rule="evenodd" clip-rule="evenodd" d="M4.13593 16.4943C5.9829 15.7092 7.75953 14.768 9.44646 13.6808C10.4403 11.7845 11.2414 9.79337 11.838 7.73723C11.0485 6.91981 10.1545 6.21028 9.17918 5.62708C7.43015 6.41607 5.80859 7.46155 4.36804 8.729C3.22314 10.1103 2.2762 11.6444 1.55451 13.2869C1.5062 14.0854 1.56057 14.8868 1.71629 15.6714C2.47625 16.076 3.29904 16.3495 4.15 16.4803L4.13593 16.4943Z" fill="url(#paint78_radial_22_83)"/>
<path style="mix-blend-mode:screen" fill-rule="evenodd" clip-rule="evenodd" d="M24.2386 7.47698C24.9552 8.59759 25.5361 9.79943 25.9689 11.0572L24.5621 12.689C23.405 13.1137 22.2042 13.4086 20.9819 13.5683C20.1357 12.9615 19.3427 12.2838 18.6115 11.5425C18.1132 10.6339 17.7146 9.6741 17.4228 8.67976C18.5506 7.69369 19.8219 6.88493 21.1929 6.28123C22.2548 6.54907 23.2782 6.95088 24.2386 7.47698Z" fill="url(#paint79_radial_22_83)"/>
<g style="mix-blend-mode:color">
<g style="mix-blend-mode:screen">
<path fill-rule="evenodd" clip-rule="evenodd" d="M45.4807 19.1813C46.0014 18.6931 46.4177 18.1045 46.7046 17.4509C46.8525 16.9075 46.9513 16.352 47 15.791C46.9179 15.0107 46.7504 14.2417 46.5006 13.4979C45.9052 12.2123 45.1151 11.0261 44.1584 9.98102C43.5331 9.44072 42.8192 9.01241 42.0482 8.71493C41.5969 8.67931 41.1427 8.71973 40.7048 8.8345C40.9076 10.8578 41.2602 12.8633 41.7598 14.8344C42.8147 16.4323 44.0647 17.8925 45.4807 19.1813Z" fill="#0099FF"/>
</g>
<g style="mix-blend-mode:screen">
<path fill-rule="evenodd" clip-rule="evenodd" d="M43.7505 25.8915C42.5677 26.9119 41.5205 28.0797 40.6345 29.3662C40.1723 30.2524 39.8384 31.1997 39.6427 32.1798C39.5619 32.9208 39.5619 33.6684 39.6427 34.4095C40.3408 34.8991 41.1125 35.2743 41.9287 35.5208C42.7451 35.2477 43.5193 34.8618 44.2288 34.3743C45.563 32.4556 46.4917 30.2847 46.9579 27.9946C46.8379 26.8344 46.4106 25.7272 45.7199 24.7872C45.0233 25.0786 44.3624 25.4491 43.7505 25.8915Z" fill="#0099FF"/>
</g>
<g style="mix-blend-mode:screen">
<path fill-rule="evenodd" clip-rule="evenodd" d="M21.5657 1.3294C21.3747 0.954953 21.1384 0.605342 20.8623 0.288397C19.8614 0.0927747 18.8436 -0.00382011 17.8237 1.04081e-05C17.3677 0.0750364 16.9292 0.232338 16.5295 0.464243C16.2984 1.11729 16.1427 1.79457 16.0652 2.48295C17.7701 1.88472 19.5417 1.49732 21.3406 1.3294H21.5657Z" fill="#0099FF"/>
</g>
<g style="mix-blend-mode:screen">
<path fill-rule="evenodd" clip-rule="evenodd" d="M32.3064 17.873C31.8589 18.7869 31.5281 19.7534 31.3217 20.7498C31.4996 21.0347 31.7402 21.2753 32.0251 21.4532C32.6376 21.5196 33.2554 21.5196 33.8679 21.4532C34.4408 21.0817 34.9373 20.6042 35.331 20.0464C35.4004 19.5809 35.431 19.1103 35.4224 18.6397C35.2503 18.2065 35.031 17.7937 34.7683 17.4087C34.6196 17.2209 34.4319 17.0677 34.2181 16.9596C34.0044 16.8515 33.7697 16.7911 33.5303 16.7827C33.0732 17.0869 32.6612 17.4539 32.3064 17.873Z" fill="#0099FF"/>
</g>
<g style="mix-blend-mode:screen">
<path fill-rule="evenodd" clip-rule="evenodd" d="M32.0109 36.5196C31.5219 36.4048 31.0263 36.3202 30.5268 36.2664C26.8763 36.2664 21.615 37.3215 19.118 39.0799C19.4796 40.3038 20.0508 41.4557 20.8061 42.4843C21.5865 43.7258 22.5332 44.8546 23.6196 45.8394C27.1817 46.2288 30.77 45.39 33.7905 43.462C34.1488 43.0132 34.48 42.5435 34.7823 42.0553C34.9039 41.7104 35.0025 41.358 35.0777 41.0002C34.9776 40.3515 34.8029 39.7166 34.5572 39.1081C33.8006 38.1592 32.9473 37.2917 32.0109 36.5196Z" fill="#0099FF"/>
</g>
<g style="mix-blend-mode:screen">
<path fill-rule="evenodd" clip-rule="evenodd" d="M14.8906 40.7962C14.1208 40.8014 13.3591 40.9542 12.6468 41.2464C12.395 41.6494 12.2119 42.0915 12.1052 42.5547C12.4023 43.2505 12.8296 43.8832 13.3643 44.4186C14.061 44.9199 14.8027 45.3555 15.5799 45.7199C16.0633 45.6434 16.5356 45.5087 16.9867 45.319C17.6468 44.929 18.2543 44.4563 18.7944 43.9122C18.8911 43.586 18.9339 43.2463 18.921 42.9064C17.6226 42.12 16.2766 41.4153 14.8906 40.7962Z" fill="#0099FF"/>
</g>
<g style="mix-blend-mode:screen">
<path fill-rule="evenodd" clip-rule="evenodd" d="M30.4917 5.62709C31.4878 5.75513 32.4949 5.774 33.4951 5.68336C33.9055 5.23753 34.2641 4.74673 34.5642 4.22032C34.4072 2.9842 34.0559 1.78065 33.5232 0.654175C33.3479 0.496649 33.142 0.376931 32.9183 0.302484C31.917 0.193514 30.9052 0.231428 29.9149 0.415025C29.2323 0.639852 28.5746 0.934487 27.9525 1.29425C27.9435 1.84842 28.005 2.40148 28.1353 2.94017C28.8493 3.89602 29.6372 4.79441 30.4917 5.62709Z" fill="#0099FF"/>
</g>
<g style="mix-blend-mode:screen">
<path fill-rule="evenodd" clip-rule="evenodd" d="M26.6512 21.6642C24.8481 20.7325 22.9648 19.9651 21.0241 19.3712C19.7948 19.5437 18.592 19.8698 17.4439 20.3418C15.6599 21.3175 14.0254 22.5445 12.5906 23.9854C12.3449 24.6652 12.1911 25.3749 12.1334 26.0955C13.0285 28.3793 14.3591 30.4672 16.0512 32.2431C18.1524 33.1868 20.3682 33.8513 22.6419 34.2196C24.5757 33.6663 26.4055 32.7989 28.058 31.6522C29.1806 30.3513 30.0384 28.8436 30.5831 27.2139C30.6774 26.7497 30.7408 26.2797 30.773 25.8071C29.5685 24.2674 28.1848 22.8766 26.6512 21.6642Z" fill="#0099FF"/>
</g>
<g style="mix-blend-mode:screen">
<path fill-rule="evenodd" clip-rule="evenodd" d="M13.8778 37.3356C14.4131 36.3963 14.7954 35.3777 15.0102 34.3181C14.3917 32.9846 13.6147 31.7306 12.6961 30.5831C12.1222 30.0814 11.5211 29.6118 10.8954 29.1763C10.5206 29.0176 10.1204 28.9271 9.71373 28.909C8.91187 29.2467 5.45827 30.9207 4.08667 32.1587C4.18937 33.7398 4.11624 35.3274 3.86862 36.8924C4.05747 37.1459 4.26939 37.3814 4.50167 37.5958C5.55197 38.4602 6.71061 39.1838 7.94824 39.7482C8.85565 39.7528 9.75952 39.6345 10.6352 39.3965C11.7651 38.8311 12.8431 38.1674 13.8567 37.4129L13.8778 37.3356Z" fill="#0099FF"/>
</g>
<g style="mix-blend-mode:screen">
<path fill-rule="evenodd" clip-rule="evenodd" d="M34.2829 26.0885C33.7056 26.362 33.1722 26.7199 32.7003 27.1506C32.1278 28.313 31.6434 29.5168 31.2513 30.7519C31.3338 30.9949 31.4373 31.2303 31.5608 31.4553C32.2096 31.9193 32.8913 32.3354 33.6006 32.7003C33.9327 32.553 34.2546 32.3838 34.5643 32.1938C35.1271 31.743 35.6285 31.2204 36.0554 30.6393C36.2369 29.9291 36.3546 29.2041 36.4071 28.4729C36.2399 27.8283 36.0041 27.2034 35.7038 26.609C35.2521 26.3805 34.7753 26.2058 34.2829 26.0885Z" fill="#0099FF"/>
</g>
<g style="mix-blend-mode:screen">
<path fill-rule="evenodd" clip-rule="evenodd" d="M4.29771 18.0207C4.77325 18.1073 5.25641 18.145 5.73964 18.1332C6.80878 18.0207 10.4312 16.7265 10.9869 16.2833C11.9621 14.5342 12.6306 12.631 12.9634 10.6563C12.9542 10.2126 12.8952 9.77141 12.7875 9.34094C12.5082 8.78521 12.1909 8.24937 11.838 7.73723C11.0485 6.91981 10.1545 6.21028 9.17918 5.62708C7.43015 6.41607 5.80859 7.46155 4.36804 8.729C3.22314 10.1103 2.2762 11.6444 1.55451 13.2869C1.5062 14.0854 1.56057 14.8868 1.71629 15.6714C2.41377 16.6167 3.29102 17.4151 4.29771 18.0207Z" fill="#0099FF"/>
</g>
<g style="mix-blend-mode:screen">
<path fill-rule="evenodd" clip-rule="evenodd" d="M4.08668 20.5036C3.98495 20.3678 3.86945 20.2429 3.74202 20.1308C3.34502 19.9503 2.93885 19.7906 2.52517 19.6525C2.0117 19.8565 1.50527 20.0816 1.0129 20.3559C0.690245 20.5181 0.389977 20.7214 0.119606 20.9608C0.0351996 22.0018 3.05176e-05 23.071 3.05176e-05 24.1401C0.200389 24.9922 0.454106 25.8309 0.759683 26.6512C0.973994 27.0523 1.24924 27.4177 1.57561 27.7344C1.76157 27.7028 1.94175 27.6435 2.11018 27.5585C3.26589 27.0382 4.32441 26.3246 5.24023 25.4484C5.30353 24.0205 4.35397 21.1015 4.08668 20.5036Z" fill="#0099FF"/>
</g>
<g style="mix-blend-mode:screen">
<path fill-rule="evenodd" clip-rule="evenodd" d="M17.4228 8.67976C17.2139 9.72576 17.1453 10.7949 17.2188 11.8591C18.0038 13.2675 18.9074 14.6064 19.9198 15.8613C21.7825 17.1294 23.8172 18.1242 25.9619 18.8155C26.7446 18.6746 27.5107 18.453 28.2479 18.1543C29.495 17.1309 30.5277 15.8712 31.2865 14.4475C30.742 12.3568 29.9461 10.3398 28.9161 8.44061C27.4249 7.89901 25.6735 7.18156 24.3019 6.78063C23.2757 6.56448 22.2375 6.40946 21.1929 6.3164C19.8241 6.90929 18.553 7.70612 17.4228 8.67976Z" fill="#0099FF"/>
</g>
</g>
<g style="mix-blend-mode:saturation">
<circle cx="23.5633" cy="23.5633" r="22.1565" fill="#FF6C00"/>
</g>
<defs>
<radialGradient id="paint0_radial_22_83" cx="0" cy="0" r="1" gradientUnits="userSpaceOnUse" gradientTransform="translate(16.635 12.5273) scale(36.4493)">
<stop stop-color="#FF9494"/>
<stop offset="0.09" stop-color="#F98F88"/>
<stop offset="0.25" stop-color="#E98167"/>
<stop offset="0.47" stop-color="#CE6A33"/>
<stop offset="0.5" stop-color="#CB672D"/>
<stop offset="0.96" stop-color="#8A0000"/>
</radialGradient>
<radialGradient id="paint1_radial_22_83" cx="0" cy="0" r="1" gradientUnits="userSpaceOnUse" gradientTransform="translate(26.4964 26.9396) scale(27.3053)">
<stop offset="0.04"/>
<stop offset="0.84"/>
<stop offset="0.85" stop-color="#0B1611"/>
<stop offset="0.9" stop-color="#366851"/>
<stop offset="0.93" stop-color="#58A984"/>
<stop offset="0.96" stop-color="#70D7A9"/>
<stop offset="0.99" stop-color="#7FF4C0"/>
<stop offset="1" stop-color="#85FFC8"/>
</radialGradient>
<radialGradient id="paint2_radial_22_83" cx="0" cy="0" r="1" gradientUnits="userSpaceOnUse" gradientTransform="translate(16.1849 14.2013) scale(37.1667 37.1667)">
<stop offset="0.33" stop-color="white"/>
<stop offset="0.4" stop-color="#FAF9F4"/>
<stop offset="0.52" stop-color="#EEE9D6"/>
<stop offset="0.68" stop-color="#DACFA6"/>
<stop offset="0.87" stop-color="#BEAB64"/>
<stop offset="1" stop-color="#AA9135"/>
</radialGradient>
<radialGradient id="paint3_radial_22_83" cx="0" cy="0" r="1" gradientUnits="userSpaceOnUse" gradientTransform="translate(8.13119 4.7127) scale(34.1633)">
<stop stop-color="#FAFFC4"/>
<stop offset="1"/>
</radialGradient>
<radialGradient id="paint4_radial_22_83" cx="0" cy="0" r="1" gradientUnits="userSpaceOnUse" gradientTransform="translate(32.8831 28.0017) scale(6.37968)">
<stop stop-color="#591539"/>
<stop offset="1" stop-color="white"/>
</radialGradient>
<radialGradient id="paint5_radial_22_83" cx="0" cy="0" r="1" gradientUnits="userSpaceOnUse" gradientTransform="translate(33.0942 18.1614) scale(4.50868 4.50868)">
<stop stop-color="#591539"/>
<stop offset="1" stop-color="white"/>
</radialGradient>
<radialGradient id="paint6_radial_22_83" cx="0" cy="0" r="1" gradientUnits="userSpaceOnUse" gradientTransform="translate(29.7601 37.1386) scale(9.08066 9.08067)">
<stop stop-color="#591539"/>
<stop offset="1" stop-color="white"/>
</radialGradient>
<radialGradient id="paint7_radial_22_83" cx="0" cy="0" r="1" gradientUnits="userSpaceOnUse" gradientTransform="translate(17.2259 41.5489) scale(4.99401)">
<stop stop-color="#591539"/>
<stop offset="1" stop-color="white"/>
</radialGradient>
<radialGradient id="paint8_radial_22_83" cx="0" cy="0" r="1" gradientUnits="userSpaceOnUse" gradientTransform="translate(30.6746 4.21329) scale(7.80051 7.80051)">
<stop stop-color="#591539"/>
<stop offset="1" stop-color="white"/>
</radialGradient>
<radialGradient id="paint9_radial_22_83" cx="0" cy="0" r="1" gradientUnits="userSpaceOnUse" gradientTransform="translate(17.1485 18.8999) scale(24.2245 24.2245)">
<stop stop-color="#591539"/>
<stop offset="1" stop-color="white"/>
</radialGradient>
<radialGradient id="paint10_radial_22_83" cx="0" cy="0" r="1" gradientUnits="userSpaceOnUse" gradientTransform="translate(6.71734 10.4593) scale(9.38312)">
<stop stop-color="#591539"/>
<stop offset="1" stop-color="white"/>
</radialGradient>
<radialGradient id="paint11_radial_22_83" cx="0" cy="0" r="1" gradientUnits="userSpaceOnUse" gradientTransform="translate(-0.288352 21.7205) scale(8.6938)">
<stop stop-color="#591539"/>
<stop offset="1" stop-color="white"/>
</radialGradient>
<radialGradient id="paint12_radial_22_83" cx="0" cy="0" r="1" gradientUnits="userSpaceOnUse" gradientTransform="translate(41.6544 19.4907) scale(11.4792)">
<stop stop-color="#AB46DB"/>
<stop offset="1" stop-color="#DA92F7"/>
</radialGradient>
<radialGradient id="paint13_radial_22_83" cx="0" cy="0" r="1" gradientUnits="userSpaceOnUse" gradientTransform="translate(43.4691 11.3526) scale(8.98923)">
<stop stop-color="#B24CED"/>
<stop offset="1" stop-color="#791D9B"/>
</radialGradient>
<radialGradient id="paint14_radial_22_83" cx="0" cy="0" r="1" gradientUnits="userSpaceOnUse" gradientTransform="translate(39.7834 15.8824) scale(7.53322 7.53322)">
<stop stop-color="#B24CED"/>
<stop offset="1" stop-color="#73069B"/>
</radialGradient>
<radialGradient id="paint15_radial_22_83" cx="0" cy="0" r="1" gradientUnits="userSpaceOnUse" gradientTransform="translate(41.6614 26.7848) scale(5.94358)">
<stop stop-color="#D487FF"/>
<stop offset="1" stop-color="#7F34CB"/>
</radialGradient>
<radialGradient id="paint16_radial_22_83" cx="0" cy="0" r="1" gradientUnits="userSpaceOnUse" gradientTransform="translate(43.1807 25.8423) scale(11.3807)">
<stop stop-color="#D487FF"/>
<stop offset="1" stop-color="#7F34CB"/>
</radialGradient>
<radialGradient id="paint17_radial_22_83" cx="0" cy="0" r="1" gradientUnits="userSpaceOnUse" gradientTransform="translate(42.2803 31.7718) scale(11.4159 11.4159)">
<stop stop-color="#9D41FC"/>
<stop offset="1" stop-color="#6514A9"/>
</radialGradient>
<radialGradient id="paint18_radial_22_83" cx="0" cy="0" r="1" gradientUnits="userSpaceOnUse" gradientTransform="translate(39.7834 30.3369) scale(9.00329 9.00329)">
<stop stop-color="#9D41FC"/>
<stop offset="1" stop-color="#6514A9"/>
</radialGradient>
<radialGradient id="paint19_radial_22_83" cx="0" cy="0" r="1" gradientUnits="userSpaceOnUse" gradientTransform="translate(40.4093 28.487) scale(8.20848 8.20847)">
<stop stop-color="#9D41FC"/>
<stop offset="1" stop-color="#6514A9"/>
</radialGradient>
<radialGradient id="paint20_radial_22_83" cx="0" cy="0" r="1" gradientUnits="userSpaceOnUse" gradientTransform="translate(17.6057 -0.295398) scale(4.43834 4.43834)">
<stop stop-color="#C799FF"/>
<stop offset="1" stop-color="#7C4BC4"/>
</radialGradient>
<radialGradient id="paint21_radial_22_83" cx="0" cy="0" r="1" gradientUnits="userSpaceOnUse" gradientTransform="translate(22.656 2.51812) scale(5.91544)">
<stop stop-color="#6D31B5"/>
<stop offset="1" stop-color="#9B5BF5"/>
</radialGradient>
<radialGradient id="paint22_radial_22_83" cx="0" cy="0" r="1" gradientUnits="userSpaceOnUse" gradientTransform="translate(17.0711 6.98461) scale(7.76534)">
<stop stop-color="#9B5BF5"/>
<stop offset="1" stop-color="#5617A3"/>
</radialGradient>
<radialGradient id="paint23_radial_22_83" cx="0" cy="0" r="1" gradientUnits="userSpaceOnUse" gradientTransform="translate(36.3298 19.4837) scale(6.94239 6.94238)">
<stop stop-color="#BA92FF"/>
<stop offset="1" stop-color="#7A5AEF"/>
</radialGradient>
<radialGradient id="paint24_radial_22_83" cx="0" cy="0" r="1" gradientUnits="userSpaceOnUse" gradientTransform="translate(33.0168 19.5963) scale(3.95301 3.95301)">
<stop stop-color="#9969FF"/>
<stop offset="1" stop-color="#6B3FE0"/>
</radialGradient>
<radialGradient id="paint25_radial_22_83" cx="0" cy="0" r="1" gradientUnits="userSpaceOnUse" gradientTransform="translate(32.4541 18.084) scale(4.58605 4.58605)">
<stop stop-color="#9969FF"/>
<stop offset="1" stop-color="#613BCE"/>
</radialGradient>
<radialGradient id="paint26_radial_22_83" cx="0" cy="0" r="1" gradientUnits="userSpaceOnUse" gradientTransform="translate(32.9254 17.1203) scale(5.09249 5.09249)">
<stop stop-color="#9969FF"/>
<stop offset="1" stop-color="#6B3FE0"/>
</radialGradient>
<radialGradient id="paint27_radial_22_83" cx="0" cy="0" r="1" gradientUnits="userSpaceOnUse" gradientTransform="translate(24.752 36.1468) scale(10.2905)">
<stop stop-color="#C799FF"/>
<stop offset="1" stop-color="#7C4BC4"/>
</radialGradient>
<radialGradient id="paint28_radial_22_83" cx="0" cy="0" r="1" gradientUnits="userSpaceOnUse" gradientTransform="translate(25.8212 47.9426) scale(13.2939 13.2939)">
<stop stop-color="#C799FF"/>
<stop offset="1" stop-color="#7C4BC4"/>
</radialGradient>
<radialGradient id="paint29_radial_22_83" cx="0" cy="0" r="1" gradientUnits="userSpaceOnUse" gradientTransform="translate(18.8788 26.0955) scale(22.7544 22.7544)">
<stop stop-color="#AC70FF"/>
<stop offset="1" stop-color="#6D31B5"/>
</radialGradient>
<radialGradient id="paint30_radial_22_83" cx="0" cy="0" r="1" gradientUnits="userSpaceOnUse" gradientTransform="translate(25.0756 44.904) scale(11.1556 11.1556)">
<stop stop-color="#9B5BF5"/>
<stop offset="1" stop-color="#5A1DA3"/>
</radialGradient>
<radialGradient id="paint31_radial_22_83" cx="0" cy="0" r="1" gradientUnits="userSpaceOnUse" gradientTransform="translate(24.8013 32.9183) scale(17.268 17.268)">
<stop stop-color="#9B5BF5"/>
<stop offset="1" stop-color="#6D31B5"/>
</radialGradient>
<radialGradient id="paint32_radial_22_83" cx="0" cy="0" r="1" gradientUnits="userSpaceOnUse" gradientTransform="translate(14.6374 38.7283) scale(6.35154)">
<stop stop-color="#D487FF"/>
<stop offset="1" stop-color="#7F34CB"/>
</radialGradient>
<radialGradient id="paint33_radial_22_83" cx="0" cy="0" r="1" gradientUnits="userSpaceOnUse" gradientTransform="translate(16.002 46.3459) scale(23.7673 23.7673)">
<stop stop-color="#7019BC"/>
<stop offset="1" stop-color="#9D41FC"/>
</radialGradient>
<radialGradient id="paint34_radial_22_83" cx="0" cy="0" r="1" gradientUnits="userSpaceOnUse" gradientTransform="translate(13.1251 41.6543) scale(9.14397 9.14397)">
<stop stop-color="#9D41FC"/>
<stop offset="1" stop-color="#6514A9"/>
</radialGradient>
<radialGradient id="paint35_radial_22_83" cx="0" cy="0" r="1" gradientUnits="userSpaceOnUse" gradientTransform="translate(31.4271 1.92027) scale(3.91784)">
<stop stop-color="#9B5BF5"/>
<stop offset="1" stop-color="#5617A3"/>
</radialGradient>
<radialGradient id="paint36_radial_22_83" cx="0" cy="0" r="1" gradientUnits="userSpaceOnUse" gradientTransform="translate(30.9981 1.28019) scale(5.52859 5.52858)">
<stop stop-color="#9B5BF5"/>
<stop offset="1" stop-color="#5617A3"/>
</radialGradient>
<radialGradient id="paint37_radial_22_83" cx="0" cy="0" r="1" gradientUnits="userSpaceOnUse" gradientTransform="translate(30.7448 2.87684) scale(4.85334 4.85334)">
<stop stop-color="#9B5BF5"/>
<stop offset="1" stop-color="#5617A3"/>
</radialGradient>
<radialGradient id="paint38_radial_22_83" cx="0" cy="0" r="1" gradientUnits="userSpaceOnUse" gradientTransform="translate(29.2959 3.84751) scale(5.87324)">
<stop stop-color="#9B5BF5"/>
<stop offset="1" stop-color="#622CA3"/>
</radialGradient>
<radialGradient id="paint39_radial_22_83" cx="0" cy="0" r="1" gradientUnits="userSpaceOnUse" gradientTransform="translate(30.6886 3.98819) scale(4.87444)">
<stop stop-color="#BA82FF"/>
<stop offset="1" stop-color="#7C4BC4"/>
</radialGradient>
<radialGradient id="paint40_radial_22_83" cx="0" cy="0" r="1" gradientUnits="userSpaceOnUse" gradientTransform="translate(29.8727 0.358764) scale(7.30814 7.30814)">
<stop stop-color="#BA82FF"/>
<stop offset="1" stop-color="#7C4BC4"/>
</radialGradient>
<radialGradient id="paint41_radial_22_83" cx="0" cy="0" r="1" gradientUnits="userSpaceOnUse" gradientTransform="translate(12.2881 26.1729) scale(15.7065 15.7065)">
<stop stop-color="#AC70FF"/>
<stop offset="1" stop-color="#6D31B5"/>
</radialGradient>
<radialGradient id="paint42_radial_22_83" cx="0" cy="0" r="1" gradientUnits="userSpaceOnUse" gradientTransform="translate(22.3254 24.0064) scale(13.308 13.308)">
<stop stop-color="#9B5BF5"/>
<stop offset="1" stop-color="#622CA3"/>
</radialGradient>
<radialGradient id="paint43_radial_22_83" cx="0" cy="0" r="1" gradientUnits="userSpaceOnUse" gradientTransform="translate(17.9855 18.0418) scale(17.7182 17.7182)">
<stop stop-color="#9B5BF5"/>
<stop offset="1" stop-color="#5A1DA3"/>
</radialGradient>
<radialGradient id="paint44_radial_22_83" cx="0" cy="0" r="1" gradientUnits="userSpaceOnUse" gradientTransform="translate(18.4568 15.9457) scale(14.7781)">
<stop stop-color="#BA82FF"/>
<stop offset="1" stop-color="#7C4BC4"/>
</radialGradient>
<radialGradient id="paint45_radial_22_83" cx="0" cy="0" r="1" gradientUnits="userSpaceOnUse" gradientTransform="translate(30.7167 25.6946) scale(14.0676)">
<stop stop-color="#6D31B5"/>
<stop offset="1" stop-color="#9B5BF5"/>
</radialGradient>
<radialGradient id="paint46_radial_22_83" cx="0" cy="0" r="1" gradientUnits="userSpaceOnUse" gradientTransform="translate(14.2435 22.2691) scale(21.0733 21.0733)">
<stop stop-color="#C799FF"/>
<stop offset="1" stop-color="#7C4BC4"/>
</radialGradient>
<radialGradient id="paint47_radial_22_83" cx="0" cy="0" r="1" gradientUnits="userSpaceOnUse" gradientTransform="translate(3.25668 31.0544) scale(10.5226)">
<stop stop-color="#AB46DB"/>
<stop offset="1" stop-color="#DA92F7"/>
</radialGradient>
<radialGradient id="paint48_radial_22_83" cx="0" cy="0" r="1" gradientUnits="userSpaceOnUse" gradientTransform="translate(8.51801 33.5302) scale(8.77821 8.77821)">
<stop stop-color="#B24CED"/>
<stop offset="1" stop-color="#791D9B"/>
</radialGradient>
<radialGradient id="paint49_radial_22_83" cx="0" cy="0" r="1" gradientUnits="userSpaceOnUse" gradientTransform="translate(11.2542 33.1856) scale(5.24723)">
<stop stop-color="#D173F7"/>
<stop offset="1" stop-color="#933CBC"/>
</radialGradient>
<radialGradient id="paint50_radial_22_83" cx="0" cy="0" r="1" gradientUnits="userSpaceOnUse" gradientTransform="translate(8.77825 32.7425) scale(7.14636 7.14636)">
<stop stop-color="#B24CED"/>
<stop offset="1" stop-color="#73069B"/>
</radialGradient>
<radialGradient id="paint51_radial_22_83" cx="0" cy="0" r="1" gradientUnits="userSpaceOnUse" gradientTransform="translate(16.5928 33.7202) scale(13.2799)">
<stop stop-color="#7A10AD"/>
<stop offset="1" stop-color="#B24CED"/>
</radialGradient>
<radialGradient id="paint52_radial_22_83" cx="0" cy="0" r="1" gradientUnits="userSpaceOnUse" gradientTransform="translate(37.4411 27.242) scale(5.62706 5.62706)">
<stop stop-color="#9B5BF5"/>
<stop offset="1" stop-color="#5A1DA3"/>
</radialGradient>
<radialGradient id="paint53_radial_22_83" cx="0" cy="0" r="1" gradientUnits="userSpaceOnUse" gradientTransform="translate(33.27 28.6136) scale(4.24842 4.24843)">
<stop stop-color="#9B5BF5"/>
<stop offset="1" stop-color="#5A1DA3"/>
</radialGradient>
<radialGradient id="paint54_radial_22_83" cx="0" cy="0" r="1" gradientUnits="userSpaceOnUse" gradientTransform="translate(33.3052 28.9512) scale(4.57902 4.57902)">
<stop stop-color="#9B5BF5"/>
<stop offset="1" stop-color="#5A1DA3"/>
</radialGradient>
<radialGradient id="paint55_radial_22_83" cx="0" cy="0" r="1" gradientUnits="userSpaceOnUse" gradientTransform="translate(32.8761 28.4378) scale(5.50045 5.50045)">
<stop stop-color="#AC70FF"/>
<stop offset="1" stop-color="#6D31B5"/>
</radialGradient>
<radialGradient id="paint56_radial_22_83" cx="0" cy="0" r="1" gradientUnits="userSpaceOnUse" gradientTransform="translate(34.4236 30.0133) scale(6.27417 6.27417)">
<stop stop-color="#9B5BF5"/>
<stop offset="1" stop-color="#5A1DA3"/>
</radialGradient>
<radialGradient id="paint57_radial_22_83" cx="0" cy="0" r="1" gradientUnits="userSpaceOnUse" gradientTransform="translate(33.5514 26.2151) scale(4.99401 4.99402)">
<stop stop-color="#B173FF"/>
<stop offset="1" stop-color="#7C4BC4"/>
</radialGradient>
<radialGradient id="paint58_radial_22_83" cx="0" cy="0" r="1" gradientUnits="userSpaceOnUse" gradientTransform="translate(33.5092 26.0744) scale(7.22374 7.22373)">
<stop stop-color="#C799FF"/>
<stop offset="1" stop-color="#7C4BC4"/>
</radialGradient>
<radialGradient id="paint59_radial_22_83" cx="0" cy="0" r="1" gradientUnits="userSpaceOnUse" gradientTransform="translate(2.58144 14.2928) scale(7.06196 7.06196)">
<stop stop-color="#BD6AFF"/>
<stop offset="1" stop-color="#7F34CB"/>
</radialGradient>
<radialGradient id="paint60_radial_22_83" cx="0" cy="0" r="1" gradientUnits="userSpaceOnUse" gradientTransform="translate(13.9833 20.799) scale(11.3526 11.3526)">
<stop stop-color="#7019BC"/>
<stop offset="1" stop-color="#9D41FC"/>
</radialGradient>
<radialGradient id="paint61_radial_22_83" cx="0" cy="0" r="1" gradientUnits="userSpaceOnUse" gradientTransform="translate(-0.97059 8.14518) scale(15.6854 15.6854)">
<stop stop-color="#9D41FC"/>
<stop offset="1" stop-color="#6514A9"/>
</radialGradient>
<radialGradient id="paint62_radial_22_83" cx="0" cy="0" r="1" gradientUnits="userSpaceOnUse" gradientTransform="translate(4.72677 8.29994) scale(24.8153 24.8153)">
<stop stop-color="#D487FF"/>
<stop offset="1" stop-color="#7F34CB"/>
</radialGradient>
<radialGradient id="paint63_radial_22_83" cx="0" cy="0" r="1" gradientUnits="userSpaceOnUse" gradientTransform="translate(1.43495 26.1447) scale(2.39853 2.39854)">
<stop stop-color="#BA82FF"/>
<stop offset="1" stop-color="#7C4BC4"/>
</radialGradient>
<radialGradient id="paint64_radial_22_83" cx="0" cy="0" r="1" gradientUnits="userSpaceOnUse" gradientTransform="translate(-0.281321 21.2492) scale(7.2378)">
<stop stop-color="#9B5BF5"/>
<stop offset="1" stop-color="#622CA3"/>
</radialGradient>
<radialGradient id="paint65_radial_22_83" cx="0" cy="0" r="1" gradientUnits="userSpaceOnUse" gradientTransform="translate(-0.0210704 18.302) scale(10.4171)">
<stop stop-color="#CCA3FF"/>
<stop offset="1" stop-color="#7C4BC4"/>
</radialGradient>
<radialGradient id="paint66_radial_22_83" cx="0" cy="0" r="1" gradientUnits="userSpaceOnUse" gradientTransform="translate(1.15359 19.54) scale(9.34092 9.34092)">
<stop stop-color="#9B5BF5"/>
<stop offset="1" stop-color="#622CA3"/>
</radialGradient>
<radialGradient id="paint67_radial_22_83" cx="0" cy="0" r="1" gradientUnits="userSpaceOnUse" gradientTransform="translate(2.8136 20.2715) scale(3.3481 3.34809)">
<stop stop-color="#9B5BF5"/>
<stop offset="1" stop-color="#6D31B5"/>
</radialGradient>
<radialGradient id="paint68_radial_22_83" cx="0" cy="0" r="1" gradientUnits="userSpaceOnUse" gradientTransform="translate(1.99761 19.8706) scale(4.87444 4.87444)">
<stop stop-color="#D4B3FF"/>
<stop offset="1" stop-color="#7C4BC4"/>
</radialGradient>
<radialGradient id="paint69_radial_22_83" cx="0" cy="0" r="1" gradientUnits="userSpaceOnUse" gradientTransform="translate(17.2188 9.94585) scale(16.3888 16.3888)">
<stop stop-color="#C799FF"/>
<stop offset="1" stop-color="#8E56E0"/>
</radialGradient>
<radialGradient id="paint70_radial_22_83" cx="0" cy="0" r="1" gradientUnits="userSpaceOnUse" gradientTransform="translate(19.4415 9.72076) scale(10.0795 10.0795)">
<stop stop-color="#AC70FF"/>
<stop offset="1" stop-color="#6D31B5"/>
</radialGradient>
<radialGradient id="paint71_radial_22_83" cx="0" cy="0" r="1" gradientUnits="userSpaceOnUse" gradientTransform="translate(22.874 11.8309) scale(31.7225 31.7225)">
<stop stop-color="#9B5BF5"/>
<stop offset="1" stop-color="#622CA3"/>
</radialGradient>
<radialGradient id="paint72_radial_22_83" cx="0" cy="0" r="1" gradientUnits="userSpaceOnUse" gradientTransform="translate(20.2433 10.5156) scale(16.2552 16.2552)">
<stop stop-color="#9B5BF5"/>
<stop offset="1" stop-color="#622CA3"/>
</radialGradient>
<radialGradient id="paint73_radial_22_83" cx="0" cy="0" r="1" gradientUnits="userSpaceOnUse" gradientTransform="translate(21.6924 14.3842) scale(9.50973)">
<stop stop-color="#9B5BF5"/>
<stop offset="1" stop-color="#5A1DA3"/>
</radialGradient>
<radialGradient id="paint74_radial_22_83" cx="0" cy="0" r="1" gradientUnits="userSpaceOnUse" gradientTransform="translate(19.6244 11.3948) scale(10.9095 10.9095)">
<stop stop-color="#9B5BF5"/>
<stop offset="1" stop-color="#6D31B5"/>
</radialGradient>
<radialGradient id="paint75_radial_22_83" cx="0" cy="0" r="1" gradientUnits="userSpaceOnUse" gradientTransform="translate(17.6198 11.3878) scale(16.5576 16.5576)">
<stop stop-color="#B980FF"/>
<stop offset="1" stop-color="#883FF2"/>
</radialGradient>
<radialGradient id="paint76_radial_22_83" cx="0" cy="0" r="1" gradientUnits="userSpaceOnUse" gradientTransform="translate(20.6162 12.5976) scale(1.67405)">
<stop stop-color="#6D31B5"/>
<stop offset="1" stop-color="#9B5BF5"/>
</radialGradient>
<radialGradient id="paint77_radial_22_83" cx="0" cy="0" r="1" gradientUnits="userSpaceOnUse" gradientTransform="translate(12.9282 15.8824) scale(13.526 13.526)">
<stop stop-color="white"/>
<stop offset="1"/>
</radialGradient>
<radialGradient id="paint78_radial_22_83" cx="0" cy="0" r="1" gradientUnits="userSpaceOnUse" gradientTransform="translate(5.29651 3.06677) scale(11.3104)">
<stop stop-color="white"/>
<stop offset="1"/>
</radialGradient>
<radialGradient id="paint79_radial_22_83" cx="0" cy="0" r="1" gradientUnits="userSpaceOnUse" gradientTransform="translate(18.077 4.55794) scale(8.77118 8.77118)">
<stop stop-color="white"/>
<stop offset="1"/>
</radialGradient>
</defs>
</svg>
