<svg width="53" height="53" viewBox="0 0 53 53" fill="none" xmlns="http://www.w3.org/2000/svg">
<path fill-rule="evenodd" clip-rule="evenodd" d="M2.02092 31.3411L36.4726 48.337C29.1208 54.9248 17.9487 51.6971 11.4544 47.2689C6.36344 43.7761 2.35616 39.0204 1.70907 33.6176C1.6094 32.8445 1.71703 32.0589 2.02092 31.3411Z" fill="url(#paint0_radial_22_222)"/>
<path style="mix-blend-mode:multiply" fill-rule="evenodd" clip-rule="evenodd" d="M1.73242 32.3624C2.15258 34.3861 3.09002 36.2663 4.45332 37.8198C7.16338 40.8129 10.1787 43.5147 13.4502 45.8811C17.6134 48.8515 21.8624 50.7616 27.0235 50.8396C29.8152 50.9521 32.5972 50.4463 35.1706 49.3583C35.6235 49.0426 36.0582 48.7016 36.4726 48.337L2.02088 31.3411C1.89425 31.6722 1.79771 32.014 1.73242 32.3624Z" fill="url(#paint1_radial_22_222)"/>
<path fill-rule="evenodd" clip-rule="evenodd" d="M1.25686 22.5235L43.9882 43.4643C42.7876 46.3957 40.2694 48.2122 36.0048 48.9217C33.9607 49.2432 31.8879 49.3425 29.8224 49.2179C25.9134 49.0586 22.0834 48.0672 18.588 46.3099C13.7543 44.049 12.2184 42.4898 8.24232 39.418C3.56455 35.8084 -2.67247 29.4622 1.22567 22.4923L1.25686 22.5235Z" fill="url(#paint2_radial_22_222)"/>
<path style="mix-blend-mode:multiply" fill-rule="evenodd" clip-rule="evenodd" d="M0.976196 23.0458C2.70395 29.295 6.4547 34.795 11.6415 38.6852C14.4248 40.6888 17.7304 41.8037 20.8099 43.3629C22.8837 44.392 24.9263 45.4913 27.0469 46.3333C33.6894 48.9217 38.0475 47.6509 43.5906 44.2439C43.7244 43.9908 43.8441 43.7305 43.9493 43.4643L1.25686 22.5235C1.15551 22.7028 1.06196 22.8743 0.976196 23.0458Z" fill="url(#paint3_radial_22_222)"/>
<path fill-rule="evenodd" clip-rule="evenodd" d="M6.09057 14.0723L49.7497 33.563C50.2487 38.3421 47.6525 42.4507 42.7331 44.1191C38.5542 45.5459 32.7772 45.7642 28.6062 44.2439C22.4861 42.022 15.8827 39.2387 10.9321 35.13C7.40814 32.1909 0.68775 25.3925 0.726731 20.6524C0.726731 16.9959 2.49649 14.9611 6.09057 14.0723Z" fill="url(#paint4_radial_22_222)"/>
<path style="mix-blend-mode:multiply" fill-rule="evenodd" clip-rule="evenodd" d="M8.03182 23.0692C8.38968 23.5046 8.70309 23.9747 8.96737 24.4725C12.4913 30.7407 14.7054 34.3036 19.2585 37.1103C24.5599 40.4315 26.9144 40.5095 33.8219 39.4024C34.6906 39.2382 35.5795 39.2092 36.457 39.3166C43.7387 40.5407 47.9877 41.4216 49.7731 35.0833C49.7856 34.594 49.7673 34.1045 49.7185 33.6176L6.05936 14.1269C5.21571 14.3261 4.40277 14.6382 3.64252 15.0546C4.18046 18.8358 7.39252 22.4299 8.00063 23.1238L8.03182 23.0692Z" fill="url(#paint5_radial_22_222)"/>
<path fill-rule="evenodd" clip-rule="evenodd" d="M9.08429 18.6565L50.1161 21.089C52.377 24.7376 53.1332 28.5656 50.7086 32.4637C49.3598 34.6233 46.5142 36.1202 44.0194 36.6815C39.6067 37.6638 37.2912 36.6269 33.1046 36.3073C27.9591 35.9175 27.4289 36.8062 22.0963 34.3894C18.3073 32.6742 14.6586 30.2028 12.2886 26.8192C10.6288 24.3694 9.5343 21.5813 9.08429 18.6565Z" fill="url(#paint6_radial_22_222)"/>
<path style="mix-blend-mode:multiply" fill-rule="evenodd" clip-rule="evenodd" d="M9.88731 21.9466C14.5651 27.3026 22.7823 31.3878 29.1987 32.261C33.5334 32.8457 34.1337 32.0739 37.9149 31.1773C38.999 30.8794 40.1081 30.681 41.2283 30.5848C47.0599 30.2964 52.1899 30.8889 51.8313 24.8624C51.4378 23.5309 50.8605 22.2609 50.1161 21.089L9.08429 18.6565C9.27311 19.7688 9.53353 20.8678 9.86392 21.9466H9.88731Z" fill="url(#paint7_radial_22_222)"/>
<path fill-rule="evenodd" clip-rule="evenodd" d="M11.353 9.14507C5.82546 7.93665 3.0188 11.3202 3.61911 14.3218C4.88211 20.5978 12.8031 24.3088 18.1046 26.2969C21.767 27.636 25.588 28.493 29.4716 28.8463C32.5738 29.2017 35.7146 28.7226 38.5698 27.4585L11.353 9.14507Z" fill="url(#paint8_radial_22_222)"/>
<path style="mix-blend-mode:multiply" fill-rule="evenodd" clip-rule="evenodd" d="M7.57962 9.05152C7.30675 14.3062 9.66123 18.7111 14.5339 21.7439C17.5199 23.615 24.6691 25.7278 28.1072 26.2891C31.0558 26.7408 34.0538 26.7697 37.0106 26.3748L11.353 9.14508C10.1158 8.8486 8.82998 8.81672 7.57962 9.05152Z" fill="url(#paint9_radial_22_222)"/>
<path fill-rule="evenodd" clip-rule="evenodd" d="M12.3198 5.78488L28.8634 23.2719C24.0946 22.7862 19.4561 21.4251 15.181 19.2568C13.0214 18.0562 11.0178 16.7231 9.61445 14.5791C9.09471 13.7245 8.67857 12.8111 8.37484 11.8582C7.75114 10.1196 6.93253 7.69497 8.92838 6.40079C9.95594 5.8159 11.1521 5.59866 12.3198 5.78488Z" fill="url(#paint10_radial_22_222)"/>
<path style="mix-blend-mode:multiply" fill-rule="evenodd" clip-rule="evenodd" d="M11.049 5.7537C10.3395 7.75734 11.049 10.1898 12.2886 12.4585C14.4793 16.4268 16.2803 17.8301 19.9211 20.2548C20.5874 20.7496 21.2084 21.3027 21.7766 21.9076C24.0856 22.6055 26.4605 23.0627 28.8635 23.2719L12.3198 5.78489C11.8972 5.74242 11.4715 5.74242 11.049 5.78489V5.7537Z" fill="url(#paint11_radial_22_222)"/>
<path fill-rule="evenodd" clip-rule="evenodd" d="M18.0033 2.6196L38.2736 4.84934C44.1675 7.32855 54.178 18.2511 50.5683 24.0827C49.009 26.5931 46.3895 26.8426 43.7154 27.1077C42.5225 27.2324 41.3141 27.2636 40.1135 27.365C39.2752 27.5434 38.4211 27.6375 37.5641 27.6456C36.2404 27.4749 34.9452 27.1289 33.7127 26.6165C30.1109 25.1742 28.7465 23.9658 25.8307 21.7906C24.482 20.7849 23.1254 19.787 21.7455 18.8203C19.7496 17.4403 17.7304 16.5593 15.9294 14.7584C15.0269 13.8617 14.188 12.903 13.419 11.8894C12.195 10.2444 9.98089 7.00891 11.0802 5.04425C11.8598 3.65651 15.2122 2.17522 18.0344 2.6196H18.0033Z" fill="url(#paint12_radial_22_222)"/>
<path style="mix-blend-mode:multiply" fill-rule="evenodd" clip-rule="evenodd" d="M17.4107 2.55723C15.3057 4.03853 16.1555 6.70485 17.5432 8.84883C20.5838 13.5578 26.0022 18.7111 31.1166 21.05C33.1514 22.0011 34.9679 21.4242 36.8 21.432C38.8972 21.432 41.548 22.1337 43.7621 22.4533C47.0132 22.9211 48.9778 22.0713 49.7263 20.3016C50.2641 18.8718 50.2641 17.2953 49.7263 15.8655C47.1145 11.0942 41.93 6.36181 38.2891 4.83375L18.0188 2.60401C17.8228 2.57127 17.6249 2.55044 17.4263 2.54164L17.4107 2.55723Z" fill="url(#paint13_radial_22_222)"/>
<path fill-rule="evenodd" clip-rule="evenodd" d="M39.825 18.5864C41.1114 18.5006 42.4211 18.7345 43.7231 18.5864C46.5376 18.1888 48.0267 17.0817 48.4009 15.5224C49.6873 9.35559 38.8972 2.13624 32.0989 0.561394C26.774 -0.670417 13.2241 -0.405343 17.668 6.89976C20.2096 11.0786 24.6378 13.9944 28.7231 16.5749C33.0344 19.3114 35.1784 18.9138 39.825 18.5864Z" fill="url(#paint14_radial_22_222)"/>
<path style="mix-blend-mode:multiply" opacity="0.5" fill-rule="evenodd" clip-rule="evenodd" d="M44.1598 11.8348C45.0563 13.6903 47.2315 15.694 45.719 18.0718C47.2237 17.5105 48.0579 16.6295 48.3152 15.4991C48.4297 14.956 48.4587 14.3983 48.4009 13.8463C47.7772 8.13938 38.2658 2.00372 32.0755 0.592593C29.5769 0.0762777 27.0203 -0.102033 24.4742 0.0624459C27.7798 0.0624459 31.7949 0.491241 34.2117 2.26879C34.9368 2.79114 35.5449 3.46942 36.2933 3.96058C36.7923 4.28803 37.2367 4.5531 37.6499 4.78699C39.8172 6.00321 40.8308 6.16693 42.8968 9.1607C43.3858 10.0195 43.8105 10.9133 44.1676 11.8348H44.1598Z" fill="url(#paint15_radial_22_222)"/>
<path style="mix-blend-mode:multiply" opacity="0.5" fill-rule="evenodd" clip-rule="evenodd" d="M48.3542 15.4912C48.1047 16.6217 47.2627 17.5027 45.758 18.064C47.9176 17.9315 47.9254 19.3972 47.824 20.9486L47.7772 21.5879C47.6657 22.275 47.5121 22.9545 47.3173 23.6228C47.3044 24.2389 47.218 24.8514 47.06 25.4471C46.837 26.0486 46.4016 26.5478 45.836 26.8504C47.7227 26.5464 49.4378 25.9227 50.5683 24.0827C50.801 23.7086 50.9819 23.3048 51.1062 22.8821C51.8859 20.2626 50.5917 16.9413 48.4399 13.8384C48.4976 14.3905 48.4687 14.9481 48.3542 15.4912Z" fill="url(#paint16_radial_22_222)"/>
<path style="mix-blend-mode:multiply" opacity="0.5" fill-rule="evenodd" clip-rule="evenodd" d="M50.5527 24.0828C49.4222 25.9227 47.7071 26.5464 45.8204 26.8504C47.442 27.8406 47.0522 30.39 46.5376 31.8946L46.4519 32.1207C46.122 32.9571 45.6787 33.7441 45.1343 34.4596C44.0035 35.6881 42.5709 36.5993 40.9789 37.1025C42.0024 37.0576 43.0199 36.9219 44.0194 36.6971C46.1559 36.2294 48.1271 35.1953 49.7263 33.7034C50.0924 33.3263 50.4165 32.9107 50.693 32.4638C52.7201 29.1971 52.5252 25.9851 51.0751 22.8821C50.9508 23.3048 50.7698 23.7087 50.5371 24.0828H50.5527Z" fill="url(#paint17_radial_22_222)"/>
<path style="mix-blend-mode:multiply" opacity="0.5" fill-rule="evenodd" clip-rule="evenodd" d="M49.7263 33.6878C48.1271 35.1797 46.1559 36.2138 44.0194 36.6815C43.0199 36.9063 42.0024 37.042 40.9789 37.0869C42.8734 37.9679 40.7996 39.4726 40.5968 40.5485C40.363 41.7491 40.4877 42.2949 39.6847 42.9731C38.2658 44.1816 35.2954 45.0158 32.3796 45.1327C35.8572 45.5482 39.3835 45.2078 42.7174 44.1348C43.1202 43.9991 43.5157 43.843 43.9025 43.667C45.8222 42.8576 47.4275 41.4474 48.4776 39.648C49.5277 37.8487 49.9659 35.7573 49.7263 33.6878Z" fill="url(#paint18_radial_22_222)"/>
<path style="mix-blend-mode:multiply" opacity="0.5" fill-rule="evenodd" clip-rule="evenodd" d="M42.7174 44.1348C39.3835 45.2078 35.8572 45.5482 32.3796 45.1327C33.0111 45.5693 33.6426 46.5438 32.7928 47.0817C31.943 47.6197 31.7325 48.1732 30.7346 48.3993C28.1536 48.7016 25.5411 48.5964 22.9929 48.0875C25.2074 48.7776 27.5043 49.1683 29.8224 49.2491C31.7614 49.3628 33.707 49.2845 35.6306 49.0152L36.0048 48.9529C40.168 48.2278 42.6707 46.4814 43.9025 43.667C43.5157 43.843 43.1202 43.9991 42.7174 44.1348Z" fill="url(#paint19_radial_22_222)"/>
<path style="mix-blend-mode:multiply" opacity="0.5" fill-rule="evenodd" clip-rule="evenodd" d="M35.6306 49.0152C33.707 49.2845 31.7614 49.3628 29.8224 49.2491C27.5043 49.1683 25.2074 48.7776 22.9929 48.0875C24.6223 49.0542 23.8427 50.2471 21.9949 50.0443C17.1846 49.4986 8.53078 45.2886 4.84314 41.0007C6.69747 43.4352 8.94509 45.5431 11.4934 47.2377C17.7304 51.5023 28.3177 54.6519 35.6618 48.9841L35.6306 49.0152Z" fill="url(#paint20_radial_22_222)"/>
<path style="mix-blend-mode:screen" opacity="0.4" fill-rule="evenodd" clip-rule="evenodd" d="M17.668 6.89976C20.2096 11.0786 24.6379 13.9944 28.7231 16.5749C30.5919 17.9117 32.8056 18.683 35.1005 18.7969C35.408 18.8095 35.7097 18.7108 35.9503 18.5189C36.1909 18.327 36.3542 18.0548 36.4103 17.7522C36.6214 16.768 36.6214 15.7503 36.4103 14.7662C35.9638 13.7059 35.5964 12.614 35.311 11.4996C35.1707 10.8447 35.389 10.143 35.2252 9.50372C35.0078 8.59583 34.6331 7.73302 34.1182 6.95434C33.2714 5.79914 32.2132 4.81501 30.9997 4.05412C29.4637 3.00198 27.6953 2.33848 25.8463 2.12065C24.4274 2.0193 22.9929 2.28437 21.5662 2.29217C20.1394 2.29996 20.0537 2.0193 18.4477 2.50267C18.3299 2.53736 18.2151 2.58169 18.1046 2.6352C17.6191 2.8591 17.2352 3.25691 17.0287 3.75007C16.8208 4.17061 16.7684 4.65112 16.8806 5.10662C17.0483 5.74034 17.3111 6.34493 17.6602 6.89976H17.668ZM35.8255 11.0552C35.7889 11.3575 35.8074 11.6639 35.8801 11.9595C35.9722 12.3167 36.1367 12.651 36.3635 12.9419C36.4279 13.0159 36.5086 13.0741 36.5992 13.112C36.6898 13.1499 36.7879 13.1663 36.8858 13.1602C37.0106 13.1602 37.0963 12.9809 37.1041 12.8639C37.186 12.2638 37.186 11.6553 37.1041 11.0552C37.0471 10.8474 36.9134 10.6691 36.7299 10.5562C36.6393 10.502 36.5361 10.4723 36.4305 10.47C36.3249 10.4678 36.2206 10.4931 36.1277 10.5435C36.0349 10.5938 35.9567 10.6675 35.901 10.7572C35.8453 10.8469 35.8139 10.9496 35.81 11.0552H35.8255Z" fill="url(#paint21_radial_22_222)"/>
<path style="mix-blend-mode:screen" opacity="0.4" fill-rule="evenodd" clip-rule="evenodd" d="M9.61447 14.5947C10.0088 15.1931 10.4633 15.7495 10.971 16.2553C12.0877 17.3305 13.3438 18.2509 14.7054 18.9918L15.181 19.2568C16.4861 19.9596 17.8442 20.5592 19.2429 21.05C18.3379 20.4525 17.4636 19.8098 16.6233 19.1243C16.0932 18.7657 15.4851 18.5396 14.9783 18.1498L14.6898 17.9315C13.4658 16.9335 13.4892 16.5203 12.655 15.2106C12.3107 14.8045 11.9955 14.3746 11.7117 13.9242C11.049 12.4039 10.932 10.8057 10.0433 9.11388C10.0433 9.05151 9.9731 8.98914 9.93412 8.92677C9.84596 8.79313 9.72868 8.68118 9.59108 8.59933C9.38693 8.4638 9.13892 8.41085 8.89721 8.4512C8.69677 8.51733 8.51319 8.62642 8.35927 8.77085C8.13685 8.96491 7.97408 9.21813 7.88989 9.50105C7.80571 9.78398 7.80356 10.085 7.8837 10.3691C8.01793 10.8789 8.17928 11.3812 8.36707 11.8738C8.6708 12.8267 9.08693 13.7401 9.60668 14.5947H9.61447Z" fill="url(#paint22_radial_22_222)"/>
<path style="mix-blend-mode:screen" opacity="0.4" fill-rule="evenodd" clip-rule="evenodd" d="M13.4034 11.8894C14.1724 12.903 15.0113 13.8617 15.9138 14.7584C17.7148 16.5594 19.734 17.4403 21.7298 18.8203L22.6264 19.4908C23.7023 20.2548 24.7652 21.0344 25.8151 21.8296L27.616 23.1862C28.3957 23.7475 29.0583 24.2465 29.7912 24.7065C30.7248 25.2995 31.7022 25.8208 32.7148 26.2657C32.5277 26.1176 32.3484 25.9539 32.1768 25.7901C30.7345 24.3712 29.8847 22.2974 27.1015 19.7792C26.438 19.1782 25.7403 18.6159 25.0121 18.0952C24.4207 17.7165 23.7972 17.3904 23.1488 17.1207L22.8915 16.9959C22.702 16.9039 22.5172 16.8025 22.338 16.6919C21.5721 16.2428 20.8515 15.7206 20.1862 15.1326C19.4554 14.3812 18.8264 13.5372 18.3151 12.6222C18.0344 12.1856 17.8083 11.788 17.6134 11.4216C16.4362 9.24645 16.4284 8.07701 15.4071 5.7927C15.2352 5.44125 14.9415 5.16419 14.5807 5.01307C13.8712 4.70902 12.7563 5.18459 12.0001 5.7927L11.9143 5.86287C11.541 6.17155 11.2788 6.59378 11.1676 7.06527C11.0564 7.53675 11.1024 8.03166 11.2984 8.47462C11.4466 8.80986 11.6181 9.15289 11.7974 9.48034C12.2818 10.3304 12.8209 11.1481 13.4112 11.9284L13.4034 11.8894ZM31.8884 23.4746C31.8026 23.3967 31.6233 23.3967 31.5999 23.654C31.6585 24.0541 31.7979 24.4381 32.0097 24.7825C32.2214 25.127 32.5011 25.4247 32.8317 25.6576C33.1994 25.9095 33.6168 26.0796 34.0557 26.1566C34.6405 26.2891 35.7787 25.9227 35.2798 25.3769C34.6892 25.067 34.0636 24.8288 33.4165 24.6675C32.8043 24.4116 32.2676 24.0037 31.8572 23.4824L31.8884 23.4746Z" fill="url(#paint23_radial_22_222)"/>
<path style="mix-blend-mode:screen" opacity="0.4" fill-rule="evenodd" clip-rule="evenodd" d="M4.34419 14.813V14.8909C4.24608 15.2073 4.21278 15.5402 4.24627 15.8697C4.27976 16.1993 4.37935 16.5187 4.5391 16.8088C7.03391 21.6035 13.5516 24.5895 18.1046 26.2969C21.1441 27.407 24.2976 28.1758 27.5069 28.589C25.324 27.9341 24.7782 27.3416 21.9092 26.3047C21.0914 26.0424 20.2896 25.7326 19.5079 25.3769C18.6114 24.9325 18.5724 24.0048 16.7637 23.6072C14.3858 23.0848 14.0973 22.0011 11.7429 20.4887C10.982 20.0565 10.264 19.5526 9.59888 18.984C8.03962 17.3624 7.72777 14.774 6.76104 13.1056C6.69002 13.0084 6.59746 12.9289 6.49061 12.8735C6.38375 12.818 6.2655 12.7881 6.14513 12.786C5.29534 12.747 4.58588 14.1347 4.35978 14.8052L4.34419 14.813Z" fill="url(#paint24_radial_22_222)"/>
<path style="mix-blend-mode:screen" opacity="0.4" fill-rule="evenodd" clip-rule="evenodd" d="M2.10663 22.9445C2.16612 24.3094 2.53679 25.6428 3.19031 26.8426C5.41286 29.919 8.01388 32.7034 10.932 35.13L11.0256 35.208C10.3473 34.2802 10.511 33.7033 9.71579 32.8691C9.36713 32.3878 9.08154 31.8638 8.866 31.3099C8.25009 29.9377 8.28128 28.6357 7.85248 27.2558C7.63222 26.5978 7.35843 25.959 7.03387 25.3457C6.91693 25.104 6.79998 24.8623 6.69084 24.5661C6.17628 23.3031 5.86443 21.9621 5.33429 20.7069C4.69499 19.327 2.66796 19.0775 2.35611 20.8239C2.20339 21.5202 2.13015 22.2316 2.13781 22.9445H2.10663ZM10.5968 29.3608C10.4827 29.2693 10.3516 29.2015 10.211 29.1614C10.0705 29.1212 9.92331 29.1095 9.77816 29.1269C9.2792 29.3218 9.24022 30.6862 9.7002 31.4658C9.87197 31.813 10.1115 32.1222 10.4048 32.3753C10.698 32.6284 11.039 32.8201 11.4076 32.9393C11.5869 32.9393 11.7038 32.8067 11.696 32.6196C11.6882 32.4325 11.2439 31.5671 11.1113 30.8421C11.0836 30.3047 10.9053 29.786 10.5968 29.3452V29.3608Z" fill="url(#paint25_radial_22_222)"/>
<path style="mix-blend-mode:screen" opacity="0.4" fill-rule="evenodd" clip-rule="evenodd" d="M12.2886 26.8192C12.7458 27.4678 13.2459 28.0851 13.7854 28.667C16.1541 31.1004 18.9779 33.0447 22.0963 34.3894L22.5562 34.5999C21.8624 33.8203 21.496 32.9393 20.8722 32.1441C20.6304 31.8226 20.3473 31.5342 20.0303 31.2865C19.4299 30.8187 18.6503 30.6238 18.0422 30.1638C17.7771 29.9689 17.6992 29.5947 17.4653 29.3842C15.6487 27.5989 12.8889 26.866 11.1347 24.9481C11.4727 25.6069 11.8583 26.2401 12.2886 26.8426V26.8192Z" fill="url(#paint26_radial_22_222)"/>
<path style="mix-blend-mode:screen" opacity="0.4" fill-rule="evenodd" clip-rule="evenodd" d="M0.157593 28.6202C0.44103 30.0021 0.969078 31.3222 1.71685 32.5183L1.84938 32.7288C3.25165 34.8638 4.977 36.768 6.96374 38.3733C6.21196 37.3914 5.55664 36.3392 5.00688 35.2314C4.28962 33.984 2.96425 30.9123 2.57444 29.9767C2.27038 29.1971 0.235556 26.4996 0.157593 28.5734V28.6202Z" fill="url(#paint27_radial_22_222)"/>
<path style="mix-blend-mode:screen" fill-rule="evenodd" clip-rule="evenodd" d="M51.0907 22.8821C51.8703 20.2626 50.5761 16.9414 48.4165 13.8384C47.7928 8.13157 38.2814 1.9959 32.0989 0.584776C28.1462 -0.350777 19.6795 -0.444332 17.3796 2.55723C14.7055 2.39351 11.7507 3.75786 11.049 5.04424C10.916 5.28545 10.8313 5.55026 10.7995 5.82387C10.1378 5.88211 9.49796 6.09006 8.92842 6.43198C8.49446 6.71065 8.14699 7.10503 7.92521 7.57063C7.70343 8.03624 7.61615 8.55456 7.67322 9.06712H7.57967C4.59369 9.69862 3.17477 12.1155 3.61916 14.3296C3.66442 14.538 3.72169 14.7437 3.79068 14.9455C1.74805 16.0526 0.750132 17.8847 0.726743 20.6524C0.738158 21.3855 0.867137 22.1119 1.10876 22.8042C-0.762346 26.3047 -0.0294958 29.6259 1.70907 32.5417C1.66227 32.8988 1.66227 33.2605 1.70907 33.6176C2.37176 39.0204 6.38684 43.7527 11.4544 47.2689C17.6914 51.5334 28.2866 54.6753 35.6229 49.0074L35.9893 48.9529C40.1525 48.2278 42.6395 46.4736 43.8791 43.6592C45.8015 42.8482 47.4091 41.4357 48.4605 39.6336C49.512 37.8315 49.9507 35.737 49.7107 33.6644C50.0787 33.2991 50.4079 32.8968 50.6931 32.4637C52.7357 29.2049 52.533 25.985 51.0907 22.8821Z" fill="url(#paint28_radial_22_222)"/>
<path style="mix-blend-mode:screen" opacity="0.5" fill-rule="evenodd" clip-rule="evenodd" d="M10.1992 8.05362C9.50678 8.48623 8.77604 8.8542 8.01621 9.15289C7.33014 9.46474 6.45696 11.2111 6.30103 11.445C5.05443 13.0192 3.94339 14.6962 2.97982 16.458C2.38132 17.9521 1.94991 19.5078 1.69343 21.0968C1.58575 21.7227 1.5284 22.3562 1.52192 22.9913C1.53751 23.2743 1.53751 23.558 1.52192 23.8411C1.32701 25.2522 1.66225 26.3515 2.86288 28.2616C3.31371 29.0508 3.80555 29.8159 4.33637 30.5537C4.99592 31.5138 5.74512 32.4092 6.5739 33.2278C7.30557 33.8213 8.13002 34.2901 9.01413 34.6155C9.76767 34.8952 10.5535 35.0786 11.353 35.1613C12.7591 35.4228 14.1875 35.5455 15.6176 35.5277C16.4537 35.3842 17.265 35.1217 18.0266 34.7481C19.1493 34.3427 20.233 33.8437 21.3478 33.4227C23.4684 32.6431 24.9263 32.0272 26.4934 30.3042C27.3899 29.3141 28.0526 28.1368 28.9726 27.1857C29.4248 26.6867 30.1264 26.4528 30.5318 25.9305C31.0684 25.2662 31.502 24.5251 31.8182 23.7319C32.1769 22.8665 32.2626 21.9076 32.5979 21.0188C32.9349 20.3601 33.2291 19.6805 33.4788 18.984C33.7682 17.4213 33.891 15.8324 33.8453 14.2439C33.7923 13.2502 33.6007 12.2687 33.2761 11.3281C32.9917 10.3606 32.5801 9.43514 32.0521 8.57597C31.5201 7.88538 30.9193 7.25062 30.259 6.68147C28.6036 5.20725 26.6488 4.10881 24.5287 3.46161C23.4298 3.21266 22.2992 3.13378 21.1763 3.22772C20.0049 3.41096 18.85 3.68731 17.7226 4.05413C16.5898 4.27298 15.4705 4.55671 14.3702 4.90392C13.5656 5.20776 12.8113 5.6309 12.1326 6.15912C11.4076 6.69707 10.9476 7.54686 10.1992 8.05362ZM3.13574 30.0469C3.07337 29.9456 2.90186 29.8286 2.8005 29.8988C1.9663 30.4913 2.96423 32.8146 3.32285 33.5396C3.65514 34.2655 4.1778 34.8878 4.83533 35.3406C5.26413 35.5979 5.84885 35.2392 6.32442 35.3796C6.79999 35.5199 6.86236 35.9019 7.28336 36.05C8.63991 36.5256 9.62224 35.707 8.52297 35.2704C7.91909 35.0321 7.34166 34.7317 6.79999 34.3738C4.91329 33.0329 4.24282 31.8167 3.13574 30.0469ZM30.0953 27.3572C30.0398 27.3285 29.9783 27.3135 29.9159 27.3135C29.8535 27.3135 29.792 27.3285 29.7366 27.3572C29.5104 27.4796 29.3073 27.6406 29.1363 27.8328C28.9074 28.0865 28.7134 28.3697 28.5594 28.6748C28.4146 28.9357 28.3319 29.2265 28.3177 29.5246C28.3177 29.6571 28.4424 29.8364 28.575 29.8286C29.0432 29.8289 29.5032 29.7052 29.9081 29.47C30.4695 29.1036 30.5552 27.6534 30.0953 27.3416V27.3572Z" fill="url(#paint29_radial_22_222)"/>
<g style="mix-blend-mode:saturation">
<circle cx="25.3551" cy="26.1176" r="24.5583" fill="#48FF1A"/>
</g>
<defs>
<radialGradient id="paint0_radial_22_222" cx="0" cy="0" r="1" gradientUnits="userSpaceOnUse" gradientTransform="translate(26.1348 43.2382) scale(29.5011 29.5011)">
<stop stop-color="#2C6600"/>
<stop offset="0.16" stop-color="#3D7D08"/>
<stop offset="0.55" stop-color="#63B119"/>
<stop offset="0.84" stop-color="#7AD224"/>
<stop offset="1" stop-color="#83DE28"/>
</radialGradient>
<radialGradient id="paint1_radial_22_222" cx="0" cy="0" r="1" gradientUnits="userSpaceOnUse" gradientTransform="translate(24.3026 33.2668) scale(21.9465 21.9465)">
<stop stop-color="#0369D1"/>
<stop offset="1" stop-color="#F5FFFF"/>
</radialGradient>
<radialGradient id="paint2_radial_22_222" cx="0" cy="0" r="1" gradientUnits="userSpaceOnUse" gradientTransform="translate(34.9368 42.7315) scale(41.9206 41.9206)">
<stop stop-color="#2C6600"/>
<stop offset="0.16" stop-color="#3D7D08"/>
<stop offset="0.55" stop-color="#63B119"/>
<stop offset="0.84" stop-color="#7AD224"/>
<stop offset="1" stop-color="#83DE28"/>
</radialGradient>
<radialGradient id="paint3_radial_22_222" cx="0" cy="0" r="1" gradientUnits="userSpaceOnUse" gradientTransform="translate(30.0719 24.8468) scale(30.9278 30.9278)">
<stop stop-color="#0382D1"/>
<stop offset="1" stop-color="#F5FFFF"/>
</radialGradient>
<radialGradient id="paint4_radial_22_222" cx="0" cy="0" r="1" gradientUnits="userSpaceOnUse" gradientTransform="translate(39.4742 34.2725) scale(42.3961 42.3961)">
<stop stop-color="#466600"/>
<stop offset="0.06" stop-color="#4A6E03"/>
<stop offset="0.5" stop-color="#63A213"/>
<stop offset="0.82" stop-color="#72C31D"/>
<stop offset="1" stop-color="#78CF21"/>
</radialGradient>
<radialGradient id="paint5_radial_22_222" cx="0" cy="0" r="1" gradientUnits="userSpaceOnUse" gradientTransform="translate(36.2231 18.6799) scale(28.932 28.932)">
<stop stop-color="#0382D1"/>
<stop offset="1" stop-color="#F5FFFF"/>
</radialGradient>
<radialGradient id="paint6_radial_22_222" cx="0" cy="0" r="1" gradientUnits="userSpaceOnUse" gradientTransform="translate(46.0152 31.8868) scale(64.9585 64.9585)">
<stop stop-color="#2C6600"/>
<stop offset="0.16" stop-color="#3D7D08"/>
<stop offset="0.55" stop-color="#63B119"/>
<stop offset="0.84" stop-color="#7AD224"/>
<stop offset="1" stop-color="#83DE28"/>
</radialGradient>
<radialGradient id="paint7_radial_22_222" cx="0" cy="0" r="1" gradientUnits="userSpaceOnUse" gradientTransform="translate(39.1077 7.94444) scale(35.894)">
<stop stop-color="#0382D1"/>
<stop offset="1" stop-color="#F5FFFF"/>
</radialGradient>
<radialGradient id="paint8_radial_22_222" cx="0" cy="0" r="1" gradientUnits="userSpaceOnUse" gradientTransform="translate(36.7611 22.6794) scale(43.9788)">
<stop stop-color="#2C6600"/>
<stop offset="0.16" stop-color="#3D7D08"/>
<stop offset="0.55" stop-color="#63B119"/>
<stop offset="0.84" stop-color="#7AD224"/>
<stop offset="1" stop-color="#83DE28"/>
</radialGradient>
<radialGradient id="paint9_radial_22_222" cx="0" cy="0" r="1" gradientUnits="userSpaceOnUse" gradientTransform="translate(27.5849 9.03593) scale(19.7012)">
<stop stop-color="#0382D1"/>
<stop offset="1" stop-color="#F5FFFF"/>
</radialGradient>
<radialGradient id="paint10_radial_22_222" cx="0" cy="0" r="1" gradientUnits="userSpaceOnUse" gradientTransform="translate(26.392 17.6508) scale(21.6113)">
<stop stop-color="#466600"/>
<stop offset="0.06" stop-color="#4A6E03"/>
<stop offset="0.5" stop-color="#63A213"/>
<stop offset="0.82" stop-color="#72C31D"/>
<stop offset="1" stop-color="#78CF21"/>
</radialGradient>
<radialGradient id="paint11_radial_22_222" cx="0" cy="0" r="1" gradientUnits="userSpaceOnUse" gradientTransform="translate(30.0407 5.28592) scale(20.4964 20.4964)">
<stop stop-color="#0382D1"/>
<stop offset="1" stop-color="#F5FFFF"/>
</radialGradient>
<radialGradient id="paint12_radial_22_222" cx="0" cy="0" r="1" gradientUnits="userSpaceOnUse" gradientTransform="translate(47.5044 16.5827) scale(51.892 51.892)">
<stop stop-color="#2C6600"/>
<stop offset="0.16" stop-color="#3D7D08"/>
<stop offset="0.55" stop-color="#63B119"/>
<stop offset="0.84" stop-color="#7AD224"/>
<stop offset="1" stop-color="#83DE28"/>
</radialGradient>
<radialGradient id="paint13_radial_22_222" cx="0" cy="0" r="1" gradientUnits="userSpaceOnUse" gradientTransform="translate(48.3073 -4.31908) scale(36.1981)">
<stop stop-color="#0382D1"/>
<stop offset="1" stop-color="#F5FFFF"/>
</radialGradient>
<radialGradient id="paint14_radial_22_222" cx="0" cy="0" r="1" gradientUnits="userSpaceOnUse" gradientTransform="translate(24.8405 6.77503) scale(27.2714 27.2714)">
<stop stop-color="#83E044"/>
<stop offset="0.23" stop-color="#71CE32"/>
<stop offset="0.73" stop-color="#4DAB0E"/>
<stop offset="1" stop-color="#3F9E00"/>
</radialGradient>
<radialGradient id="paint15_radial_22_222" cx="0" cy="0" r="1" gradientUnits="userSpaceOnUse" gradientTransform="translate(37.8994 14.0412) scale(18.8124)">
<stop stop-color="#F5FFFF"/>
<stop offset="1" stop-color="#0369D1"/>
</radialGradient>
<radialGradient id="paint16_radial_22_222" cx="0" cy="0" r="1" gradientUnits="userSpaceOnUse" gradientTransform="translate(43.6608 21.0656) scale(12.1856 12.1856)">
<stop stop-color="#F5FFFF"/>
<stop offset="1" stop-color="#0369D1"/>
</radialGradient>
<radialGradient id="paint17_radial_22_222" cx="0" cy="0" r="1" gradientUnits="userSpaceOnUse" gradientTransform="translate(43.2944 32.2766) scale(14.197 14.197)">
<stop stop-color="#F5FFFF"/>
<stop offset="1" stop-color="#0369D1"/>
</radialGradient>
<radialGradient id="paint18_radial_22_222" cx="0" cy="0" r="1" gradientUnits="userSpaceOnUse" gradientTransform="translate(36.9248 41.3593) scale(15.1949 15.1949)">
<stop stop-color="#F5FFFF"/>
<stop offset="1" stop-color="#0369D1"/>
</radialGradient>
<radialGradient id="paint19_radial_22_222" cx="0" cy="0" r="1" gradientUnits="userSpaceOnUse" gradientTransform="translate(30.0173 50.6291) scale(15.803 15.803)">
<stop stop-color="#F5FFFF"/>
<stop offset="1" stop-color="#0369D1"/>
</radialGradient>
<radialGradient id="paint20_radial_22_222" cx="0" cy="0" r="1" gradientUnits="userSpaceOnUse" gradientTransform="translate(22.221 37.6639) scale(18.1029)">
<stop stop-color="#F5FFFF"/>
<stop offset="1" stop-color="#0369D1"/>
</radialGradient>
<radialGradient id="paint21_radial_22_222" cx="0" cy="0" r="1" gradientUnits="userSpaceOnUse" gradientTransform="translate(35.8879 -0.00773391) scale(22.8743 22.8743)">
<stop offset="0.33"/>
<stop offset="1" stop-color="#99FFFF"/>
</radialGradient>
<radialGradient id="paint22_radial_22_222" cx="0" cy="0" r="1" gradientUnits="userSpaceOnUse" gradientTransform="translate(20.4123 10.7355) scale(13.5109)">
<stop offset="0.59"/>
<stop offset="1" stop-color="#99FFFF"/>
</radialGradient>
<radialGradient id="paint23_radial_22_222" cx="0" cy="0" r="1" gradientUnits="userSpaceOnUse" gradientTransform="translate(34.4222 5.3795) scale(24.5193 24.5193)">
<stop offset="0.59"/>
<stop offset="1" stop-color="#99FFFF"/>
</radialGradient>
<radialGradient id="paint24_radial_22_222" cx="0" cy="0" r="1" gradientUnits="userSpaceOnUse" gradientTransform="translate(25.8853 11.9518) scale(23.1315)">
<stop offset="0.59"/>
<stop offset="1" stop-color="#99FFFF"/>
</radialGradient>
<radialGradient id="paint25_radial_22_222" cx="0" cy="0" r="1" gradientUnits="userSpaceOnUse" gradientTransform="translate(16.4908 22.8197) scale(15.92 15.92)">
<stop offset="0.59"/>
<stop offset="1" stop-color="#99FFFF"/>
</radialGradient>
<radialGradient id="paint26_radial_22_222" cx="0" cy="0" r="1" gradientUnits="userSpaceOnUse" gradientTransform="translate(26.8676 23.8878) scale(15.6003 15.6003)">
<stop offset="0.59"/>
<stop offset="1" stop-color="#99FFFF"/>
</radialGradient>
<radialGradient id="paint27_radial_22_222" cx="0" cy="0" r="1" gradientUnits="userSpaceOnUse" gradientTransform="translate(11.2829 29.5324) scale(12.474 12.474)">
<stop offset="0.59"/>
<stop offset="1" stop-color="#99FFFF"/>
</radialGradient>
<radialGradient id="paint28_radial_22_222" cx="0" cy="0" r="1" gradientUnits="userSpaceOnUse" gradientTransform="translate(30.2824 31.1773) scale(34.8415 34.8415)">
<stop offset="0.04"/>
<stop offset="0.84"/>
<stop offset="0.85" stop-color="#0E160D"/>
<stop offset="0.9" stop-color="#44683E"/>
<stop offset="0.93" stop-color="#6FA965"/>
<stop offset="0.96" stop-color="#8ED781"/>
<stop offset="0.99" stop-color="#A1F493"/>
<stop offset="1" stop-color="#A8FF99"/>
</radialGradient>
<radialGradient id="paint29_radial_22_222" cx="0" cy="0" r="1" gradientUnits="userSpaceOnUse" gradientTransform="translate(-4.0992 -7.42978) scale(52.313 52.313)">
<stop stop-color="#C4FFE2"/>
<stop offset="1"/>
</radialGradient>
</defs>
</svg>
