<svg width="73" height="73" viewBox="0 0 73 73" fill="none" xmlns="http://www.w3.org/2000/svg">
<g clip-path="url(#clip0_22_1845)">
<g clip-path="url(#clip1_22_1845)">
<path style="mix-blend-mode:screen" d="M57.1155 57.1155C68.47 45.7611 68.47 27.3518 57.1155 15.9974C45.7611 4.64288 27.3518 4.64289 15.9974 15.9974C4.64291 27.3518 4.64291 45.7611 15.9974 57.1155C27.3518 68.47 45.7611 68.47 57.1155 57.1155Z" fill="url(#paint0_radial_22_1845)"/>
<path style="mix-blend-mode:screen" d="M63.9548 40.933C66.3701 25.8026 56.0626 11.5791 40.9323 9.16371C25.802 6.74835 11.5784 17.0559 9.16307 32.1862C6.74771 47.3165 17.0552 61.5401 32.1855 63.9554C47.3158 66.3708 61.5394 56.0633 63.9548 40.933Z" fill="url(#paint1_radial_22_1845)"/>
<path fill-rule="evenodd" clip-rule="evenodd" d="M61.3762 34.0884C61.3789 37.3913 60.7304 40.6624 59.4675 43.7144C58.2047 46.7663 56.3524 49.5393 54.0166 51.8746C51.6808 54.2099 48.9074 56.0616 45.8552 57.3238C42.803 58.586 39.5318 59.2339 36.2288 59.2304C35.1268 59.2296 34.0259 59.1586 32.9328 59.0181C27.7775 58.3411 22.9594 56.0808 19.1433 52.549C15.3273 49.0172 12.7014 44.3881 11.6282 39.3004C11.2733 37.593 11.0954 35.8535 11.0974 34.1096C11.0901 29.3309 12.4492 24.6496 15.0144 20.6178C16.0733 18.9666 17.32 17.4437 18.7297 16.0798C23.4144 11.5108 29.7009 8.95616 36.2448 8.96231C36.7755 8.96231 37.3381 8.96231 37.8795 9.01538C40.6648 9.19152 43.4008 9.83381 45.9736 10.9155C46.4141 11.1013 46.844 11.2976 47.2739 11.5046C51.5064 13.5743 55.0733 16.79 57.569 20.786C60.0648 24.7821 61.3894 29.3982 61.3921 34.1096L61.3762 34.0884Z" fill="url(#paint2_radial_22_1845)"/>
<path style="mix-blend-mode:screen" fill-rule="evenodd" clip-rule="evenodd" d="M21.3039 53.7264C18.6944 51.5363 16.555 48.8408 15.0144 45.8022C14.0303 43.8585 13.3058 41.7938 12.8596 39.6613C12.0843 35.9983 12.1368 32.2085 13.0132 28.5683C13.8896 24.9282 15.5678 21.5297 17.9252 18.621C20.2827 15.7122 23.2599 13.3665 26.6396 11.7552C30.0192 10.1439 33.7161 9.30755 37.4602 9.30729C37.991 9.30729 38.5536 9.30729 39.0949 9.36037C40.7694 9.46473 42.4287 9.74039 44.0469 10.183C42.044 9.52843 39.9665 9.12898 37.8636 8.99414C37.3328 8.95699 36.8021 8.94107 36.2288 8.94107C29.685 8.93492 23.3985 11.4895 18.7138 16.0585C17.3041 17.4225 16.0573 18.9453 14.9985 20.5965C12.4333 24.6284 11.0742 29.3096 11.0815 34.0884C11.0795 35.8323 11.2574 37.5718 11.6123 39.2792C12.0598 41.4097 12.7842 43.4724 13.7671 45.4148C15.3146 48.4639 17.4652 51.167 20.0885 53.3602C22.871 55.7025 26.1315 57.4088 29.6421 58.36C26.591 57.3652 23.76 55.7921 21.3039 53.7264Z" fill="url(#paint3_radial_22_1845)"/>
<path fill-rule="evenodd" clip-rule="evenodd" d="M58.303 46.1313L54.1791 51.6936C50.6336 59.2357 42.5926 58.4184 42.5926 58.4184L41.5311 58.6678C33.039 64.5805 25.7516 57.2507 25.7516 57.2507L23.8834 55.9981C19.494 56.3537 18.3529 51.752 18.3529 51.752L15.5558 48.3923L15.5027 48.3393C2.39298 36.36 12.7534 25.0708 12.7534 25.0708L13.6079 23.0964C14.3244 17.1254 19.9186 14.9333 19.9186 14.9333C20.314 14.1054 20.8811 13.371 21.582 12.779C22.2829 12.1869 23.1018 11.7507 23.9842 11.4993C24.4736 11.3574 24.9824 11.2947 25.4916 11.3136C31.8607 5.30008 38.458 6.31913 43.0703 8.42624C45.3253 9.4636 47.4016 10.852 49.2218 12.5396C59.147 11.7488 57.9262 21.3661 57.9262 21.3661C60.8454 25.9731 61.3124 32.2838 61.3124 32.2838C65.7177 40.208 58.303 46.1313 58.303 46.1313Z" fill="url(#paint4_radial_22_1845)"/>
<path style="mix-blend-mode:screen" d="M40.3359 37.4501C43.4915 35.2569 44.627 31.432 42.8721 28.9071C41.1172 26.3821 37.1365 26.1131 33.9808 28.3063C30.8252 30.4996 29.6897 34.3244 31.4446 36.8494C33.1995 39.3744 37.1803 39.6433 40.3359 37.4501Z" fill="url(#paint5_radial_22_1845)"/>
<path style="mix-blend-mode:screen" fill-rule="evenodd" clip-rule="evenodd" d="M54.7417 22.4966C55.8775 24.1314 55.145 26.61 53.0963 28.0271C51.0476 29.4443 48.484 29.2638 47.3482 27.6397C46.2124 26.0156 46.9448 23.5263 48.9936 22.1039C51.0423 20.6815 53.6165 20.8566 54.7417 22.4966Z" fill="url(#paint6_radial_22_1845)"/>
<path style="mix-blend-mode:screen" fill-rule="evenodd" clip-rule="evenodd" d="M55.9412 16.4036C55.4582 17.6296 53.8181 18.1285 52.2948 17.5235C50.7716 16.9184 49.9171 15.4641 50.4054 14.2115C50.8936 12.9589 52.5284 12.4919 54.0464 13.0969C55.5643 13.702 56.4241 15.1828 55.9412 16.4036Z" fill="url(#paint7_radial_22_1845)"/>
<path style="mix-blend-mode:screen" d="M61.9058 37.0109C62.6313 35.1795 62.0308 33.224 60.5646 32.6432C59.0984 32.0624 57.3217 33.0762 56.5963 34.9076C55.8708 36.739 56.4713 38.6944 57.9375 39.2752C59.4037 39.856 61.1804 38.8423 61.9058 37.0109Z" fill="url(#paint8_radial_22_1845)"/>
<path style="mix-blend-mode:screen" fill-rule="evenodd" clip-rule="evenodd" d="M33.2831 11.4622C34.5729 13.3411 33.7449 16.2072 31.3883 17.8472C29.0317 19.4873 26.0807 19.2856 24.7432 17.3961C23.4057 15.5066 24.2762 12.6511 26.638 11.027C28.9999 9.40284 31.9721 9.57269 33.2831 11.4622Z" fill="url(#paint9_radial_22_1845)"/>
<path style="mix-blend-mode:screen" fill-rule="evenodd" clip-rule="evenodd" d="M29.2653 27.3637C30.5763 29.2532 29.7271 32.114 27.3652 33.7328C25.0033 35.3516 22.0576 35.1712 20.7201 33.2817C19.3826 31.3922 20.2583 28.5367 22.6202 26.9126C24.9821 25.2884 27.9437 25.4795 29.2653 27.3637Z" fill="url(#paint10_radial_22_1845)"/>
<path style="mix-blend-mode:screen" d="M43.4327 51.9243C45.7883 50.2869 46.636 47.4319 45.326 45.5474C44.0161 43.6629 41.0446 43.4626 38.689 45.1001C36.3334 46.7375 35.4857 49.5925 36.7957 51.477C38.1056 53.3615 41.0771 53.5618 43.4327 51.9243Z" fill="url(#paint11_radial_22_1845)"/>
<path style="mix-blend-mode:screen" fill-rule="evenodd" clip-rule="evenodd" d="M24.1329 46.4869C22.4079 47.9996 19.4675 47.4741 17.5886 45.314C15.7097 43.1538 15.5611 40.1762 17.2914 38.6582C19.0217 37.1403 21.9568 37.671 23.8463 39.8312C25.7358 41.9914 25.8631 44.9743 24.1329 46.4869Z" fill="url(#paint12_radial_22_1845)"/>
<path style="mix-blend-mode:screen" fill-rule="evenodd" clip-rule="evenodd" d="M27.6359 51.6724C26.0117 50.5791 25.8047 48.0421 27.1794 46.0092C28.5541 43.9764 30.9796 43.2175 32.6037 44.3161C34.2279 45.4148 34.4349 47.9518 33.0602 49.9846C31.6855 52.0174 29.2653 52.7711 27.6359 51.6724Z" fill="url(#paint13_radial_22_1845)"/>
<path style="mix-blend-mode:screen" fill-rule="evenodd" clip-rule="evenodd" d="M21.5003 34.7147C19.8762 33.6161 19.6692 31.079 21.0438 29.0515C22.4185 27.024 24.8441 26.2598 26.4682 27.3584C28.0923 28.4571 28.2993 30.9941 26.9299 33.0269C25.5606 35.0597 23.1244 35.8134 21.5003 34.7147Z" fill="url(#paint14_radial_22_1845)"/>
<path style="mix-blend-mode:screen" fill-rule="evenodd" clip-rule="evenodd" d="M15.3223 25.2884C13.5018 24.5666 12.7534 22.1304 13.6557 19.8535C14.558 17.5765 16.7712 16.3133 18.5917 17.0352C20.4122 17.757 21.1606 20.1879 20.2424 22.4648C19.3242 24.7418 17.1481 26.0103 15.3223 25.2884Z" fill="url(#paint15_radial_22_1845)"/>
<path style="mix-blend-mode:screen" d="M12.0248 40.1758C13.4917 39.8449 14.2437 37.6388 13.7046 35.2483C13.1654 32.8578 11.5392 31.1881 10.0723 31.5189C8.60536 31.8498 7.85328 34.0559 8.39244 36.4464C8.93161 38.8369 10.5579 40.5066 12.0248 40.1758Z" fill="url(#paint16_radial_22_1845)"/>
<path style="mix-blend-mode:screen" fill-rule="evenodd" clip-rule="evenodd" d="M53.5475 36.1637C55.3361 37.6073 55.3255 40.5902 53.5475 42.83C51.7694 45.0698 48.8025 45.7173 47.0139 44.2577C45.2252 42.7982 45.2411 39.8312 47.0457 37.5914C48.8503 35.3516 51.7641 34.7147 53.5475 36.1637Z" fill="url(#paint17_radial_22_1845)"/>
<path style="mix-blend-mode:multiply" opacity="0.5" fill-rule="evenodd" clip-rule="evenodd" d="M31.797 42.5752C32.0149 42.6824 32.2153 42.822 32.3914 42.9892C32.1857 42.8625 31.9872 42.7243 31.797 42.5752Z" fill="url(#paint18_linear_22_1845)"/>
<path style="mix-blend-mode:multiply" opacity="0.5" fill-rule="evenodd" clip-rule="evenodd" d="M58.3031 46.1313C57.371 48.2759 55.9603 50.1786 54.1791 51.6937C54.1791 51.6937 51.3024 50.2128 48.8715 51.752C46.4406 53.2912 42.5767 58.4184 42.5767 58.4184L41.5152 58.6678C40.7852 57.4385 39.7576 56.4127 38.527 55.685C38.2865 55.5435 38.0343 55.4228 37.7734 55.324C36.8909 54.9736 35.9335 54.8548 34.9922 54.979C31.8484 55.4662 28.753 56.2263 25.7411 57.2507L23.8728 55.9981C23.8728 55.9981 27.3493 57.0596 31.5051 53.8751C35.3372 50.9347 34.61 44.9636 32.3702 43.0051C33.7493 43.8985 35.3665 44.3537 37.0091 44.3108C39.8433 44.125 44.8271 40.9936 46.3026 38.8175C45.963 39.4066 43.1181 44.1569 39.3709 46.3489C37.8807 47.4137 36.8103 48.9667 36.3456 50.7383C36.3434 50.7541 36.3434 50.7702 36.3456 50.7861C36.3456 50.7861 36.3456 50.7861 36.3456 50.8232C36.3409 50.8567 36.3409 50.8906 36.3456 50.9241C36.3083 51.0849 36.2818 51.248 36.266 51.4124C36.2337 51.6483 36.2337 51.8876 36.266 52.1236C36.6694 54.6765 41.0428 54.9154 44.0681 53.8432C46.7485 52.8985 48.2664 50.0908 48.7441 49.0664C48.8556 48.8276 48.9087 48.6843 48.9087 48.6843C50.8874 49.0529 52.9295 48.8693 54.8107 48.1535C55.9147 47.7183 56.4773 46.1579 56.61 44.2524C56.8541 40.967 55.8138 36.6573 54.0729 35.4472C51.8331 33.892 48.1178 37.0394 46.8228 38.2761C47.6932 37.3579 49.5084 35.2879 49.7154 33.6107C49.9861 31.3975 42.8156 24.0571 35.8096 26.5835C28.5594 29.2001 30.6081 38.844 31.3777 41.0891C30.7833 39.5393 29.0795 34.5714 29.1751 31.9176C29.2244 29.9023 29.5824 27.9065 30.2366 25.9997C30.2366 25.9997 23.8993 24.3596 20.7466 28.7861C17.5939 33.2127 22.0205 38.568 22.0205 38.568C22.0205 38.568 18.8678 35.8452 17.9336 34.5926C17.9336 34.5926 14.6058 43.7111 18.3795 51.8051L15.5824 48.4454C15.5824 48.4454 15.8371 45.7173 15.9964 40.155C16.1556 34.5926 12.7534 25.0708 12.7534 25.0708L13.6079 23.0964C13.6079 23.0964 14.765 31.2117 16.0388 32.3634C17.3126 33.5152 21.2349 27.8149 22.0629 24.5932C23.4588 19.137 19.9399 14.9546 19.9399 14.9546C19.9399 14.9546 23.6021 17.2952 24.5575 23.2822C28.4041 24.018 32.3195 24.3313 36.2342 24.2163C40.3902 24.1469 44.4813 23.1744 48.224 21.3661C48.224 21.3661 46.7538 24.0199 45.3685 25.2884C45.3685 25.2884 48.0223 31.9495 52.1144 33.5046C56.2066 35.0597 59.6884 28.6163 59.0833 25.9731C58.4782 23.3299 55.1292 18.5425 48.5637 21.1379C48.6486 20.9893 50.2515 18.2559 49.7685 15.4588C49.2855 12.6617 49.5668 13.3358 49.5668 13.3358C49.9957 15.0812 50.8201 16.7047 51.9764 18.0807C53.85 20.2409 57.9262 21.3661 57.9262 21.3661C57.9262 21.3661 61.063 26.7533 61.3125 32.2838C61.3125 32.2838 57.0664 32.3794 56.472 34.5236C55.8775 36.6679 58.3031 46.1313 58.3031 46.1313Z" fill="url(#paint19_linear_22_1845)"/>
<path style="mix-blend-mode:multiply" opacity="0.5" fill-rule="evenodd" clip-rule="evenodd" d="M23.0129 39.3482C23.0129 39.3482 25.7623 43.8119 30.9212 42.071C28.1361 41.674 25.4521 40.7499 23.0129 39.3482Z" fill="url(#paint20_linear_22_1845)"/>
<path style="mix-blend-mode:multiply" opacity="0.5" fill-rule="evenodd" clip-rule="evenodd" d="M25.4916 11.3348C24.6866 12.7277 24.1737 14.2699 23.9842 15.8675C23.9842 15.8675 23.0767 13.3517 23.9842 11.5153C24.4665 11.3416 24.982 11.2799 25.4916 11.3348Z" fill="url(#paint21_linear_22_1845)"/>
<path style="mix-blend-mode:multiply" opacity="0.5" fill-rule="evenodd" clip-rule="evenodd" d="M21.2402 27.5442C22.2392 25.7924 22.7522 23.8056 22.7261 21.7891C22.7 19.7727 22.1357 17.7998 21.0916 16.0745C21.0916 16.0745 23.7985 20.4904 23.8569 22.8682C23.9152 25.246 21.2402 27.5442 21.2402 27.5442Z" fill="url(#paint22_linear_22_1845)"/>
<path style="mix-blend-mode:multiply" opacity="0.5" fill-rule="evenodd" clip-rule="evenodd" d="M49.4341 31.9176C49.4341 31.9176 52.2259 35.6011 54.8425 35.0279C57.4591 34.4547 58.94 29.6831 59.1204 26.955C59.1204 26.955 57.3742 33.6691 54.1472 34.0725C51.2227 34.4493 49.4341 31.9176 49.4341 31.9176Z" fill="url(#paint23_linear_22_1845)"/>
<path style="mix-blend-mode:multiply" opacity="0.5" fill-rule="evenodd" clip-rule="evenodd" d="M36.3455 50.7542C36.3433 50.7699 36.3433 50.7858 36.3455 50.8015C36.3445 50.7857 36.3445 50.7699 36.3455 50.7542Z" fill="url(#paint24_linear_22_1845)"/>
<path style="mix-blend-mode:multiply" opacity="0.5" fill-rule="evenodd" clip-rule="evenodd" d="M54.2906 49.6396C51.6368 50.7012 48.7229 49.1089 48.7229 49.1089C48.8344 48.87 48.8874 48.7267 48.8874 48.7267C50.8662 49.0954 52.9082 48.9117 54.7895 48.196C55.8934 47.7608 56.456 46.2003 56.5887 44.2949C56.5887 44.2949 56.9497 48.5834 54.2906 49.6396Z" fill="url(#paint25_linear_22_1845)"/>
<path style="mix-blend-mode:multiply" opacity="0.5" fill-rule="evenodd" clip-rule="evenodd" d="M16.1927 32.4484C16.6126 32.6324 17.0818 32.6718 17.5266 32.5604C17.9713 32.4489 18.3665 32.193 18.6501 31.8327C19.8496 30.5323 20.9695 27.2735 20.9695 27.2735C20.9695 27.2735 18.8889 31.9176 16.1927 32.4484Z" fill="url(#paint26_linear_22_1845)"/>
<path style="mix-blend-mode:multiply" opacity="0.5" fill-rule="evenodd" clip-rule="evenodd" d="M14.3085 30.1396C14.3085 30.1396 16.2246 34.5236 16.7129 37.1403C17.2012 39.7569 15.6036 47.9943 15.6036 47.9943C15.6036 47.9943 16.1662 41.6252 15.8371 37.3791C15.6626 34.9072 15.1482 32.4711 14.3085 30.1396Z" fill="url(#paint27_linear_22_1845)"/>
<path style="mix-blend-mode:screen" fill-rule="evenodd" clip-rule="evenodd" d="M9.29818 38.775C9.29818 38.775 11.3681 34.6298 14.075 32.3634C14.075 32.3634 14.2979 28.5048 12.2651 26.5251C12.2439 26.5357 7.88106 30.251 9.29818 38.775Z" fill="url(#paint28_linear_22_1845)"/>
<path style="mix-blend-mode:multiply" opacity="0.5" fill-rule="evenodd" clip-rule="evenodd" d="M26.1975 24.2641C26.1975 24.2641 30.3427 25.246 31.5051 26.4561C31.5051 26.4561 29.7005 28.6481 30.1463 33.7116C30.1463 33.7116 30.6771 28.404 34.2703 26.5357C37.8636 24.6675 44.7263 26.6419 46.8918 28.9401C46.8918 28.9401 43.8399 25.5007 43.8877 24.9381C43.9354 24.3755 46.5733 22.8947 46.5733 22.8947C43.5124 24.0746 40.2922 24.7902 37.0197 25.0178C32.3915 25.3044 26.1975 24.2641 26.1975 24.2641Z" fill="url(#paint29_linear_22_1845)"/>
<path style="mix-blend-mode:multiply" opacity="0.5" fill-rule="evenodd" clip-rule="evenodd" d="M33.9413 44.2949C33.9413 44.2949 35.6875 47.0814 35.3584 48.9125C34.8276 51.9909 32.4339 53.9971 30.5816 54.8729C28.7292 55.7486 24.6212 56.4652 24.6212 56.4652L25.2528 56.9588C25.2528 56.9588 30.348 55.2179 32.9965 54.6818C35.645 54.1457 40.9579 55.5894 41.8443 58.6041L42.5873 58.3971C43.3135 56.8881 44.2362 55.4817 45.3313 54.2147C46.5566 52.8261 47.9326 51.5782 49.4341 50.4941C47.9975 51.3205 46.6617 52.3108 45.4534 53.4451C43.1075 55.5682 43.3304 56.4333 40.2573 55.7274C37.1842 55.0215 34.9497 53.3815 34.8648 52.5057C34.7799 51.63 36.0378 48.2278 37.4761 46.8001C38.6937 45.658 39.9825 44.5943 41.3347 43.6155C41.3347 43.6155 38.5854 45.8871 36.7065 45.8235C36.1589 45.7994 35.6242 45.6489 35.1445 45.3837C34.6648 45.1185 34.2529 44.7458 33.9413 44.2949Z" fill="url(#paint30_linear_22_1845)"/>
<path style="mix-blend-mode:multiply" opacity="0.5" fill-rule="evenodd" clip-rule="evenodd" d="M49.8268 19.9756C49.8268 19.9756 53.6801 19.3333 56.5144 21.3661C56.5144 21.3661 51.1697 19.2803 50.0975 16.0586C50.0975 16.0745 50.899 18.3674 49.8268 19.9756Z" fill="url(#paint31_linear_22_1845)"/>
<path style="mix-blend-mode:screen" fill-rule="evenodd" clip-rule="evenodd" d="M23.9842 11.5206C22.6255 12.1946 20.5502 15.8463 20.5502 15.8463C18.9631 16.5702 17.5712 17.6619 16.4899 19.0308C14.8976 21.1963 14.059 25.2248 14.059 25.2248L13.2417 26.5357C13.2417 26.5357 8.79923 31.8592 9.83952 37.756C10.8161 43.3236 14.9932 47.8404 15.5133 48.3711C2.39298 36.3601 12.7534 25.0708 12.7534 25.0708L13.6079 23.0964C14.3244 17.1254 19.9186 14.9334 19.9186 14.9334C20.3164 14.1094 20.8845 13.3791 21.5853 12.7908C22.2861 12.2025 23.1038 11.7696 23.9842 11.5206Z" fill="url(#paint32_linear_22_1845)"/>
<path style="mix-blend-mode:screen" fill-rule="evenodd" clip-rule="evenodd" d="M43.065 8.44747C33.1769 4.13772 24.2761 14.2062 24.2761 14.2062C24.5914 13.2143 24.9965 12.2532 25.4863 11.3348C31.8766 5.32131 38.458 6.34036 43.065 8.44747Z" fill="url(#paint33_linear_22_1845)"/>
<path fill-rule="evenodd" clip-rule="evenodd" d="M27.9809 12.3114C28.8195 12.9589 32.0199 11.5524 32.8532 10.0982C33.6865 8.64387 33.1186 8.26704 33.1186 8.26704C31.8593 8.43736 30.6476 8.8617 29.5572 9.51432C28.0923 10.5068 27.6146 12.0301 27.9809 12.3114Z" fill="#FFFFBF"/>
<path style="mix-blend-mode:screen" fill-rule="evenodd" clip-rule="evenodd" d="M40.3104 22.6453C40.3104 22.6453 42.9642 22.5444 45.809 19.6518C48.2134 17.2103 48.3726 13.2509 48.3726 13.2509C48.3726 13.2509 49.8162 16.5097 48.0541 19.6518C46.292 22.7939 40.3104 22.6453 40.3104 22.6453Z" fill="url(#paint34_linear_22_1845)"/>
<path style="mix-blend-mode:screen" fill-rule="evenodd" clip-rule="evenodd" d="M31.5794 41.6039C31.5794 41.6039 35.0453 43.4616 40.0715 40.7919C45.0978 38.1222 46.9714 34.9535 47.5022 33.1277C47.3582 35.4158 46.4817 37.5968 45.0023 39.3482C42.5343 42.3099 38.9676 44.2949 36.2925 43.9021C33.8298 43.5412 31.5794 41.6039 31.5794 41.6039Z" fill="url(#paint35_linear_22_1845)"/>
<path style="mix-blend-mode:screen" fill-rule="evenodd" clip-rule="evenodd" d="M18.5864 51.1576C18.5864 51.1576 19.4091 54.6447 24.5362 54.6553C26.073 54.6305 27.5856 54.2682 28.9669 53.5941C30.3481 52.9199 31.5644 51.9504 32.5294 50.7542C32.5294 50.7542 30.5179 55.5576 25.4544 55.7115C20.391 55.8654 19.1225 53.1745 18.5864 51.1576Z" fill="url(#paint36_linear_22_1845)"/>
<path style="mix-blend-mode:screen" fill-rule="evenodd" clip-rule="evenodd" d="M38.9675 53.201C38.9675 53.201 42.8049 54.4271 45.5542 51.6936C48.3036 48.9602 48.691 47.3096 48.691 47.3096C48.691 47.3096 47.3429 52.1926 44.0469 53.5566C43.2275 53.881 42.3459 54.0174 41.4668 53.9559C40.5877 53.8943 39.7337 53.6364 38.9675 53.201Z" fill="url(#paint37_linear_22_1845)"/>
<path style="mix-blend-mode:screen" fill-rule="evenodd" clip-rule="evenodd" d="M50.2833 48.2331C50.2833 48.2331 51.9764 48.3552 53.9986 45.4732C56.0208 42.5912 55.7395 40.1656 55.7395 40.1656C55.7395 40.1656 56.9603 45.0433 55.1345 47.0655C53.3086 49.0876 50.2833 48.2331 50.2833 48.2331Z" fill="url(#paint38_linear_22_1845)"/>
<path fill-rule="evenodd" clip-rule="evenodd" d="M27.4023 12.8103C26.7229 11.9558 25.6189 13.617 26.224 14.2699C26.8291 14.9227 27.7367 13.2084 27.4023 12.8103Z" fill="#FFFFBF"/>
<path fill-rule="evenodd" clip-rule="evenodd" d="M36.2288 28.2872C35.4062 27.1089 32.2694 30.1555 31.797 32.1352C31.3246 34.115 35.024 33.4037 35.7883 32.666C36.5526 31.9282 36.8392 29.1577 36.2288 28.2872Z" fill="#FFFFBF"/>
<path fill-rule="evenodd" clip-rule="evenodd" d="M50.8725 37.2252C50.4532 36.6255 48.5955 37.756 48.6168 39.1837C48.6168 40.2452 50.2621 39.8259 50.6496 39.4438C50.8555 39.1163 50.9828 38.7456 51.0215 38.3607C51.0601 37.9758 51.0091 37.5871 50.8725 37.2252Z" fill="#FFC975"/>
<path fill-rule="evenodd" clip-rule="evenodd" d="M49.6623 22.7355C49.243 22.1357 47.3853 23.2663 47.4066 24.694C47.4066 25.7555 49.0466 25.3362 49.4394 24.9594C49.6454 24.6309 49.7727 24.2593 49.8113 23.8735C49.85 23.4878 49.799 23.0983 49.6623 22.7355Z" fill="#FFFFBF"/>
<path fill-rule="evenodd" clip-rule="evenodd" d="M50.9892 13.3995C50.7026 13.3995 50.6814 14.254 51.1379 14.5512C51.4775 14.7635 51.7005 14.1531 51.6686 13.9461C51.6062 13.8081 51.5121 13.6868 51.3941 13.5918C51.2761 13.4968 51.1374 13.4309 50.9892 13.3995Z" fill="#FFFFBF"/>
<path fill-rule="evenodd" clip-rule="evenodd" d="M16.9199 18.9459C16.6598 18.6487 15.731 19.3652 15.8212 20.1136C15.8849 20.6443 16.7341 20.363 16.9199 20.1401C17.0116 19.9544 17.0593 19.7501 17.0593 19.543C17.0593 19.3359 17.0116 19.1316 16.9199 18.9459Z" fill="#FFFFBF"/>
<path fill-rule="evenodd" clip-rule="evenodd" d="M22.1213 28.8392C21.9196 28.5473 21.0173 29.1099 21.0279 29.7893C21.0279 30.2935 21.8241 30.1024 22.0151 29.9167C22.1153 29.7576 22.177 29.5775 22.1954 29.3905C22.2138 29.2035 22.1885 29.0147 22.1213 28.8392Z" fill="#FFFFBF"/>
<path fill-rule="evenodd" clip-rule="evenodd" d="M18.6502 40.4097C18.268 40.1603 17.4613 41.2643 17.8009 42.0763C18.0557 42.6761 18.9102 42.0763 19.0429 41.7526C19.1514 41.5192 19.1713 41.2543 19.0991 41.0073C19.0268 40.7603 18.8673 40.5479 18.6502 40.4097Z" fill="#FFFFBF"/>
<path fill-rule="evenodd" clip-rule="evenodd" d="M10.9382 32.8252C10.4074 32.4961 9.34591 33.9663 9.82359 35.0438C10.158 35.8346 11.2885 35.0438 11.4689 34.6033C11.5241 34.286 11.5049 33.9603 11.4128 33.6518C11.3207 33.3432 11.1582 33.0603 10.9382 32.8252Z" fill="#FFFFBF"/>
<path fill-rule="evenodd" clip-rule="evenodd" d="M38.8879 48.3021C38.6809 48.0049 37.7627 48.5781 37.7733 49.2681C37.7733 49.7988 38.5854 49.5865 38.7765 49.4008C38.8774 49.2382 38.9399 49.0547 38.9592 48.8643C38.9785 48.6739 38.9542 48.4816 38.8879 48.3021Z" fill="#FFC975"/>
<path fill-rule="evenodd" clip-rule="evenodd" d="M31.5794 35.1606C31.429 35.3477 31.3405 35.577 31.3263 35.8166C31.312 36.0563 31.3726 36.2944 31.4998 36.4981C31.7014 36.7581 32.2481 36.1 32.2694 35.8293C32.2906 35.5586 31.7917 34.9907 31.5794 35.1606Z" fill="#FFFFBF"/>
<path fill-rule="evenodd" clip-rule="evenodd" d="M29.9818 56.566C29.5519 56.3484 28.8938 56.7677 28.7345 57.0543C28.5753 57.3409 29.1538 57.6382 29.6634 57.4736C30.1729 57.3091 30.2207 56.6881 29.9818 56.566Z" fill="#FFA475"/>
<path fill-rule="evenodd" clip-rule="evenodd" d="M47.7463 53.2382C47.0722 53.2382 46.223 54.2254 46.0744 54.7031C45.9258 55.1807 46.8281 55.1701 47.5234 54.6128C48.2187 54.0555 48.1231 53.2329 47.7463 53.2382Z" fill="#FF93A4"/>
<path fill-rule="evenodd" clip-rule="evenodd" d="M58.7649 34.237C58.2978 34.1627 57.8201 34.7678 57.767 35.0809C57.714 35.3941 58.3509 35.4949 58.7702 35.1818C59.1895 34.8686 59.0302 34.2742 58.7649 34.237Z" fill="#FFBBB8"/>
<path fill-rule="evenodd" clip-rule="evenodd" d="M29.658 43.7907C28.8035 43.658 27.9331 44.746 27.8375 45.3246C27.742 45.9031 28.899 46.0889 29.6633 45.5156C30.4276 44.9424 30.1357 43.8597 29.658 43.7907Z" fill="#FFFFBF"/>
<path style="mix-blend-mode:screen" fill-rule="evenodd" clip-rule="evenodd" d="M48.0382 28.7596C48.0382 28.7596 50.2409 32.2892 54.2905 31.5036C58.3402 30.7181 58.7808 27.2576 58.7808 27.2576C58.7808 27.2576 57.4804 33.7487 53.4095 33.4038C49.3386 33.0588 48.0382 28.7596 48.0382 28.7596Z" fill="url(#paint39_linear_22_1845)"/>
<path style="mix-blend-mode:screen" fill-rule="evenodd" clip-rule="evenodd" d="M23.2359 38.3398C23.2359 38.3398 25.9958 39.8578 27.4342 38.6105C28.8726 37.3632 28.2038 33.2339 28.2038 33.2339C28.2038 33.2339 29.8651 39.8419 28.8142 40.7707C27.7633 41.6995 23.2359 38.3398 23.2359 38.3398Z" fill="url(#paint40_linear_22_1845)"/>
<path style="mix-blend-mode:screen" fill-rule="evenodd" clip-rule="evenodd" d="M23.8569 18.5C23.8569 18.5 24.7114 20.4904 29.1645 21.8067C32.1649 22.6221 35.2712 22.98 38.3784 22.8682C38.3784 22.8682 30.2472 24.0093 26.9724 22.8682C26.0558 22.5666 25.2593 21.9803 24.6989 21.1946C24.1386 20.409 23.8436 19.465 23.8569 18.5Z" fill="url(#paint41_linear_22_1845)"/>
<path style="mix-blend-mode:screen" fill-rule="evenodd" clip-rule="evenodd" d="M51.6633 17.1997C51.6633 17.1997 53.85 18.9193 55.559 19.3652C57.2681 19.811 57.767 18.8769 57.767 18.8769C57.767 18.8769 57.8625 20.6549 57.1195 20.7452C56.3764 20.8354 53.4732 19.3811 51.6633 17.1997Z" fill="url(#paint42_linear_22_1845)"/>
<path style="mix-blend-mode:screen" fill-rule="evenodd" clip-rule="evenodd" d="M57.1672 38.775C57.1672 38.775 58.1598 42.3895 59.2478 42.7822C60.3359 43.175 61.9494 40.1284 61.9494 40.1284C61.9494 40.1284 61.0418 43.4775 58.7648 44.7938C58.7807 44.8203 57.6874 43.4404 57.1672 38.775Z" fill="url(#paint43_linear_22_1845)"/>
<path style="mix-blend-mode:screen" fill-rule="evenodd" clip-rule="evenodd" d="M29.9181 59.464C31.7219 60.2398 33.6712 60.6199 35.6344 60.5786C37.5849 60.4755 39.4597 59.7895 41.0162 58.6095C40.7347 57.8305 40.2194 57.1576 39.5407 56.6828C39.4967 57.2378 39.3124 57.7724 39.0051 58.2366C38.6978 58.7008 38.2776 59.0793 37.7839 59.3366C36.0855 60.3238 32.1207 60.154 29.9181 59.464Z" fill="url(#paint44_linear_22_1845)"/>
<path style="mix-blend-mode:screen" fill-rule="evenodd" clip-rule="evenodd" d="M52.4117 51.3168C52.0646 52.9441 51.2556 54.4368 50.0816 55.616C48.7549 56.7055 47.2198 57.5128 45.5702 57.9884C47.3911 57.7035 49.1137 56.9743 50.5859 55.8654C53.298 53.9547 53.8023 51.7414 53.8023 51.7414L52.4117 51.3168Z" fill="url(#paint45_linear_22_1845)"/>
</g>
</g>
<defs>
<radialGradient id="paint0_radial_22_1845" cx="0" cy="0" r="1" gradientUnits="userSpaceOnUse" gradientTransform="translate(36.5554 36.5554) scale(29.0749)">
<stop stop-color="#FF7300"/>
<stop offset="1"/>
</radialGradient>
<radialGradient id="paint1_radial_22_1845" cx="0" cy="0" r="1" gradientUnits="userSpaceOnUse" gradientTransform="translate(36.5604 36.5566) scale(27.7427)">
<stop stop-color="#FF7900"/>
<stop offset="0.18" stop-color="#FC7800"/>
<stop offset="0.32" stop-color="#F37300"/>
<stop offset="0.43" stop-color="#E36C00"/>
<stop offset="0.54" stop-color="#CC6100"/>
<stop offset="0.64" stop-color="#AF5300"/>
<stop offset="0.74" stop-color="#8C4200"/>
<stop offset="0.83" stop-color="#622E00"/>
<stop offset="0.92" stop-color="#321800"/>
<stop offset="1"/>
</radialGradient>
<radialGradient id="paint2_radial_22_1845" cx="0" cy="0" r="1" gradientUnits="userSpaceOnUse" gradientTransform="translate(27.0945 25.3415) scale(35.6829 35.6829)">
<stop offset="0.01" stop-color="#FFCC00"/>
<stop offset="0.18" stop-color="#FEC902"/>
<stop offset="0.33" stop-color="#FCBE08"/>
<stop offset="0.48" stop-color="#F8AD13"/>
<stop offset="0.61" stop-color="#F29422"/>
<stop offset="0.74" stop-color="#EA7435"/>
<stop offset="0.82" stop-color="#E55E42"/>
<stop offset="0.84" stop-color="#E35D49"/>
<stop offset="0.88" stop-color="#DF5A5C"/>
<stop offset="0.93" stop-color="#D7567C"/>
<stop offset="0.98" stop-color="#CC4FA7"/>
<stop offset="1" stop-color="#C74CBD"/>
</radialGradient>
<radialGradient id="paint3_radial_22_1845" cx="0" cy="0" r="1" gradientUnits="userSpaceOnUse" gradientTransform="translate(17.854 16.9714) scale(33.0981 33.0981)">
<stop stop-color="#FFFFD9"/>
<stop offset="1"/>
</radialGradient>
<radialGradient id="paint4_radial_22_1845" cx="0" cy="0" r="1" gradientUnits="userSpaceOnUse" gradientTransform="translate(26.0064 24.4711) scale(38.3154)">
<stop offset="0.01" stop-color="#FFCC00"/>
<stop offset="0.18" stop-color="#FEC902"/>
<stop offset="0.33" stop-color="#FCBE08"/>
<stop offset="0.48" stop-color="#F8AD13"/>
<stop offset="0.61" stop-color="#F29422"/>
<stop offset="0.74" stop-color="#EA7435"/>
<stop offset="0.82" stop-color="#E55E42"/>
<stop offset="0.84" stop-color="#E35D49"/>
<stop offset="0.88" stop-color="#DF5A5C"/>
<stop offset="0.93" stop-color="#D7567C"/>
<stop offset="0.98" stop-color="#CC4FA7"/>
<stop offset="1" stop-color="#C74CBD"/>
</radialGradient>
<radialGradient id="paint5_radial_22_1845" cx="0" cy="0" r="1" gradientUnits="userSpaceOnUse" gradientTransform="translate(36.1887 32.2364) rotate(-34.8) scale(6.9757 5.5555)">
<stop stop-color="#FFD400"/>
<stop offset="0.66" stop-color="#584900"/>
<stop offset="1"/>
</radialGradient>
<radialGradient id="paint6_radial_22_1845" cx="0" cy="0" r="1" gradientTransform="matrix(3.70841 -2.57152 2.05722 2.95048 50.6018 23.3103)" gradientUnits="userSpaceOnUse">
<stop stop-color="#FFD400"/>
<stop offset="0.66" stop-color="#584900"/>
<stop offset="1"/>
</radialGradient>
<radialGradient id="paint7_radial_22_1845" cx="0" cy="0" r="1" gradientTransform="matrix(2.77242 1.09108 -0.876441 2.21793 53.1929 16.3653)" gradientUnits="userSpaceOnUse">
<stop stop-color="#FFD400"/>
<stop offset="0.66" stop-color="#584900"/>
<stop offset="1"/>
</radialGradient>
<radialGradient id="paint8_radial_22_1845" cx="0" cy="0" r="1" gradientUnits="userSpaceOnUse" gradientTransform="translate(57.5078 35.7258) rotate(-68.39) scale(3.57206 2.84481)">
<stop stop-color="#FF8600"/>
<stop offset="0.66" stop-color="#582E00"/>
<stop offset="1"/>
</radialGradient>
<radialGradient id="paint9_radial_22_1845" cx="0" cy="0" r="1" gradientTransform="matrix(4.27558 -2.96482 2.37185 3.40174 28.5703 12.7374)" gradientUnits="userSpaceOnUse">
<stop stop-color="#FFD400"/>
<stop offset="0.66" stop-color="#584900"/>
<stop offset="1"/>
</radialGradient>
<radialGradient id="paint10_radial_22_1845" cx="0" cy="0" r="1" gradientTransform="matrix(4.27558 -2.96481 2.37185 3.40173 24.5257 28.5959)" gradientUnits="userSpaceOnUse">
<stop stop-color="#FFD400"/>
<stop offset="0.66" stop-color="#584900"/>
<stop offset="1"/>
</radialGradient>
<radialGradient id="paint11_radial_22_1845" cx="0" cy="0" r="1" gradientUnits="userSpaceOnUse" gradientTransform="translate(40.0558 47.8507) rotate(-34.804) scale(5.20479 4.14513)">
<stop offset="0.01" stop-color="#FF8300"/>
<stop offset="0.66" stop-color="#582D00"/>
<stop offset="1"/>
</radialGradient>
<radialGradient id="paint12_radial_22_1845" cx="0" cy="0" r="1" gradientUnits="userSpaceOnUse" gradientTransform="translate(20.2345 44.2996) rotate(48.6522) scale(5.19649 4.15719)">
<stop offset="0.01" stop-color="#FF8300"/>
<stop offset="0.66" stop-color="#582D00"/>
<stop offset="1"/>
</radialGradient>
<radialGradient id="paint13_radial_22_1845" cx="0" cy="0" r="1" gradientTransform="matrix(-2.4779 3.67688 -2.93085 -1.9983 29.8038 47.5614)" gradientUnits="userSpaceOnUse">
<stop offset="0.01" stop-color="#FF8300"/>
<stop offset="0.66" stop-color="#582D00"/>
<stop offset="1"/>
</radialGradient>
<radialGradient id="paint14_radial_22_1845" cx="0" cy="0" r="1" gradientTransform="matrix(-2.4779 3.67688 -2.93085 -1.9983 23.7001 30.5718)" gradientUnits="userSpaceOnUse">
<stop offset="0.01" stop-color="#FF8300"/>
<stop offset="0.66" stop-color="#582D00"/>
<stop offset="1"/>
</radialGradient>
<radialGradient id="paint15_radial_22_1845" cx="0" cy="0" r="1" gradientTransform="matrix(-1.62529 4.12983 -3.30386 -1.30556 14.511 21.2642)" gradientUnits="userSpaceOnUse">
<stop offset="0.01" stop-color="#FF8300"/>
<stop offset="0.66" stop-color="#582D00"/>
<stop offset="1"/>
</radialGradient>
<radialGradient id="paint16_radial_22_1845" cx="0" cy="0" r="1" gradientUnits="userSpaceOnUse" gradientTransform="translate(10.8131 34.2293) rotate(77.29) scale(4.44956 2.71769)">
<stop offset="0.01" stop-color="#FF8300"/>
<stop offset="0.66" stop-color="#582D00"/>
<stop offset="1"/>
</radialGradient>
<radialGradient id="paint17_radial_22_1845" cx="0" cy="0" r="1" gradientUnits="userSpaceOnUse" gradientTransform="translate(51.0766 41.637) rotate(-51.0725) scale(5.21519 4.17216)">
<stop offset="0.01" stop-color="#FF8300"/>
<stop offset="0.66" stop-color="#582D00"/>
<stop offset="1"/>
</radialGradient>
<linearGradient id="paint18_linear_22_1845" x1="31.797" y1="42.7822" x2="32.3914" y2="42.7822" gradientUnits="userSpaceOnUse">
<stop stop-color="#CA528D"/>
<stop offset="1" stop-color="#8E7090"/>
</linearGradient>
<linearGradient id="paint19_linear_22_1845" x1="12.7534" y1="35.9567" x2="61.3072" y2="35.9567" gradientUnits="userSpaceOnUse">
<stop stop-color="#F4788D"/>
<stop offset="1" stop-color="#8E7090"/>
</linearGradient>
<linearGradient id="paint20_linear_22_1845" x1="23.0129" y1="40.9299" x2="30.9212" y2="40.9299" gradientUnits="userSpaceOnUse">
<stop stop-color="#CA528D"/>
<stop offset="1" stop-color="#8E7090"/>
</linearGradient>
<linearGradient id="paint21_linear_22_1845" x1="23.5809" y1="13.5905" x2="25.4916" y2="13.5905" gradientUnits="userSpaceOnUse">
<stop stop-color="#CA528D"/>
<stop offset="1" stop-color="#8E7090"/>
</linearGradient>
<linearGradient id="paint22_linear_22_1845" x1="21.0916" y1="21.8067" x2="23.8569" y2="21.8067" gradientUnits="userSpaceOnUse">
<stop stop-color="#CA528D"/>
<stop offset="1" stop-color="#B3757C"/>
</linearGradient>
<linearGradient id="paint23_linear_22_1845" x1="49.45" y1="31.0366" x2="59.1363" y2="31.0366" gradientUnits="userSpaceOnUse">
<stop stop-color="#CA528D"/>
<stop offset="1" stop-color="#B3757C"/>
</linearGradient>
<linearGradient id="paint24_linear_22_1845" x1="36.3299" y1="50.7752" x2="36.3455" y2="50.7752" gradientUnits="userSpaceOnUse">
<stop stop-color="#CA528D"/>
<stop offset="1" stop-color="#B3757C"/>
</linearGradient>
<linearGradient id="paint25_linear_22_1845" x1="48.7229" y1="47.1451" x2="56.61" y2="47.1451" gradientUnits="userSpaceOnUse">
<stop stop-color="#CA528D"/>
<stop offset="1" stop-color="#B3757C"/>
</linearGradient>
<linearGradient id="paint26_linear_22_1845" x1="16.1927" y1="29.9538" x2="20.9748" y2="29.9538" gradientUnits="userSpaceOnUse">
<stop stop-color="#CA528D"/>
<stop offset="1" stop-color="#B3757C"/>
</linearGradient>
<linearGradient id="paint27_linear_22_1845" x1="14.3085" y1="39.0669" x2="16.8031" y2="39.0669" gradientUnits="userSpaceOnUse">
<stop stop-color="#CA528D"/>
<stop offset="1" stop-color="#B3757C"/>
</linearGradient>
<linearGradient id="paint28_linear_22_1845" x1="11.538" y1="38.775" x2="11.538" y2="26.5357" gradientUnits="userSpaceOnUse">
<stop/>
<stop offset="0.08" stop-color="#080502"/>
<stop offset="0.22" stop-color="#1F1209"/>
<stop offset="0.38" stop-color="#452813"/>
<stop offset="0.57" stop-color="#794621"/>
<stop offset="0.79" stop-color="#BB6C33"/>
<stop offset="0.98" stop-color="#FF9346"/>
</linearGradient>
<linearGradient id="paint29_linear_22_1845" x1="26.1975" y1="28.2872" x2="46.8652" y2="28.2872" gradientUnits="userSpaceOnUse">
<stop stop-color="#CA528D"/>
<stop offset="1" stop-color="#B3757C"/>
</linearGradient>
<linearGradient id="paint30_linear_22_1845" x1="24.6265" y1="51.1363" x2="49.45" y2="51.1363" gradientUnits="userSpaceOnUse">
<stop stop-color="#CA528D"/>
<stop offset="1" stop-color="#B3757C"/>
</linearGradient>
<linearGradient id="paint31_linear_22_1845" x1="49.8268" y1="18.7177" x2="56.5144" y2="18.7177" gradientUnits="userSpaceOnUse">
<stop stop-color="#CA528D"/>
<stop offset="1" stop-color="#B3757C"/>
</linearGradient>
<linearGradient id="paint32_linear_22_1845" x1="8.86823" y1="29.9432" x2="23.9842" y2="29.9432" gradientUnits="userSpaceOnUse">
<stop stop-color="#514579"/>
<stop offset="0.11" stop-color="#594D7F"/>
<stop offset="0.27" stop-color="#6E6490"/>
<stop offset="0.48" stop-color="#918AAB"/>
<stop offset="0.72" stop-color="#C2BED0"/>
<stop offset="0.98" stop-color="white"/>
</linearGradient>
<linearGradient id="paint33_linear_22_1845" x1="24.2814" y1="10.5015" x2="43.0703" y2="10.5015" gradientUnits="userSpaceOnUse">
<stop stop-color="#514579"/>
<stop offset="0.11" stop-color="#594D7F"/>
<stop offset="0.27" stop-color="#6E6490"/>
<stop offset="0.48" stop-color="#918AAB"/>
<stop offset="0.72" stop-color="#C2BED0"/>
<stop offset="0.98" stop-color="white"/>
</linearGradient>
<linearGradient id="paint34_linear_22_1845" x1="40.3104" y1="17.9481" x2="48.914" y2="17.9481" gradientUnits="userSpaceOnUse">
<stop stop-color="#FF8B4A"/>
<stop offset="1"/>
</linearGradient>
<linearGradient id="paint35_linear_22_1845" x1="31.5794" y1="38.5415" x2="47.4862" y2="38.5415" gradientUnits="userSpaceOnUse">
<stop stop-color="#FF8B4A"/>
<stop offset="1"/>
</linearGradient>
<linearGradient id="paint36_linear_22_1845" x1="18.5864" y1="53.2382" x2="32.5294" y2="53.2382" gradientUnits="userSpaceOnUse">
<stop stop-color="#FF8B4A"/>
<stop offset="1"/>
</linearGradient>
<linearGradient id="paint37_linear_22_1845" x1="38.9675" y1="50.6587" x2="48.691" y2="50.6587" gradientUnits="userSpaceOnUse">
<stop stop-color="#FF8B4A"/>
<stop offset="1"/>
</linearGradient>
<linearGradient id="paint38_linear_22_1845" x1="50.2833" y1="44.2949" x2="56.127" y2="44.2949" gradientUnits="userSpaceOnUse">
<stop stop-color="#FF8B4A"/>
<stop offset="1"/>
</linearGradient>
<linearGradient id="paint39_linear_22_1845" x1="48.0382" y1="30.3519" x2="58.7808" y2="30.3519" gradientUnits="userSpaceOnUse">
<stop stop-color="#FF8B4A"/>
<stop offset="1"/>
</linearGradient>
<linearGradient id="paint40_linear_22_1845" x1="26.1975" y1="40.9246" x2="26.1975" y2="33.2339" gradientUnits="userSpaceOnUse">
<stop stop-color="#FF8B4A"/>
<stop offset="1"/>
</linearGradient>
<linearGradient id="paint41_linear_22_1845" x1="31.1123" y1="23.3777" x2="31.1123" y2="18.5" gradientUnits="userSpaceOnUse">
<stop stop-color="#FF8B4A"/>
<stop offset="1"/>
</linearGradient>
<linearGradient id="paint42_linear_22_1845" x1="51.6633" y1="18.9724" x2="57.7723" y2="18.9724" gradientUnits="userSpaceOnUse">
<stop stop-color="#FF8B4A"/>
<stop offset="1"/>
</linearGradient>
<linearGradient id="paint43_linear_22_1845" x1="57.1672" y1="41.795" x2="61.9494" y2="41.795" gradientUnits="userSpaceOnUse">
<stop/>
<stop offset="1" stop-color="#FF8B4A"/>
</linearGradient>
<linearGradient id="paint44_linear_22_1845" x1="29.9181" y1="58.6466" x2="41.0056" y2="58.6466" gradientUnits="userSpaceOnUse">
<stop stop-color="#FF8B4A"/>
<stop offset="1"/>
</linearGradient>
<linearGradient id="paint45_linear_22_1845" x1="45.5702" y1="54.6553" x2="53.8023" y2="54.6553" gradientUnits="userSpaceOnUse">
<stop stop-color="#FF8B4A"/>
<stop offset="1"/>
</linearGradient>
<clipPath id="clip0_22_1845">
<rect width="73" height="73" fill="white"/>
</clipPath>
<clipPath id="clip1_22_1845">
<rect width="73" height="73" fill="white"/>
</clipPath>
</defs>
</svg>
