<svg width="44" height="43" viewBox="0 0 44 43" fill="none" xmlns="http://www.w3.org/2000/svg">
<path fill-rule="evenodd" clip-rule="evenodd" d="M22.3639 0.0067073C26.5666 0.00670751 30.675 1.25305 34.1693 3.5881C37.6637 5.92315 40.3871 9.24203 41.9951 13.125C43.6031 17.0079 44.0235 21.2805 43.2031 25.4024C42.3827 29.5243 40.3583 33.3103 37.3861 36.2816C34.4138 39.2529 30.6272 41.2761 26.505 42.0952C22.3829 42.9143 18.1104 42.4925 14.228 40.8833C10.3455 39.2741 7.02753 36.5496 4.69358 33.0545C2.35963 29.5594 1.11458 25.4507 1.11591 21.248C1.11591 18.458 1.66555 15.6953 2.73344 13.1177C3.80134 10.5402 5.36656 8.19828 7.3397 6.22576C9.31284 4.25324 11.6553 2.68876 14.2331 1.62168C16.811 0.554598 19.5739 0.00582661 22.3639 0.0067073Z" fill="url(#paint0_radial_22_187)"/>
<g style="mix-blend-mode:multiply" opacity="0.4">
<path fill-rule="evenodd" clip-rule="evenodd" d="M29.2632 32.1904C27.9222 36.7029 24.2211 36.6828 20.3322 36.9644C16.5842 37.2393 13.7949 34.859 10.9453 32.9012C8.84666 31.4797 6.862 30.8897 5.3735 28.952C3.48941 26.4711 2.36298 22.4348 2.36298 18.9683C2.36382 14.9313 3.7215 11.0118 6.21794 7.83925C8.71438 4.66672 12.2047 2.42533 16.1282 1.4751C17.6949 1.03564 19.2966 0.732781 20.9156 0.569929C26.95 0.36878 30.5841 1.81034 33.6013 4.82757C35.8341 7.06031 34.5735 11.1369 35.4988 14.3218C35.9682 15.9243 37.336 17.9424 36.9672 20.9798C36.4174 25.4252 30.8322 26.8265 29.2632 32.1904ZM43.6185 21.248C43.6185 17.0458 42.3725 12.938 40.038 9.44394C37.7036 5.94987 34.3855 3.22646 30.5033 1.61806C26.6212 0.00965081 22.3492 -0.411521 18.2277 0.407793C14.1062 1.22711 10.3202 3.25011 7.34832 6.22103C4.37648 9.19194 2.35227 12.9773 1.53166 17.0986C0.711045 21.2199 1.13087 25.4919 2.73805 29.3746C4.34523 33.2573 7.06759 36.5762 10.5609 38.9118C14.0542 41.2473 18.1617 42.4946 22.3638 42.4959C25.155 42.4977 27.9191 41.9494 30.4982 40.8823C33.0773 39.8152 35.4208 38.2502 37.3947 36.2769C39.3687 34.3036 40.9343 31.9606 42.0023 29.3818C43.0702 26.8031 43.6194 24.0391 43.6185 21.248Z" fill="url(#paint1_radial_22_187)"/>
</g>
<path style="mix-blend-mode:screen" fill-rule="evenodd" clip-rule="evenodd" d="M22.3639 0.0067073C26.5666 0.00670751 30.675 1.25305 34.1693 3.5881C37.6637 5.92315 40.3871 9.24203 41.9951 13.125C43.6031 17.0079 44.0235 21.2805 43.2031 25.4024C42.3827 29.5243 40.3583 33.3103 37.3861 36.2816C34.4138 39.2529 30.6272 41.2761 26.505 42.0952C22.3829 42.9143 18.1104 42.4925 14.228 40.8833C10.3455 39.2741 7.02753 36.5496 4.69358 33.0545C2.35963 29.5594 1.11458 25.4507 1.11591 21.248C1.11591 18.458 1.66555 15.6953 2.73344 13.1177C3.80134 10.5402 5.36656 8.19828 7.3397 6.22576C9.31284 4.25324 11.6553 2.68876 14.2331 1.62168C16.811 0.554598 19.5739 0.00582661 22.3639 0.0067073Z" fill="url(#paint2_radial_22_187)"/>
<g style="mix-blend-mode:multiply" opacity="0.65">
<path fill-rule="evenodd" clip-rule="evenodd" d="M1.1159 21.248C1.10993 24.503 1.85567 27.7154 3.295 30.6349C4.36109 29.77 5.21932 29.7298 6.64748 29.6024C10.3017 29.2671 14.3313 30.7489 17.7643 29.8102C23.8993 28.1273 26.4807 20.7653 31.8849 17.1647C34.603 15.483 37.4426 14.006 40.3801 12.7461C40.7985 12.5769 41.1675 12.3048 41.4528 11.955C40.5073 10.0067 39.2706 8.21381 37.7852 6.63794C37.6718 6.64479 37.5605 6.67205 37.4567 6.7184C37.6515 6.87671 37.8094 7.07566 37.9193 7.30136C38.0292 7.52705 38.0884 7.77402 38.0929 8.02501C38.0973 8.27599 38.0469 8.52492 37.9451 8.75438C37.8434 8.98384 37.6927 9.1883 37.5036 9.35344C35.1569 11.0632 31.7843 10.1379 29.1694 9.80267C26.9945 9.41508 24.7978 9.16205 22.5918 9.04501C21.3246 9.04501 20.1781 9.15229 19.2394 10.0843C18.0057 11.3448 17.6034 13.3496 17.1139 14.9722C16.6244 16.5948 16.2758 18.1436 14.9482 19.5047C13.3591 21.1206 10.4089 21.7509 8.35724 20.544C7.4833 19.9896 6.67373 19.3397 5.94346 18.6063C4.92431 17.634 3.87163 16.4808 2.59098 18.1034C1.88936 19.0331 1.38512 20.0963 1.10919 21.2279L1.1159 21.248ZM10.7643 14.181C9.9396 15.75 9.61777 18.0498 11.6762 17.5335C15.2499 16.6685 16.8323 11.6264 14.0967 9.48754C13.5804 9.08524 13.2116 9.68869 12.7557 10.1111C12.1858 10.6609 12.293 11.4119 12.0852 12.2701C11.8907 13.021 11.1398 13.4904 10.7442 14.1944L10.7643 14.181ZM17.3016 37.9836C17.7844 34.9931 15.9606 33.9606 13.3859 33.5382C12.4338 33.3773 11.4683 33.2499 10.5095 33.1627C9.06796 33.0286 6.64077 33.1158 7.67333 35.3217C8.4444 36.9778 10.9789 38.6742 12.6149 39.3447C14.4319 40.156 16.8524 40.7795 17.3083 37.9567L17.3016 37.9836ZM20.8553 36.6426C20.0641 37.3801 19.9635 39.0631 20.8553 39.7604C22.2834 40.8533 24.6771 40.5851 26.2729 40.1291C27.8686 39.6732 29.3236 38.3255 27.1244 37.2795C25.5355 36.4903 23.7825 36.0882 22.0085 36.1062C21.5691 36.1513 21.1568 36.3398 20.8351 36.6426H20.8553ZM31.7642 29.2671C33.9232 30.2863 37.4567 30.5679 39.4414 29.0325C41.426 27.497 42.0295 22.998 41.2249 20.5038C40.3264 17.7614 38.6837 16.9837 35.995 17.8821C34.0171 18.5526 30.8389 21.2346 29.9606 23.0382C28.8274 25.3045 29.4108 28.1407 31.7977 29.2671H31.7642Z" fill="url(#paint3_radial_22_187)"/>
</g>
<path style="mix-blend-mode:screen" opacity="0.65" fill-rule="evenodd" clip-rule="evenodd" d="M28.8676 4.88123C34.1108 10.1245 33.2727 19.4712 26.9902 25.7537C20.7077 32.0363 11.3878 32.861 6.13781 27.6311C0.887843 22.4012 1.73267 13.0411 8.0152 6.75861C14.2977 0.476082 23.6444 -0.368741 28.8676 4.88123Z" fill="url(#paint4_radial_22_187)"/>
<path fill-rule="evenodd" clip-rule="evenodd" d="M16.5305 28.8916C18.8974 28.2211 20.9022 26.9271 23.088 24.8083C26.4404 21.5296 27.3858 19.5583 31.6636 16.7154C34.2316 14.999 36.9806 13.4702 39.5955 11.8476C41.4059 10.7279 41.3455 9.86968 40.38 8.42812C40.1521 8.08617 38.2411 5.23657 36.9404 5.8266C37.1392 5.9874 37.3004 6.18982 37.4125 6.41961C37.5247 6.6494 37.5851 6.90097 37.5896 7.15664C37.5941 7.4123 37.5425 7.66584 37.4384 7.89942C37.3344 8.13299 37.1804 8.34092 36.9873 8.50858C34.6004 10.2452 31.1808 9.30647 28.5324 8.96451C26.3155 8.56873 24.0762 8.31121 21.8274 8.19345C20.5401 8.19345 19.3734 8.30743 18.475 9.25283C17.2211 10.5268 16.8121 12.5584 16.316 14.2145C15.8198 15.8706 15.4577 17.4396 14.1168 18.7806C12.5076 20.43 9.50375 21.0669 7.41181 19.8399C6.52417 19.2772 5.7012 18.6183 4.9578 17.8754C3.92524 16.8831 2.85915 15.7164 1.54498 17.3591C-0.768222 20.269 -0.245236 25.9884 1.54498 29.2403C1.72609 29.6184 2.00359 29.9422 2.34958 30.179C2.4515 30.2378 2.56713 30.2688 2.68482 30.2688C2.80252 30.2688 2.91814 30.2378 3.02007 30.179C4.10627 29.2939 4.30742 29.428 5.70205 29.3006C9.47693 28.9721 13.044 29.8437 16.5305 28.8916ZM11.475 17.3457C12.3869 17.0037 13.3323 15.817 13.8217 15.0124C14.8543 13.3294 15.498 10.3189 13.6541 8.97792C13.3774 8.82294 13.0563 8.7664 12.7433 8.81756C12.4303 8.86871 12.1439 9.02452 11.9309 9.25953C11.3476 9.82275 11.4616 10.6005 11.2604 11.452C10.9349 12.3189 10.5215 13.1502 10.0267 13.9329C9.58178 14.619 9.40294 15.444 9.52387 16.2528C9.55332 16.4675 9.63219 16.6725 9.75426 16.8516C9.87633 17.0307 10.0383 17.179 10.2274 17.2849C10.4165 17.3909 10.6276 17.4515 10.844 17.462C11.0605 17.4726 11.2765 17.4327 11.475 17.3457ZM12.5478 33.0487C11.5823 32.8878 10.6034 32.7604 9.63115 32.6732C8.16947 32.5391 5.9099 32.4519 6.94917 34.6847C7.73365 36.3609 10.3016 38.0372 11.9645 38.7948C13.8083 39.6195 16.0545 40.4241 16.5171 37.5611C17.0133 34.5305 15.1895 33.4912 12.5478 33.0487ZM26.5209 36.8839C24.9075 36.0809 23.1267 35.6719 21.3246 35.6904C20.8886 35.7387 20.4785 35.9215 20.1512 36.2134C19.3533 36.9644 19.246 38.6674 20.1512 39.3781C21.5995 40.4912 23.9663 40.0084 25.5889 39.5391C27.2115 39.0697 28.7469 37.95 26.5209 36.8839ZM40.8091 19.8265C39.8973 17.044 38.2344 16.2528 35.4988 17.1445C33.4873 17.815 30.269 20.5305 29.3437 22.3811C28.1904 24.6809 28.7872 27.5573 31.2077 28.7039C33.4002 29.7364 36.9873 30.0449 38.9988 28.4692C41.0103 26.8935 41.607 22.3342 40.8091 19.8265Z" fill="url(#paint5_radial_22_187)"/>
<path fill-rule="evenodd" clip-rule="evenodd" d="M29.3437 22.4012C28.1904 24.701 28.7872 27.5774 31.2077 28.724C33.4002 29.7565 36.9873 30.065 38.9988 28.4893C41.0103 26.9136 41.607 22.3342 40.8091 19.8265C39.8973 17.044 38.2344 16.2528 35.4988 17.1445C33.4873 17.815 30.269 20.5305 29.3437 22.3811V22.4012Z" fill="url(#paint6_radial_22_187)"/>
<g style="mix-blend-mode:screen" opacity="0.2">
<path fill-rule="evenodd" clip-rule="evenodd" d="M16.5305 28.8916C18.8974 28.2211 20.9022 26.9271 23.088 24.8083C26.4404 21.5296 27.3858 19.5583 31.6636 16.7154C34.2316 14.999 36.9806 13.4702 39.5955 11.8476C41.4059 10.7279 41.3455 9.86968 40.38 8.42812C40.1521 8.08617 38.2411 5.23657 36.9404 5.8266C37.1392 5.9874 37.3004 6.18982 37.4125 6.41961C37.5247 6.6494 37.5851 6.90097 37.5896 7.15664C37.5941 7.4123 37.5425 7.66584 37.4384 7.89942C37.3344 8.13299 37.1804 8.34092 36.9873 8.50858C34.6004 10.2452 31.1808 9.30647 28.5324 8.96451C26.3155 8.56873 24.0762 8.31121 21.8274 8.19345C20.5401 8.19345 19.3734 8.30743 18.475 9.25283C17.2211 10.5268 16.8121 12.5584 16.316 14.2145C15.8198 15.8706 15.4577 17.4396 14.1168 18.7806C12.5076 20.43 9.50375 21.0669 7.41181 19.8399C6.52417 19.2772 5.7012 18.6183 4.9578 17.8754C3.92524 16.8831 2.85915 15.7164 1.54498 17.3591C-0.768222 20.269 -0.245236 25.9884 1.54498 29.2403C1.72609 29.6184 2.00359 29.9422 2.34958 30.179C2.4515 30.2378 2.56713 30.2688 2.68482 30.2688C2.80252 30.2688 2.91814 30.2378 3.02007 30.179C4.10627 29.2939 4.30742 29.428 5.70205 29.3006C9.47693 28.9721 13.044 29.8437 16.5305 28.8916ZM11.475 17.3457C12.3869 17.0037 13.3323 15.817 13.8217 15.0124C14.8543 13.3294 15.498 10.3189 13.6541 8.97792C13.3774 8.82294 13.0563 8.7664 12.7433 8.81756C12.4303 8.86871 12.1439 9.02452 11.9309 9.25953C11.3476 9.82275 11.4616 10.6005 11.2604 11.452C10.9349 12.3189 10.5215 13.1502 10.0267 13.9329C9.58178 14.619 9.40294 15.444 9.52387 16.2528C9.55332 16.4675 9.63219 16.6725 9.75426 16.8516C9.87633 17.0307 10.0383 17.179 10.2274 17.2849C10.4165 17.3909 10.6276 17.4515 10.844 17.462C11.0605 17.4726 11.2765 17.4327 11.475 17.3457ZM12.5478 33.0487C11.5823 32.8878 10.6034 32.7604 9.63115 32.6732C8.16947 32.5391 5.9099 32.4519 6.94917 34.6847C7.73365 36.3609 10.3016 38.0372 11.9645 38.7948C13.8083 39.6195 16.0545 40.4241 16.5171 37.5611C17.0133 34.5305 15.1895 33.4912 12.5478 33.0487ZM26.5209 36.8839C24.9075 36.0809 23.1267 35.6719 21.3246 35.6904C20.8886 35.7387 20.4785 35.9215 20.1512 36.2134C19.3533 36.9644 19.246 38.6674 20.1512 39.3781C21.5995 40.4912 23.9663 40.0084 25.5889 39.5391C27.2115 39.0697 28.7469 37.95 26.5209 36.8839ZM40.8091 19.8265C39.8973 17.044 38.2344 16.2528 35.4988 17.1445C33.4873 17.815 30.269 20.5305 29.3437 22.3811C28.1904 24.6809 28.7872 27.5573 31.2077 28.7039C33.4002 29.7364 36.9873 30.0449 38.9988 28.4692C41.0103 26.8935 41.607 22.3342 40.8091 19.8265Z" fill="url(#paint7_radial_22_187)"/>
</g>
<path style="mix-blend-mode:multiply" opacity="0.55" fill-rule="evenodd" clip-rule="evenodd" d="M13.0373 19.6522C12.2011 20.163 11.2477 20.4503 10.2685 20.4867C9.28931 20.5231 8.3172 20.3073 7.44537 19.86C6.55773 19.2973 5.73477 18.6384 4.99136 17.8955C4.16666 17.0976 3.30842 16.1924 2.30939 16.7154C3.47605 16.5076 4.21359 17.8284 5.46071 19.0353C8.27679 21.7508 10.59 21.2882 13.0172 19.6522H13.0373Z" fill="url(#paint8_radial_22_187)"/>
<path style="mix-blend-mode:screen" opacity="0.75" fill-rule="evenodd" clip-rule="evenodd" d="M6.90894 20.5976C5.69534 19.8802 4.59573 18.2844 3.55646 17.2786C2.95972 16.7154 2.658 16.8227 2.35628 17.2786C2.31117 17.3482 2.27934 17.4255 2.26241 17.5066C1.56119 21.2282 2.10059 25.077 3.79784 28.4625C3.90708 28.6866 4.08304 28.8714 4.30155 28.9914C4.52006 29.1115 4.77039 29.1609 5.01814 29.133C5.73091 28.9005 6.4695 28.7564 7.21736 28.7039C9.77865 28.8245 11.5488 29.2067 13.9223 29.0391C17.3619 28.7977 20.0439 27.202 22.5918 24.8955C23.9328 23.6953 23.5573 22.1397 25.5487 20.4769C26.2728 19.8735 27.8217 19.0689 28.3648 18.4185C28.6628 18.0652 28.8845 17.6541 29.016 17.211C29.1476 16.7679 29.1861 16.3024 29.1291 15.8438C28.9578 14.3046 28.5719 12.797 27.9826 11.3649C27.7766 10.8341 27.4287 10.3702 26.9768 10.0239C26.0314 9.28634 24.6837 8.85723 22.7661 8.62926C19.2326 8.20685 18.0727 9.9099 17.0803 13.1015C16.4098 15.2739 16.4098 16.7892 15.5583 18.1637C13.7681 21.1474 9.9865 22.428 6.91564 20.5976H6.90894Z" fill="url(#paint9_radial_22_187)"/>
<path style="mix-blend-mode:screen" fill-rule="evenodd" clip-rule="evenodd" d="M7.81412 33.1358C8.91164 33.9102 10.1374 34.4845 11.4348 34.8322C12.58 35.1356 13.7648 35.2622 14.9482 35.2077C15.0004 35.2062 15.051 35.1896 15.0939 35.1599C15.1367 35.1301 15.17 35.0884 15.1896 35.04C15.2176 34.9959 15.2325 34.9448 15.2325 34.8925C15.2325 34.8403 15.2176 34.7891 15.1896 34.745C14.4654 33.7795 13.2183 33.3437 11.5756 33.042C10.395 32.7413 9.16631 32.6798 7.96163 32.8609L7.84094 32.9012C7.81929 32.9104 7.80046 32.9252 7.78634 32.944C7.77222 32.9629 7.7633 32.9851 7.76048 33.0084C7.75993 33.0313 7.76445 33.0539 7.77373 33.0748C7.783 33.0957 7.7968 33.1142 7.81412 33.1291V33.1358Z" fill="url(#paint10_radial_22_187)"/>
<g style="mix-blend-mode:multiply" opacity="0.5">
<path fill-rule="evenodd" clip-rule="evenodd" d="M6.96259 34.6914C7.74707 36.3676 10.3151 38.0439 11.9779 38.8015C13.406 39.472 15.0756 40.0687 16.0009 38.9893C12.4579 38.1873 9.22454 36.3726 6.6944 33.7661C6.72398 34.0888 6.81502 34.4029 6.96259 34.6914ZM25.5889 39.5659C26.6215 39.2709 27.7077 38.6339 27.6004 37.9165C25.274 38.9326 22.7636 39.4598 20.225 39.4653C21.6799 40.4979 23.9932 40.0285 25.5889 39.5659ZM40.8092 19.8265C40.2996 18.271 39.5553 17.339 38.5161 16.9769C39.3782 21.2116 38.753 25.6142 36.746 29.4414C37.561 29.3046 38.3327 28.9785 38.9988 28.4893C41.1109 26.8265 41.607 22.3342 40.8092 19.8265ZM39.5956 11.8476C40.0655 11.5885 40.4764 11.2346 40.8025 10.8084C41.2718 10.1379 41.0304 9.40034 40.38 8.42812C40.1521 8.08617 38.2412 5.23657 36.9404 5.8266C37.0348 5.89643 37.1204 5.97749 37.1952 6.06798C37.4831 6.42137 37.6223 6.87281 37.5835 7.32697C37.5448 7.78112 37.331 8.20242 36.9873 8.50187C36.4029 8.92203 35.7353 9.21237 35.0295 9.3534C35.5169 9.99604 35.9647 10.6678 36.3705 11.3649C36.7215 11.972 37.0371 12.5988 37.3159 13.2423C38.1004 12.7461 38.8647 12.3103 39.5956 11.8476Z" fill="url(#paint11_radial_22_187)"/>
</g>
<path style="mix-blend-mode:multiply" opacity="0.55" fill-rule="evenodd" clip-rule="evenodd" d="M29.9672 9.80268C32.153 10.1983 35.3312 10.9358 37.4633 9.52778C37.7939 9.31969 38.0715 9.03744 38.274 8.70342C38.4765 8.3694 38.5984 7.99279 38.63 7.60346C38.6706 7.21851 38.582 6.831 38.378 6.502C38.1741 6.17301 37.8664 5.92125 37.5036 5.78642C37.4048 5.75964 37.3006 5.75964 37.2019 5.78642C37.1201 5.79769 37.0407 5.82262 36.9672 5.86017C37.0616 5.93001 37.1471 6.01106 37.222 6.10155C37.5099 6.45494 37.6491 6.90639 37.6103 7.36054C37.5715 7.81469 37.3578 8.23599 37.0141 8.53545C34.6272 10.272 31.2076 9.33333 28.5592 8.99138C26.3423 8.5956 24.103 8.33808 21.8542 8.22031C21.3606 8.212 20.8671 8.24565 20.3792 8.32089C23.6109 8.28066 26.7623 9.27299 29.9471 9.83621L29.9672 9.80268Z" fill="url(#paint12_radial_22_187)"/>
<path style="mix-blend-mode:multiply" opacity="0.4" fill-rule="evenodd" clip-rule="evenodd" d="M12.5076 33.042C14.4855 33.632 16.0478 34.383 16.0612 36.9375C16.0676 37.3284 16.0017 37.7172 15.8667 38.0841C15.4242 39.2508 14.5258 39.4251 13.5267 39.4251C14.9079 39.8207 16.2087 39.6799 16.5305 37.5946C17.0133 34.5573 15.1895 33.518 12.5478 33.0755L12.5076 33.042Z" fill="url(#paint13_radial_22_187)"/>
<path style="mix-blend-mode:multiply" opacity="0.4" fill-rule="evenodd" clip-rule="evenodd" d="M26.4472 38.6272C24.9302 39.5435 23.1835 40.0087 21.4117 39.9682C22.8165 40.1611 24.2468 40.0234 25.5889 39.5659C27.1109 39.1301 28.747 37.95 26.5209 36.8839C26.3466 36.8034 26.1655 36.7163 25.9778 36.6425C26.7422 37.0716 27.6071 37.7958 26.4472 38.654V38.6272Z" fill="url(#paint14_radial_22_187)"/>
<path style="mix-blend-mode:multiply" opacity="0.4" fill-rule="evenodd" clip-rule="evenodd" d="M38.7373 27.7115C37.4538 28.8567 35.7974 29.4954 34.0774 29.5085C35.8542 29.7163 37.7383 29.4682 38.9988 28.4893C41.1109 26.8265 41.607 22.3342 40.8092 19.8265C40.5933 19.0686 40.2159 18.3663 39.7028 17.7681C41.5266 20.6512 41.2316 25.4252 38.7373 27.7115Z" fill="url(#paint15_radial_22_187)"/>
<path style="mix-blend-mode:multiply" fill-rule="evenodd" clip-rule="evenodd" d="M11.7164 16.4472C11.5354 16.5979 11.3202 16.7017 11.0897 16.7495C10.8591 16.7974 10.6204 16.7877 10.3945 16.7215C10.1685 16.6552 9.96237 16.5344 9.79417 16.3696C9.62597 16.2049 9.5009 16.0013 9.42999 15.7767C9.43691 15.9257 9.4571 16.0738 9.49034 16.2193C9.51561 16.4426 9.59425 16.6566 9.71961 16.8432C9.84497 17.0298 10.0134 17.1835 10.2106 17.2913C10.4078 17.3991 10.6281 17.4579 10.8528 17.4627C11.0776 17.4675 11.3002 17.4182 11.5018 17.3189C12.4137 16.9769 13.3591 15.7901 13.8486 14.9856C14.6302 13.7151 14.9433 12.2114 14.7336 10.7346C14.7731 11.872 14.5157 13 13.9866 14.0076C13.4575 15.0152 12.6751 15.8676 11.7164 16.4808V16.4472Z" fill="url(#paint16_radial_22_187)"/>
<path style="mix-blend-mode:screen" fill-rule="evenodd" clip-rule="evenodd" d="M3.56988 17.5401C3.26816 17.1781 2.82563 17.929 3.08713 18.499C4.42812 21.3553 6.62734 23.3869 9.88594 23.112C12.5679 22.8907 15.7394 20.4635 16.7652 17.748C16.9309 17.3175 17.0369 16.8663 17.0803 16.407C17.0803 16.1857 16.8926 15.9846 16.6378 16.6886C16.1985 17.9278 15.4571 19.0378 14.4807 19.9182C13.5043 20.7986 12.3237 21.4216 11.0459 21.7307C10.1747 21.9209 9.27115 21.9048 8.40733 21.6836C7.54351 21.4624 6.74338 21.0423 6.07083 20.4568C5.13192 19.5743 4.28705 18.5969 3.54977 17.5401H3.56988Z" fill="url(#paint17_radial_22_187)"/>
<path style="mix-blend-mode:screen" fill-rule="evenodd" clip-rule="evenodd" d="M18.6627 10.4463C17.8648 11.1704 17.201 13.4971 17.0736 14.5564C16.9797 15.3543 17.2614 16.1723 17.61 14.6235C17.6704 14.3218 17.7441 14.02 17.8246 13.725C18.0994 12.6922 18.479 11.6902 18.9577 10.7346C19.2259 10.2116 19.3399 9.83616 18.6627 10.4597V10.4463Z" fill="url(#paint18_radial_22_187)"/>
<path style="mix-blend-mode:screen" fill-rule="evenodd" clip-rule="evenodd" d="M11.6426 10.3793C11.636 11.2352 11.3771 12.0701 10.8983 12.7796C10.4625 13.4501 10.2614 13.9999 10.3619 14.1206C10.4625 14.2413 10.8179 13.9999 11.428 13.2959C12.1715 12.4757 12.6096 11.4243 12.6685 10.3189C12.702 9.8965 12.5411 9.46068 12.293 9.40704C11.8706 9.31317 11.6225 10.0775 11.6225 10.3658L11.6426 10.3793Z" fill="url(#paint19_radial_22_187)"/>
<path style="mix-blend-mode:screen" fill-rule="evenodd" clip-rule="evenodd" d="M10.9923 33.7326C13.0037 33.9069 13.2049 33.4778 11.113 33.0621C9.30262 32.6866 8.28347 32.8207 8.27006 33.0085C8.25665 33.1962 9.09476 33.5851 10.9923 33.7527V33.7326Z" fill="url(#paint20_radial_22_187)"/>
<path style="mix-blend-mode:screen" fill-rule="evenodd" clip-rule="evenodd" d="M20.3724 36.2134C19.7623 36.7364 20.0975 37.0314 20.8149 37.1186C21.5603 37.2057 22.3109 37.2394 23.0611 37.2192C25.5419 37.1655 26.2594 36.5084 23.2958 35.8782C22.4912 35.7173 20.9021 35.724 20.3724 36.1799V36.2134Z" fill="url(#paint21_radial_22_187)"/>
<path style="mix-blend-mode:screen" opacity="0.75" fill-rule="evenodd" clip-rule="evenodd" d="M29.4107 26.3706C29.0299 25.7729 28.8621 25.064 28.9347 24.3591C29.0927 23.1198 29.6316 21.9601 30.4768 21.0401C31.268 20.1081 32.9308 18.5794 34.1176 18.2173C34.4662 18.1101 34.6741 18.1369 34.7076 18.2173C34.8685 18.6465 33.5208 19.9472 32.5017 21.5229C32.1114 22.1011 31.7705 22.7112 31.4825 23.3466C31.0534 24.3524 31.1339 25.4386 30.812 26.2432C30.7643 26.3862 30.6764 26.5124 30.5588 26.6068C30.4412 26.7011 30.2988 26.7596 30.1489 26.7751C29.9989 26.7907 29.8476 26.7627 29.7131 26.6945C29.5787 26.6263 29.4667 26.5208 29.3906 26.3907L29.4107 26.3706Z" fill="url(#paint22_radial_22_187)"/>
<g style="mix-blend-mode:screen" opacity="0.5">
<path fill-rule="evenodd" clip-rule="evenodd" d="M16.5305 28.8916C18.8974 28.2211 20.9022 26.9271 23.088 24.8083C26.4404 21.5296 27.3858 19.5583 31.6636 16.7154C34.2316 14.999 36.9806 13.4702 39.5955 11.8476C41.4059 10.7279 41.3455 9.86968 40.38 8.42812C40.1521 8.08617 38.2411 5.23657 36.9404 5.8266C37.1392 5.9874 37.3004 6.18982 37.4125 6.41961C37.5247 6.6494 37.5851 6.90097 37.5896 7.15664C37.5941 7.4123 37.5425 7.66584 37.4384 7.89942C37.3344 8.13299 37.1804 8.34092 36.9873 8.50858C34.6004 10.2452 31.1808 9.30647 28.5324 8.96451C26.3155 8.56873 24.0762 8.31121 21.8274 8.19345C20.5401 8.19345 19.3734 8.30743 18.475 9.25283C17.2211 10.5268 16.8121 12.5584 16.316 14.2145C15.8198 15.8706 15.4577 17.4396 14.1168 18.7806C12.5076 20.43 9.50375 21.0669 7.41181 19.8399C6.52417 19.2772 5.7012 18.6183 4.9578 17.8754C3.92524 16.8831 2.85915 15.7164 1.54498 17.3591C-0.768222 20.269 -0.245236 25.9884 1.54498 29.2403C1.72609 29.6184 2.00359 29.9422 2.34958 30.179C2.4515 30.2378 2.56713 30.2688 2.68482 30.2688C2.80252 30.2688 2.91814 30.2378 3.02007 30.179C4.10627 29.2939 4.30742 29.428 5.70205 29.3006C9.47693 28.9721 13.044 29.8437 16.5305 28.8916ZM11.475 17.3457C12.3869 17.0037 13.3323 15.817 13.8217 15.0124C14.8543 13.3294 15.498 10.3189 13.6541 8.97792C13.3774 8.82294 13.0563 8.7664 12.7433 8.81756C12.4303 8.86871 12.1439 9.02452 11.9309 9.25953C11.3476 9.82275 11.4616 10.6005 11.2604 11.452C10.9349 12.3189 10.5215 13.1502 10.0267 13.9329C9.58178 14.619 9.40294 15.444 9.52387 16.2528C9.55332 16.4675 9.63219 16.6725 9.75426 16.8516C9.87633 17.0307 10.0383 17.179 10.2274 17.2849C10.4165 17.3909 10.6276 17.4515 10.844 17.462C11.0605 17.4726 11.2765 17.4327 11.475 17.3457ZM12.5478 33.0487C11.5823 32.8878 10.6034 32.7604 9.63115 32.6732C8.16947 32.5391 5.9099 32.4519 6.94917 34.6847C7.73365 36.3609 10.3016 38.0372 11.9645 38.7948C13.8083 39.6195 16.0545 40.4241 16.5171 37.5611C17.0133 34.5305 15.1895 33.4912 12.5478 33.0487ZM26.5209 36.8839C24.9075 36.0809 23.1267 35.6719 21.3246 35.6904C20.8886 35.7387 20.4785 35.9215 20.1512 36.2134C19.3533 36.9644 19.246 38.6674 20.1512 39.3781C21.5995 40.4912 23.9663 40.0084 25.5889 39.5391C27.2115 39.0697 28.7469 37.95 26.5209 36.8839ZM40.8091 19.8265C39.8973 17.044 38.2344 16.2528 35.4988 17.1445C33.4873 17.815 30.269 20.5305 29.3437 22.3811C28.1904 24.6809 28.7872 27.5573 31.2077 28.7039C33.4002 29.7364 36.9873 30.0449 38.9988 28.4692C41.0103 26.8935 41.607 22.3342 40.8091 19.8265Z" fill="url(#paint23_radial_22_187)"/>
</g>
<defs>
<radialGradient id="paint0_radial_22_187" cx="0" cy="0" r="1" gradientUnits="userSpaceOnUse" gradientTransform="translate(13.976 8.38118) scale(39.7938)">
<stop stop-color="#FFADDB"/>
<stop offset="0.07" stop-color="#FDA1D4"/>
<stop offset="0.2" stop-color="#F880C2"/>
<stop offset="0.37" stop-color="#EF4CA5"/>
<stop offset="0.5" stop-color="#E8218D"/>
<stop offset="0.96" stop-color="#63004E"/>
</radialGradient>
<radialGradient id="paint1_radial_22_187" cx="0" cy="0" r="1" gradientUnits="userSpaceOnUse" gradientTransform="translate(20.4797 16.1924) scale(28.1138 28.1138)">
<stop offset="0.45" stop-color="white"/>
<stop offset="0.5" stop-color="#F8F4F9"/>
<stop offset="0.58" stop-color="#E7D6E8"/>
<stop offset="0.69" stop-color="#CAA6CD"/>
<stop offset="0.83" stop-color="#A263A8"/>
<stop offset="0.97" stop-color="#700F79"/>
<stop offset="1" stop-color="#670070"/>
</radialGradient>
<radialGradient id="paint2_radial_22_187" cx="0" cy="0" r="1" gradientUnits="userSpaceOnUse" gradientTransform="translate(23.6646 22.9846) scale(24.3121 24.3121)">
<stop offset="0.04"/>
<stop offset="0.84"/>
<stop offset="0.85" stop-color="#160B11"/>
<stop offset="0.9" stop-color="#683652"/>
<stop offset="0.93" stop-color="#A95886"/>
<stop offset="0.96" stop-color="#D770AB"/>
<stop offset="0.99" stop-color="#F47FC1"/>
<stop offset="1" stop-color="#FF85CA"/>
</radialGradient>
<radialGradient id="paint3_radial_22_187" cx="0" cy="0" r="1" gradientUnits="userSpaceOnUse" gradientTransform="translate(11.7097 8.52873) scale(40.109 40.109)">
<stop stop-color="#843E8C"/>
<stop offset="1" stop-color="#340E47"/>
</radialGradient>
<radialGradient id="paint4_radial_22_187" cx="0" cy="0" r="1" gradientUnits="userSpaceOnUse" gradientTransform="translate(17.5161 16.2595) scale(14.8246)">
<stop stop-color="#FF8FCD"/>
<stop offset="1"/>
</radialGradient>
<radialGradient id="paint5_radial_22_187" cx="0" cy="0" r="1" gradientUnits="userSpaceOnUse" gradientTransform="translate(12.0785 9.17907) scale(39.2373 39.2373)">
<stop stop-color="#F242F5"/>
<stop offset="1" stop-color="#66005E"/>
</radialGradient>
<radialGradient id="paint6_radial_22_187" cx="0" cy="0" r="1" gradientUnits="userSpaceOnUse" gradientTransform="translate(27.7479 17.406) scale(17.4798)">
<stop stop-color="#F242F5"/>
<stop offset="1" stop-color="#66005E"/>
</radialGradient>
<radialGradient id="paint7_radial_22_187" cx="0" cy="0" r="1" gradientUnits="userSpaceOnUse" gradientTransform="translate(11.9712 11.9616) scale(28.5362 28.5362)">
<stop stop-color="#F946DE"/>
<stop offset="0.12" stop-color="#CC39B6"/>
<stop offset="0.39" stop-color="#5D1A53"/>
<stop offset="0.6"/>
</radialGradient>
<radialGradient id="paint8_radial_22_187" cx="0" cy="0" r="1" gradientUnits="userSpaceOnUse" gradientTransform="translate(10.7911 16.6014) scale(7.69057)">
<stop stop-color="white"/>
<stop offset="0.1" stop-color="#FCF9FC"/>
<stop offset="0.22" stop-color="#F2E9F3"/>
<stop offset="0.36" stop-color="#E2CEE3"/>
<stop offset="0.51" stop-color="#CBA8CE"/>
<stop offset="0.68" stop-color="#AE77B3"/>
<stop offset="0.84" stop-color="#8B3D92"/>
<stop offset="1" stop-color="#670070"/>
</radialGradient>
<radialGradient id="paint9_radial_22_187" cx="0" cy="0" r="1" gradientUnits="userSpaceOnUse" gradientTransform="translate(9.48363 9.29975) scale(26.1023 26.1023)">
<stop stop-color="#FF8FCD"/>
<stop offset="1"/>
</radialGradient>
<radialGradient id="paint10_radial_22_187" cx="0" cy="0" r="1" gradientUnits="userSpaceOnUse" gradientTransform="translate(9.59093 27.8523) scale(10.6676 10.6676)">
<stop stop-color="#FF8FCD"/>
<stop offset="1"/>
</radialGradient>
<radialGradient id="paint11_radial_22_187" cx="0" cy="0" r="1" gradientUnits="userSpaceOnUse" gradientTransform="translate(19.7422 19.0085) scale(26.5248 26.5248)">
<stop offset="0.49" stop-color="white"/>
<stop offset="0.54" stop-color="#FCF9FC"/>
<stop offset="0.61" stop-color="#F2E9F3"/>
<stop offset="0.68" stop-color="#E2CEE3"/>
<stop offset="0.75" stop-color="#CBA8CE"/>
<stop offset="0.84" stop-color="#AE77B3"/>
<stop offset="0.92" stop-color="#8B3D92"/>
<stop offset="1" stop-color="#670070"/>
</radialGradient>
<radialGradient id="paint12_radial_22_187" cx="0" cy="0" r="1" gradientUnits="userSpaceOnUse" gradientTransform="translate(38.4758 0.100627) scale(19.0756 19.0756)">
<stop stop-color="white"/>
<stop offset="0.1" stop-color="#FCF9FC"/>
<stop offset="0.22" stop-color="#F2E9F3"/>
<stop offset="0.36" stop-color="#E2CEE3"/>
<stop offset="0.51" stop-color="#CBA8CE"/>
<stop offset="0.68" stop-color="#AE77B3"/>
<stop offset="0.84" stop-color="#8B3D92"/>
<stop offset="1" stop-color="#670070"/>
</radialGradient>
<radialGradient id="paint13_radial_22_187" cx="0" cy="0" r="1" gradientUnits="userSpaceOnUse" gradientTransform="translate(12.6081 35.5496) scale(7.04019)">
<stop stop-color="white"/>
<stop offset="0.1" stop-color="#FCF9FC"/>
<stop offset="0.22" stop-color="#F2E9F3"/>
<stop offset="0.36" stop-color="#E2CEE3"/>
<stop offset="0.51" stop-color="#CBA8CE"/>
<stop offset="0.68" stop-color="#AE77B3"/>
<stop offset="0.84" stop-color="#8B3D92"/>
<stop offset="1" stop-color="#670070"/>
</radialGradient>
<radialGradient id="paint14_radial_22_187" cx="0" cy="0" r="1" gradientUnits="userSpaceOnUse" gradientTransform="translate(23.4836 37.1119) scale(6.92621 6.92621)">
<stop stop-color="white"/>
<stop offset="0.1" stop-color="#FCF9FC"/>
<stop offset="0.22" stop-color="#F2E9F3"/>
<stop offset="0.36" stop-color="#E2CEE3"/>
<stop offset="0.51" stop-color="#CBA8CE"/>
<stop offset="0.68" stop-color="#AE77B3"/>
<stop offset="0.84" stop-color="#8B3D92"/>
<stop offset="1" stop-color="#670070"/>
</radialGradient>
<radialGradient id="paint15_radial_22_187" cx="0" cy="0" r="1" gradientUnits="userSpaceOnUse" gradientTransform="translate(35.9481 22.4817) scale(13.544)">
<stop stop-color="white"/>
<stop offset="0.1" stop-color="#FCF9FC"/>
<stop offset="0.22" stop-color="#F2E9F3"/>
<stop offset="0.36" stop-color="#E2CEE3"/>
<stop offset="0.51" stop-color="#CBA8CE"/>
<stop offset="0.68" stop-color="#AE77B3"/>
<stop offset="0.84" stop-color="#8B3D92"/>
<stop offset="1" stop-color="#670070"/>
</radialGradient>
<radialGradient id="paint16_radial_22_187" cx="0" cy="0" r="1" gradientUnits="userSpaceOnUse" gradientTransform="translate(10.0133 11.3716) scale(10.1178)">
<stop stop-color="white"/>
<stop offset="0.1" stop-color="#FCF9FC"/>
<stop offset="0.22" stop-color="#F2E9F3"/>
<stop offset="0.36" stop-color="#E2CEE3"/>
<stop offset="0.51" stop-color="#CBA8CE"/>
<stop offset="0.68" stop-color="#AE77B3"/>
<stop offset="0.84" stop-color="#8B3D92"/>
<stop offset="1" stop-color="#670070"/>
</radialGradient>
<radialGradient id="paint17_radial_22_187" cx="0" cy="0" r="1" gradientUnits="userSpaceOnUse" gradientTransform="translate(7.73365 15.3141) scale(13.7652 13.7653)">
<stop stop-color="#F7C7FF"/>
<stop offset="1"/>
</radialGradient>
<radialGradient id="paint18_radial_22_187" cx="0" cy="0" r="1" gradientUnits="userSpaceOnUse" gradientTransform="translate(15.9472 12.2298) scale(7.07372 7.07372)">
<stop stop-color="#F7C7FF"/>
<stop offset="1"/>
</radialGradient>
<radialGradient id="paint19_radial_22_187" cx="0" cy="0" r="1" gradientUnits="userSpaceOnUse" gradientTransform="translate(9.69816 8.89076) scale(7.38885 7.38885)">
<stop stop-color="#F7C7FF"/>
<stop offset="1"/>
</radialGradient>
<radialGradient id="paint20_radial_22_187" cx="0" cy="0" r="1" gradientUnits="userSpaceOnUse" gradientTransform="translate(5.8831 34.8054) scale(8.60244 8.60244)">
<stop stop-color="#F7C7FF"/>
<stop offset="1"/>
</radialGradient>
<radialGradient id="paint21_radial_22_187" cx="0" cy="0" r="1" gradientUnits="userSpaceOnUse" gradientTransform="translate(21.3446 31.7613) scale(7.44249)">
<stop stop-color="#FF8FCD"/>
<stop offset="1"/>
</radialGradient>
<radialGradient id="paint22_radial_22_187" cx="0" cy="0" r="1" gradientUnits="userSpaceOnUse" gradientTransform="translate(28.2373 17.6675) scale(12.726 12.726)">
<stop stop-color="#FF8FCD"/>
<stop offset="1"/>
</radialGradient>
<radialGradient id="paint23_radial_22_187" cx="0" cy="0" r="1" gradientUnits="userSpaceOnUse" gradientTransform="translate(28.7402 24.8686) scale(28.5362 28.5362)">
<stop offset="0.04"/>
<stop offset="0.92"/>
<stop offset="0.93" stop-color="#160B11"/>
<stop offset="0.95" stop-color="#683652"/>
<stop offset="0.97" stop-color="#A95886"/>
<stop offset="0.98" stop-color="#D770AB"/>
<stop offset="0.99" stop-color="#F47FC1"/>
<stop offset="1" stop-color="#FF85CA"/>
</radialGradient>
</defs>
</svg>
