<svg width="123" height="178" viewBox="0 0 123 178" fill="none" xmlns="http://www.w3.org/2000/svg">
<g filter="url(#filter0_d_22_2532)">
<path fill-rule="evenodd" clip-rule="evenodd" d="M59.5042 107.205L65.8816 106.076C65.8816 106.076 66.9895 117.086 59.3872 129.433L58.7816 129.437L59.1731 112.942L57.8969 112.904L59.5042 107.205Z" fill="url(#paint0_linear_22_2532)"/>
<path fill-rule="evenodd" clip-rule="evenodd" d="M36.6563 107.364L30.0887 106.278C30.0887 106.278 29.1293 117.3 36.8622 129.56L37.4679 129.557L36.8904 113.067L38.1579 113.015L36.6563 107.364Z" fill="url(#paint1_linear_22_2532)"/>
<path fill-rule="evenodd" clip-rule="evenodd" d="M47.538 35.8827C39.2688 35.9293 26.4242 54.4862 27.5508 71.6728C28.6773 88.8595 37.3675 114.067 37.3675 114.067L47.9629 114.104L58.5532 113.947C58.5532 113.947 66.9424 88.6437 67.8953 71.4454C68.8481 54.247 55.7507 35.8364 47.538 35.8827Z" fill="url(#paint2_radial_22_2532)"/>
<path fill-rule="evenodd" clip-rule="evenodd" d="M37.3837 114.066C37.3837 114.066 49.4386 113.006 58.5694 113.947C58.5694 113.947 46.7451 115.099 37.3837 114.066Z" fill="#31165F"/>
<path fill-rule="evenodd" clip-rule="evenodd" d="M36.4743 43.7274C36.4743 43.7274 48.1641 40.2214 59.3366 44.4969C59.3366 44.4969 53.5384 35.92 47.5381 35.8827C42.1234 35.887 36.4743 43.7274 36.4743 43.7274Z" fill="url(#paint3_radial_22_2532)"/>
<path d="M59.3008 44.5831C48.9126 40.4941 36.6239 43.7789 36.5151 43.8169L36.4576 43.6376C36.5785 43.607 48.9559 40.2954 59.3886 44.4104L59.3008 44.5831Z" fill="#53345F"/>
<path fill-rule="evenodd" clip-rule="evenodd" d="M44.7595 36.5085L50.955 36.7618C50.955 36.7618 47.8019 34.7021 44.7595 36.5085Z" fill="#53345F"/>
<path fill-rule="evenodd" clip-rule="evenodd" d="M45.6181 36.2417C46.7695 36.0634 47.9413 36.0291 49.1022 36.1397C49.1022 36.1397 48.4043 33.396 47.358 33.3083C46.3117 33.2207 45.6181 36.2417 45.6181 36.2417Z" fill="url(#paint4_linear_22_2532)"/>
<path style="mix-blend-mode:multiply" opacity="0.5" fill-rule="evenodd" clip-rule="evenodd" d="M32.3757 97.4033C32.3757 97.4033 50.2158 91.8675 63.7636 95.6093C62.0437 102.802 58.5532 113.947 58.5532 113.947C58.5532 113.947 50.4719 112.941 37.3675 114.067C37.3837 114.067 34.0381 105.794 32.3757 97.4033Z" fill="url(#paint5_radial_22_2532)"/>
<path style="mix-blend-mode:multiply" opacity="0.5" fill-rule="evenodd" clip-rule="evenodd" d="M46.9177 48.314C39.4591 48.895 34.192 57.175 33.8894 64.3826C33.5869 71.5901 40.7059 75.9484 48.2672 75.6924C55.8286 75.4364 62.068 70.5873 61.1594 62.709C60.336 55.5902 55.1956 47.6721 46.9177 48.314Z" fill="url(#paint6_radial_22_2532)"/>
<path fill-rule="evenodd" clip-rule="evenodd" d="M46.9112 47.1723C39.4526 47.7534 34.1856 56.0296 33.8829 63.226C33.5803 70.4223 40.6993 74.7918 48.2607 74.5358C55.8221 74.2798 62.0615 69.4344 61.153 61.5637C60.3295 54.4448 55.1892 46.5267 46.9112 47.1723Z" fill="#31165F"/>
<path fill-rule="evenodd" clip-rule="evenodd" d="M46.9067 46.3712C39.4481 46.9523 34.181 55.2323 33.8784 62.4286C33.5757 69.6249 40.6948 73.9944 48.2562 73.7384C55.8176 73.4824 62.0569 68.6371 61.1484 60.7626C60.325 53.6474 55.1846 45.7294 46.9067 46.3712Z" fill="url(#paint7_radial_22_2532)"/>
<path fill-rule="evenodd" clip-rule="evenodd" d="M47.4137 48.9251C40.7295 49.3371 37.4147 55.8392 37.1799 61.4592C36.9451 67.0793 42.5324 70.4766 48.475 70.2896C54.4176 70.1027 59.3183 66.3093 58.6053 60.163C57.9764 54.604 54.3967 48.4889 47.4137 48.9251Z" fill="#A6345F"/>
<path fill-rule="evenodd" clip-rule="evenodd" d="M54.7221 68.2368C52.8972 69.4634 50.711 70.1421 48.4583 70.1812C42.8063 70.3591 36.9677 66.7947 37.192 61.448C37.266 59.6208 37.7064 57.8221 38.4905 56.1439C40.0305 52.8523 43.0117 50.2114 47.4513 49.857C53.9896 49.3335 57.4713 55.2657 58.0866 60.5515C58.4813 63.9482 57.0749 66.5877 54.7221 68.2368Z" fill="url(#paint8_linear_22_2532)"/>
<path d="M48.3051 74.5355L48.1032 74.5367L48.2159 94.5141L48.4178 94.5129L48.3051 74.5355Z" fill="#53345F"/>
<path d="M32.4206 97.4929L32.3753 97.3322C52.7992 91.7218 63.7226 95.5046 63.8318 95.5414L63.7561 95.7178C63.6387 95.6586 52.772 91.9054 32.4206 97.4929Z" fill="#53345F"/>
<path d="M30.7841 90.8353L30.6742 90.6788C30.7346 90.641 37.0402 86.7947 48.2658 86.17L48.2668 86.3571C37.1098 86.9778 30.8445 90.7976 30.7841 90.8353Z" fill="#53345F"/>
<path fill-rule="evenodd" clip-rule="evenodd" d="M50.8649 108.873L50.5175 100.254L53.0579 99.6412L52.8595 108.862L50.8649 108.873Z" fill="#31165F"/>
<path fill-rule="evenodd" clip-rule="evenodd" d="M39.137 114.233C45.1944 113.715 51.2865 113.649 57.3545 114.036L56.8312 117.906L39.6646 117.576L39.137 114.233Z" fill="url(#paint9_radial_22_2532)"/>
<path opacity="0.5" fill-rule="evenodd" clip-rule="evenodd" d="M39.405 115.931C41.6515 114.897 44.1292 114.37 46.6361 114.392C50.7671 114.452 56.9513 117.007 56.9513 117.007L57.3383 114.036C57.3383 114.036 47.5056 113.205 39.1208 114.218L39.405 115.931Z" fill="#31165F"/>
<path d="M51.5508 52.1959C52.7655 53.3065 53.7753 54.5944 54.54 56.0084L55.961 55.2293C55.961 55.2293 54.8529 52.7725 52.7888 51.9231L51.5508 52.1959Z" fill="white"/>
<path d="M39.2692 63.1918L40.4672 65.1241L39.2838 65.7821L38.4227 64.1661L39.2692 63.1918Z" fill="white"/>
<path style="mix-blend-mode:multiply" opacity="0.5" fill-rule="evenodd" clip-rule="evenodd" d="M34.1117 47.2332C34.1117 47.2332 45.7893 41.5524 61.0873 47.0587L59.3528 44.4968C59.3528 44.4968 50.5048 40.7061 36.4742 43.7274L34.1117 47.2332Z" fill="url(#paint10_radial_22_2532)"/>
<path d="M47.0738 88.1793C47.4395 88.1772 47.7344 87.9007 47.7325 87.5617C47.7306 87.2226 47.4326 86.9495 47.0668 86.9515C46.7011 86.9536 46.4062 87.2301 46.4081 87.5691C46.41 87.9082 46.7081 88.1814 47.0738 88.1793Z" fill="url(#paint11_linear_22_2532)"/>
<path fill-rule="evenodd" clip-rule="evenodd" d="M47.5953 87.5625C47.5966 87.6589 47.567 87.7535 47.5103 87.8343C47.4536 87.9151 47.3722 87.9786 47.2766 88.0165C47.181 88.0545 47.0754 88.0652 46.9732 88.0474C46.871 88.0297 46.7768 87.9841 46.7026 87.9167C46.6284 87.8492 46.5775 87.7628 46.5564 87.6684C46.5353 87.574 46.5449 87.4759 46.584 87.3866C46.6231 87.2972 46.69 87.2206 46.7761 87.1665C46.8622 87.1123 46.9637 87.0831 47.0676 87.0826C47.2062 87.0818 47.3393 87.1318 47.4382 87.2217C47.537 87.3116 47.5935 87.4341 47.5953 87.5625Z" fill="url(#paint12_radial_22_2532)"/>
<path d="M47.0567 85.1473C47.4224 85.1452 47.7173 84.8687 47.7154 84.5297C47.7135 84.1906 47.4155 83.9175 47.0498 83.9195C46.6841 83.9216 46.3892 84.1981 46.3911 84.5371C46.393 84.8762 46.691 85.1494 47.0567 85.1473Z" fill="url(#paint13_linear_22_2532)"/>
<path fill-rule="evenodd" clip-rule="evenodd" d="M47.5781 84.5193C47.5786 84.6155 47.5483 84.7098 47.4911 84.7901C47.4339 84.8705 47.3523 84.9333 47.2566 84.9707C47.1609 85.008 47.0554 85.0183 46.9534 85.0001C46.8515 84.9819 46.7577 84.936 46.6839 84.8684C46.6101 84.8008 46.5597 84.7143 46.5389 84.6201C46.5181 84.5258 46.5279 84.4279 46.5672 84.3387C46.6064 84.2496 46.6732 84.1732 46.7593 84.1193C46.8453 84.0653 46.9466 84.0362 47.0504 84.0356C47.1896 84.0348 47.3234 84.0853 47.4224 84.176C47.5213 84.2667 47.5773 84.3902 47.5781 84.5193Z" fill="url(#paint14_radial_22_2532)"/>
<path fill-rule="evenodd" clip-rule="evenodd" d="M36.685 63.9215C36.6865 64.0439 36.6487 64.1641 36.5764 64.2666C36.5041 64.3692 36.4005 64.4495 36.2789 64.4974C36.1572 64.5453 36.023 64.5586 35.8933 64.5356C35.7635 64.5126 35.6441 64.4544 35.5502 64.3683C35.4563 64.2822 35.3922 64.1722 35.3659 64.0522C35.3397 63.9322 35.3525 63.8076 35.4028 63.6943C35.4531 63.581 35.5385 63.4841 35.6483 63.4159C35.7581 63.3477 35.8873 63.3113 36.0194 63.3113C36.1947 63.3113 36.3629 63.3753 36.4875 63.4896C36.6121 63.6038 36.6831 63.7589 36.685 63.9215Z" fill="#31165F"/>
<path fill-rule="evenodd" clip-rule="evenodd" d="M36.5437 63.9221C36.5451 64.0187 36.5154 64.1134 36.4585 64.1944C36.4016 64.2753 36.32 64.3387 36.2241 64.3765C36.1282 64.4144 36.0224 64.4249 35.9201 64.4068C35.8178 64.3888 35.7237 64.3429 35.6496 64.275C35.5756 64.2071 35.525 64.1204 35.5044 64.0257C35.4837 63.9311 35.4939 63.8329 35.5336 63.7436C35.5733 63.6543 35.6408 63.578 35.7275 63.5243C35.8141 63.4706 35.916 63.442 36.0201 63.4422C36.158 63.4424 36.2901 63.4928 36.3881 63.5826C36.486 63.6724 36.5419 63.7944 36.5437 63.9221Z" fill="url(#paint15_radial_22_2532)"/>
<path d="M37.1401 55.8333C37.5058 55.8312 37.8007 55.5547 37.7988 55.2156C37.7969 54.8766 37.4989 54.6034 37.1332 54.6055C36.7675 54.6075 36.4726 54.8841 36.4745 55.2231C36.4764 55.5621 36.7744 55.8353 37.1401 55.8333Z" fill="#31165F"/>
<path fill-rule="evenodd" clip-rule="evenodd" d="M37.6575 55.2164C37.6589 55.313 37.6292 55.4077 37.5723 55.4887C37.5154 55.5696 37.4338 55.633 37.3379 55.6708C37.2421 55.7087 37.1363 55.7192 37.034 55.7011C36.9317 55.683 36.8375 55.6372 36.7635 55.5693C36.6894 55.5014 36.6389 55.4147 36.6182 55.32C36.5975 55.2254 36.6077 55.1272 36.6475 55.0379C36.6872 54.9486 36.7547 54.8723 36.8413 54.8186C36.9279 54.7649 37.0298 54.7363 37.134 54.7365C37.2721 54.7357 37.4049 54.7858 37.5031 54.8758C37.6013 54.9659 37.6568 55.0884 37.6575 55.2164Z" fill="url(#paint16_radial_22_2532)"/>
<path fill-rule="evenodd" clip-rule="evenodd" d="M42.9297 70.7589C42.9312 70.8813 42.8934 71.0015 42.8211 71.104C42.7488 71.2066 42.6452 71.2869 42.5236 71.3348C42.4019 71.3827 42.2677 71.396 42.138 71.373C42.0082 71.35 41.8888 71.2918 41.7949 71.2057C41.701 71.1197 41.6369 71.0096 41.6106 70.8896C41.5843 70.7696 41.5972 70.645 41.6475 70.5317C41.6978 70.4184 41.7832 70.3215 41.893 70.2533C42.0028 70.1851 42.132 70.1487 42.2641 70.1487C42.4394 70.1487 42.6076 70.2128 42.7322 70.327C42.8568 70.4412 42.9278 70.5964 42.9297 70.7589Z" fill="#31165F"/>
<path fill-rule="evenodd" clip-rule="evenodd" d="M42.7884 70.7597C42.789 70.8561 42.7586 70.9505 42.7012 71.0309C42.6438 71.1113 42.5619 71.1741 42.466 71.2114C42.37 71.2487 42.2643 71.2587 42.1623 71.2402C42.0603 71.2217 41.9665 71.1755 41.8929 71.1075C41.8192 71.0394 41.7691 70.9527 41.7487 70.8581C41.7284 70.7636 41.7388 70.6656 41.7787 70.5765C41.8185 70.4874 41.886 70.4113 41.9725 70.3578C42.0591 70.3043 42.1608 70.2758 42.2648 70.276C42.3335 70.2756 42.4017 70.2878 42.4653 70.312C42.5289 70.3361 42.5867 70.3717 42.6353 70.4166C42.684 70.4616 42.7226 70.5151 42.7489 70.5739C42.7751 70.6328 42.7886 70.6959 42.7884 70.7597Z" fill="url(#paint17_radial_22_2532)"/>
<path fill-rule="evenodd" clip-rule="evenodd" d="M53.2017 71.4384C53.2032 71.5609 53.1653 71.681 53.093 71.7836C53.0207 71.8861 52.9171 71.9665 52.7955 72.0144C52.6739 72.0622 52.5397 72.0756 52.4099 72.0526C52.2802 72.0296 52.1608 71.9714 52.0669 71.8853C51.973 71.7992 51.9088 71.6892 51.8825 71.5692C51.8563 71.4492 51.8691 71.3246 51.9194 71.2113C51.9697 71.098 52.0552 71.0011 52.165 70.9329C52.2748 70.8647 52.4039 70.8283 52.536 70.8283C52.7113 70.8283 52.8795 70.8923 53.0041 71.0065C53.1287 71.1207 53.1997 71.2759 53.2017 71.4384Z" fill="#31165F"/>
<path fill-rule="evenodd" clip-rule="evenodd" d="M53.0603 71.4391C53.0617 71.5357 53.032 71.6305 52.9751 71.7114C52.9182 71.7923 52.8366 71.8557 52.7407 71.8935C52.6449 71.9314 52.5391 71.9419 52.4368 71.9238C52.3345 71.9058 52.2403 71.8599 52.1663 71.792C52.0922 71.7241 52.0417 71.6374 52.021 71.5428C52.0003 71.4481 52.0105 71.3499 52.0503 71.2606C52.09 71.1713 52.1575 71.095 52.2441 71.0413C52.3307 70.9876 52.4326 70.9591 52.5368 70.9592C52.6746 70.9594 52.8067 71.0099 52.9047 71.0996C53.0027 71.1894 53.0586 71.3114 53.0603 71.4391Z" fill="url(#paint18_radial_22_2532)"/>
<path fill-rule="evenodd" clip-rule="evenodd" d="M60.1223 65.6647C60.1238 65.787 60.086 65.907 60.0139 66.0094C59.9418 66.1119 59.8384 66.1922 59.717 66.2402C59.5956 66.2882 59.4616 66.3018 59.332 66.2791C59.2024 66.2564 59.083 66.1986 58.9889 66.1129C58.8948 66.0272 58.8304 65.9175 58.8036 65.7977C58.7769 65.6779 58.7892 65.5535 58.8389 65.4401C58.8885 65.3268 58.9734 65.2296 59.0826 65.161C59.1919 65.0923 59.3206 65.0553 59.4526 65.0545C59.6286 65.0535 59.7978 65.1171 59.9233 65.2314C60.0487 65.3458 60.1203 65.5015 60.1223 65.6647Z" fill="#31165F"/>
<path fill-rule="evenodd" clip-rule="evenodd" d="M59.9809 65.6654C59.9815 65.7617 59.9512 65.8559 59.894 65.9363C59.8368 66.0166 59.7551 66.0794 59.6594 66.1168C59.5637 66.1542 59.4582 66.1644 59.3563 66.1462C59.2544 66.128 59.1606 66.0822 59.0868 66.0146C59.013 65.9469 58.9625 65.8605 58.9417 65.7662C58.921 65.6719 58.9308 65.574 58.97 65.4849C59.0093 65.3957 59.0761 65.3194 59.1621 65.2654C59.2481 65.2115 59.3495 65.1823 59.4533 65.1818C59.5925 65.181 59.7263 65.2315 59.8252 65.3222C59.9242 65.4129 59.9802 65.5364 59.9809 65.6654Z" fill="url(#paint19_radial_22_2532)"/>
<path fill-rule="evenodd" clip-rule="evenodd" d="M58.9949 54.7779C58.9956 54.8993 58.9574 55.0182 58.8852 55.1196C58.813 55.2209 58.71 55.3002 58.5893 55.3474C58.4686 55.3945 58.3355 55.4074 58.2069 55.3844C58.0783 55.3615 57.96 55.3037 57.8669 55.2183C57.7738 55.133 57.7101 55.024 57.6839 54.905C57.6577 54.7861 57.6701 54.6626 57.7196 54.5501C57.7691 54.4377 57.8534 54.3413 57.9619 54.2733C58.0704 54.2052 58.1983 54.1685 58.3292 54.1677C58.5049 54.1667 58.6736 54.2305 58.7985 54.3449C58.9233 54.4593 58.994 54.6151 58.9949 54.7779Z" fill="#31165F"/>
<path fill-rule="evenodd" clip-rule="evenodd" d="M58.8535 54.7788C58.8532 54.8741 58.8225 54.9673 58.7653 55.0465C58.708 55.1258 58.6267 55.1875 58.5317 55.2241C58.4366 55.2606 58.3321 55.2702 58.2312 55.2517C58.1303 55.2332 58.0377 55.1875 57.9648 55.1202C57.892 55.0529 57.8423 54.9672 57.822 54.8737C57.8017 54.7802 57.8117 54.6833 57.8508 54.5951C57.8898 54.5068 57.9561 54.4312 58.0414 54.3779C58.1267 54.3245 58.2271 54.2957 58.3299 54.2951C58.3986 54.2947 58.4668 54.3069 58.5304 54.3311C58.594 54.3552 58.6518 54.3908 58.7004 54.4358C58.7491 54.4807 58.7877 54.5342 58.814 54.5931C58.8402 54.6519 58.8537 54.7151 58.8535 54.7788Z" fill="url(#paint20_radial_22_2532)"/>
<path d="M53.0797 49.8066C53.4454 49.8045 53.7403 49.528 53.7384 49.1889C53.7365 48.8499 53.4385 48.5767 53.0728 48.5788C52.7071 48.5808 52.4122 48.8574 52.4141 49.1964C52.416 49.5355 52.714 49.8086 53.0797 49.8066Z" fill="#31165F"/>
<path fill-rule="evenodd" clip-rule="evenodd" d="M53.5971 49.1897C53.5977 49.2852 53.5677 49.3787 53.5109 49.4585C53.4541 49.5382 53.3731 49.6005 53.2781 49.6376C53.1832 49.6747 53.0785 49.6849 52.9773 49.6668C52.8762 49.6487 52.7831 49.6033 52.7099 49.5362C52.6367 49.469 52.5866 49.3833 52.566 49.2897C52.5453 49.1962 52.5551 49.099 52.594 49.0106C52.633 48.9221 52.6993 48.8463 52.7846 48.7928C52.87 48.7392 52.9705 48.7103 53.0736 48.7098C53.2114 48.71 53.3435 48.7604 53.4415 48.8502C53.5395 48.94 53.5954 49.0619 53.5971 49.1897Z" fill="url(#paint21_radial_22_2532)"/>
<path d="M44.2766 48.9764C44.6423 48.9744 44.9372 48.6978 44.9353 48.3588C44.9334 48.0198 44.6354 47.7466 44.2697 47.7487C43.904 47.7507 43.6091 48.0272 43.611 48.3663C43.6129 48.7053 43.9109 48.9785 44.2766 48.9764Z" fill="#31165F"/>
<path fill-rule="evenodd" clip-rule="evenodd" d="M44.794 48.3597C44.7946 48.4552 44.7645 48.5487 44.7077 48.6284C44.651 48.7082 44.57 48.7705 44.475 48.8076C44.38 48.8447 44.2754 48.8548 44.1742 48.8368C44.0731 48.8187 43.98 48.7732 43.9068 48.7061C43.8336 48.639 43.7835 48.5532 43.7628 48.4597C43.7422 48.3661 43.752 48.269 43.7909 48.1805C43.8298 48.0921 43.8962 48.0163 43.9815 47.9628C44.0669 47.9092 44.1674 47.8803 44.2704 47.8797C44.4086 47.879 44.5413 47.9291 44.6395 48.0191C44.7377 48.1091 44.7933 48.2316 44.794 48.3597Z" fill="url(#paint22_radial_22_2532)"/>
<path fill-rule="evenodd" clip-rule="evenodd" d="M34.1547 122.17L34.6432 122.167L34.0616 105.659L33.5772 105.68L34.1547 122.17Z" fill="#6F2561"/>
<path fill-rule="evenodd" clip-rule="evenodd" d="M62.164 105.519L61.6794 105.503L61.4454 122.016L61.7725 122.015L62.164 105.519Z" fill="#6F2561"/>
<path fill-rule="evenodd" clip-rule="evenodd" d="M52.5052 96.1519L54.2495 96.142L52.6513 122.066L51.436 122.073L52.5052 96.1519Z" fill="url(#paint23_linear_22_2532)"/>
<path fill-rule="evenodd" clip-rule="evenodd" d="M52.5052 96.1519L51.3222 101.893L51.436 122.073L52.5052 96.1519Z" fill="#FF4C61"/>
<path opacity="0.5" fill-rule="evenodd" clip-rule="evenodd" d="M54.2015 96.9397L58.5694 113.947L54.3488 113.758L54.3195 117.872L52.9104 117.88L54.2015 96.9397Z" fill="#31165F"/>
<path d="M32.7951 52.1893C32.7951 52.1893 32.6114 50.4085 33.8246 49.3012L34.8181 49.3405C34.3622 50.3134 33.8513 51.2634 33.2877 52.1866L32.7951 52.1893Z" fill="white"/>
<g style="mix-blend-mode:soft-light">
<path d="M63.7551 91.2371L65.5367 83.5196L66.0495 83.5167L64.3567 91.2337L63.7551 91.2371Z" fill="white"/>
</g>
<path fill-rule="evenodd" clip-rule="evenodd" d="M65.6603 56.7393C65.6603 56.7393 68.7417 56.1267 66.5117 59.497L65.6603 56.7393Z" fill="url(#paint24_linear_22_2532)"/>
<path fill-rule="evenodd" clip-rule="evenodd" d="M29.7509 56.5449C29.7509 56.5449 26.9008 57.3583 28.9301 59.2111L29.7509 56.5449Z" fill="url(#paint25_linear_22_2532)"/>
<g style="mix-blend-mode:soft-light" opacity="0.5">
<path fill-rule="evenodd" clip-rule="evenodd" d="M40.3739 113.758C40.3739 113.758 32.2829 90.9691 29.0698 73.959L28.2965 74.3189C28.2965 74.3189 32.1869 100.444 37.8074 114.03L40.3739 113.758Z" fill="white"/>
</g>
<g style="mix-blend-mode:soft-light">
<path fill-rule="evenodd" clip-rule="evenodd" d="M65.8094 81.7662L66.6991 77.0109L67.1837 77.0082L66.2939 81.7635L65.8094 81.7662Z" fill="white"/>
</g>
<g style="mix-blend-mode:soft-light">
<path fill-rule="evenodd" clip-rule="evenodd" d="M33.7251 89.662C33.7251 89.662 38.99 87.4463 44.0185 86.9837C44.0265 86.9687 39.0135 88.0338 33.7251 89.662Z" fill="white"/>
</g>
<g style="mix-blend-mode:soft-light">
<path fill-rule="evenodd" clip-rule="evenodd" d="M48.461 76.3989L48.6849 93.9088C48.6849 93.9088 48.9802 87.5547 48.461 76.3989Z" fill="white"/>
</g>
<g style="mix-blend-mode:soft-light">
<path fill-rule="evenodd" clip-rule="evenodd" d="M36.2074 96.6556C36.2074 96.6556 48.7614 93.1597 60.8303 95.2889C60.8304 95.3002 51.8794 93.3068 36.2074 96.6556Z" fill="white"/>
</g>
<path fill-rule="evenodd" clip-rule="evenodd" d="M38.7543 50.6585C38.7543 50.6585 40.4739 51.2889 41.4585 48.3149C40.458 48.9915 39.5499 49.7785 38.7543 50.6585Z" fill="white"/>
<g style="mix-blend-mode:soft-light">
<path fill-rule="evenodd" clip-rule="evenodd" d="M49.7576 73.629C49.7576 73.629 53.8709 73.4036 58.717 69.2399C58.717 69.2399 55.8191 73.0295 49.7576 73.629Z" fill="white"/>
</g>
<g style="mix-blend-mode:soft-light">
<path fill-rule="evenodd" clip-rule="evenodd" d="M48.1803 70.2913C48.1803 70.2913 51.7839 72.0603 54.2283 68.7599C54.2243 68.7599 52.3234 70.3616 48.1803 70.2913Z" fill="white"/>
</g>
<g style="mix-blend-mode:soft-light" opacity="0.36">
<path fill-rule="evenodd" clip-rule="evenodd" d="M47.524 77.7815C47.3107 77.9175 46.904 78.107 46.9743 78.4098C47.0074 78.5481 47.0969 78.6674 47.1421 78.8019C47.1862 78.9229 47.214 79.0484 47.225 79.1757C47.2507 79.3785 47.3355 79.5708 47.4704 79.7321C47.5719 79.8289 47.6723 79.731 47.7404 79.6333C47.8216 79.5376 47.8739 79.4236 47.8919 79.303C47.8929 79.143 47.9123 78.9835 47.9498 78.8273C47.9495 78.7674 48.0138 78.7146 48.0296 78.6509C48.0391 78.5637 48.0386 78.4759 48.0281 78.3889C48.023 78.2515 47.9716 78.119 47.8812 78.0101C47.7908 77.9012 47.6659 77.8213 47.524 77.7815Z" fill="white"/>
<path fill-rule="evenodd" clip-rule="evenodd" d="M46.6701 80.3094C46.6563 80.2744 46.6534 80.2365 46.6618 80.2C46.6702 80.1636 46.6894 80.13 46.7174 80.1032C47.0364 80.1014 47.1528 80.6922 46.8546 80.8062C46.5565 80.9202 46.4491 80.5015 46.5692 80.3099L46.6701 80.3094Z" fill="white"/>
<path fill-rule="evenodd" clip-rule="evenodd" d="M40.8285 84.0782C40.9936 84.0024 41.1303 83.8968 41.3163 83.9369C41.4747 83.9683 41.6173 84.0479 41.7213 84.163C41.8375 84.3045 41.9196 84.4674 41.9622 84.6408C42.0049 84.7193 42.0209 84.8079 42.0081 84.8951C41.933 85.0652 41.8161 85.2168 41.6668 85.3379C41.5175 85.4589 41.3398 85.5461 41.1479 85.5924C40.9593 85.6598 40.7632 85.7073 40.5632 85.7342C40.4219 85.735 40.2808 85.7658 40.1598 85.7889C40.0483 85.8241 39.9298 85.8363 39.8127 85.8246C39.7141 85.7926 39.6223 85.745 39.5414 85.6838C39.4283 85.6116 39.3364 85.5144 39.2737 85.4011C39.2111 85.2878 39.1797 85.1619 39.1824 85.0345C39.1799 84.5816 39.7794 84.2189 40.1741 84.0332C40.4639 83.8781 40.9797 83.688 40.8285 84.0782Z" fill="white"/>
<path fill-rule="evenodd" clip-rule="evenodd" d="M42.3553 83.4519C42.3075 83.5832 42.2674 83.6208 42.3808 83.6913C42.423 83.7148 42.4705 83.7289 42.5196 83.7325C42.5686 83.7361 42.6179 83.7291 42.6636 83.7122C42.8329 83.6588 43.0455 83.418 42.9195 83.2578C42.8544 83.1758 42.7001 83.0307 42.5951 83.02C42.478 83.0326 42.3693 83.0828 42.2879 83.1619C42.2065 83.241 42.1574 83.344 42.1493 83.453L42.3553 83.4519Z" fill="white"/>
<path fill-rule="evenodd" clip-rule="evenodd" d="M48.7557 87.8366C48.7329 87.9031 48.7237 87.973 48.7286 88.0426C48.7296 88.2186 48.7306 88.3945 48.7316 88.5704C48.7335 88.9036 48.6828 89.2333 48.6847 89.5664C48.6908 89.8064 48.7191 90.0455 48.7695 90.2809C48.7702 90.4007 48.8194 90.5314 48.8483 90.6548C48.8806 90.6546 48.8843 90.5835 48.8962 90.5572C48.9401 90.4634 48.9678 90.3621 49.0198 90.2757C49.1358 90.0767 49.2517 89.8702 49.3475 89.6637C49.3619 89.6234 49.3806 89.5844 49.4033 89.5474C49.4403 89.5034 49.4806 89.4619 49.5238 89.4232C49.5945 89.3505 49.6526 89.2681 49.696 89.1789C49.7756 88.9597 49.8033 88.7271 49.777 88.4972C49.7766 88.4223 49.7479 88.3513 49.7474 88.2727C49.747 88.1941 49.7466 88.1155 49.7461 88.0332C49.7088 87.8597 49.6352 87.6948 49.5294 87.5477C49.4193 87.3724 49.2924 87.0662 49.0499 87.0189C48.9286 86.9934 48.8849 87.1172 48.8693 87.2071C48.8536 87.297 48.8463 87.4356 48.8308 87.5479C48.8153 87.6603 48.7398 87.8816 48.7557 87.8366Z" fill="white"/>
<path fill-rule="evenodd" clip-rule="evenodd" d="M49.0013 86.278C49.0533 86.1917 49.1251 86.0378 49.2625 86.0632C49.4 86.0886 49.401 86.2683 49.3854 86.3657C49.3503 86.5943 49.0301 86.3677 49.0493 86.2067L49.0013 86.278Z" fill="white"/>
<path fill-rule="evenodd" clip-rule="evenodd" d="M51.432 87.7055C51.3781 87.7861 51.3559 87.8814 51.3689 87.9754C51.3821 88.0374 51.4196 88.0927 51.4743 88.1305C51.529 88.1682 51.597 88.1857 51.6649 88.1796C51.891 88.1783 52.0441 88.1288 52.0914 87.9152C52.0963 87.8367 52.0832 87.7581 52.0528 87.6847C52.0225 87.6113 51.9756 87.5447 51.9153 87.4894C51.8645 87.446 51.7984 87.4211 51.7292 87.4193C51.5879 87.4201 51.5238 87.5103 51.4557 87.6118L51.432 87.7055Z" fill="white"/>
<path fill-rule="evenodd" clip-rule="evenodd" d="M56.5849 94.2722C56.9212 94.108 57.2768 93.9803 57.6447 93.8919C57.9674 93.8302 58.2986 93.8583 58.6255 93.8265C59.0805 93.7607 59.5294 93.6631 59.9685 93.5344C60.3502 93.4247 60.7556 93.4056 61.1472 93.4791C61.3077 93.5097 61.4594 93.5711 61.5928 93.6593C61.7261 93.7475 61.838 93.8606 61.9213 93.9914C62.0095 94.1567 62.0665 94.3349 62.0898 94.5182C62.0903 94.6043 62.0908 94.6867 62.1195 94.7688C62.1354 94.8188 62.1452 94.8702 62.1486 94.9222C62.1491 95.0045 62.1128 95.0047 62.028 95.0052C61.8864 95.0128 61.7456 94.981 61.6237 94.9139C61.3999 94.8062 61.1577 94.7354 60.9078 94.7046C60.6694 94.6685 60.4389 94.6174 60.2006 94.5925L59.4895 94.5142L58.8793 94.4315C58.6813 94.4064 58.4754 94.4076 58.2734 94.3937C58.0714 94.3799 57.9383 94.3956 57.7687 94.3966C57.6651 94.3916 57.5613 94.3922 57.4578 94.3983C57.3758 94.4045 57.2935 94.405 57.2115 94.3997C57.1322 94.3945 57.0525 94.395 56.9733 94.4011C56.8391 94.3716 56.7088 94.3284 56.5849 94.2722Z" fill="white"/>
<path fill-rule="evenodd" clip-rule="evenodd" d="M58.7293 92.8901C58.677 92.9278 58.6086 92.9656 58.5968 93.0256C58.591 93.0578 58.5911 93.0907 58.5974 93.1229C58.6345 93.2612 58.8849 93.2673 59.002 93.2703C59.3618 93.2792 59.712 93.1608 59.9813 92.9391C60.0716 92.8614 60.1415 92.7655 60.1857 92.6588C60.2299 92.5522 60.2472 92.4376 60.2362 92.3238C60.1819 92.1855 60.0872 92.064 59.9626 91.9728C59.838 91.8816 59.6885 91.8244 59.5308 91.8075C59.385 91.7642 59.2302 91.7539 59.0793 91.7776C58.9284 91.8012 58.7858 91.8581 58.6634 91.9434C58.5817 92.0122 58.528 92.1051 58.5114 92.2063C58.5155 92.2829 58.5254 92.3591 58.541 92.4344C58.5416 92.5392 58.4856 92.6331 58.5427 92.7339C58.5853 92.8031 58.6507 92.8578 58.7293 92.8901Z" fill="white"/>
<path fill-rule="evenodd" clip-rule="evenodd" d="M60.7685 92.901C60.7569 92.8727 60.7548 92.8418 60.7626 92.8123C60.7703 92.7829 60.7875 92.7563 60.812 92.7361C60.8321 92.7042 60.8645 92.6806 60.9026 92.6699C60.9408 92.6593 60.9818 92.6624 61.0176 92.6788C61.0491 92.6855 61.0786 92.6985 61.1041 92.7169C61.1296 92.7353 61.1505 92.7586 61.1652 92.7853C61.18 92.8119 61.1883 92.8412 61.1896 92.8712C61.1908 92.9011 61.185 92.931 61.1726 92.9586C61.1492 92.9938 61.1166 93.0229 61.0779 93.0434C61.0393 93.0639 60.9957 93.0751 60.9512 93.0759C60.9033 93.0787 60.856 93.0662 60.8169 93.0405C60.7778 93.0149 60.7494 92.9776 60.7364 92.9349L60.7685 92.901Z" fill="white"/>
<path fill-rule="evenodd" clip-rule="evenodd" d="M63.3583 86.0286C63.2466 86.061 63.1519 86.131 63.0929 86.2248C63.0762 86.2495 63.0674 86.2781 63.0676 86.3073C63.0677 86.3365 63.0769 86.365 63.0939 86.3895C63.1951 86.5621 63.361 86.6943 63.5603 86.7612C63.6264 86.7815 63.6963 86.7891 63.7657 86.7836C63.8351 86.7781 63.9025 86.7595 63.9639 86.729C64.067 86.6593 64.1566 86.574 64.229 86.4767C64.3003 86.401 64.3672 86.3219 64.4295 86.2397C64.4946 86.1795 64.5373 86.1016 64.5513 86.0173C64.5654 85.9331 64.5501 85.8469 64.5077 85.7714C64.4531 85.6943 64.3785 85.6313 64.2908 85.5879C64.2031 85.5446 64.105 85.5224 64.0056 85.5234C63.8716 85.5368 63.743 85.5799 63.6308 85.649C63.4938 85.7134 63.4012 85.7514 63.3583 86.0286Z" fill="white"/>
<path fill-rule="evenodd" clip-rule="evenodd" d="M62.6719 86.7437C62.7747 86.749 62.8752 86.7739 62.9671 86.8169C62.9673 86.8581 63.0199 86.8803 63 86.9328C62.9801 86.9853 62.8469 86.9823 62.7863 86.9789C62.7104 86.9757 62.6384 86.9468 62.5839 86.8977C62.5838 86.879 62.4784 86.7972 62.547 86.7894L62.6719 86.7437Z" fill="white"/>
<path fill-rule="evenodd" clip-rule="evenodd" d="M53.4972 92.3468C53.4332 92.4557 53.3653 92.5759 53.475 92.6913C53.5363 92.7341 53.6095 92.7598 53.6861 92.7653C53.7627 92.7708 53.8393 92.756 53.9072 92.7226C53.9756 92.6922 54.0522 92.6619 54.0599 92.5907C54.0675 92.5195 54.059 92.4335 54.0586 92.3624C54.0576 92.1827 54.2547 92.0543 54.0801 91.8868C54.0375 91.8476 53.986 91.8176 53.9293 91.7991C53.8726 91.7807 53.8122 91.7742 53.7525 91.7801C53.5588 91.8149 53.463 92.0026 53.3952 92.1565L53.4972 92.3468Z" fill="white"/>
<path fill-rule="evenodd" clip-rule="evenodd" d="M38.0818 98.962C37.8662 99.0089 37.6684 99.1097 37.5101 99.2534L37.5106 99.3358C37.479 99.4006 37.4629 99.4709 37.4633 99.5419C37.4637 99.613 37.4806 99.6831 37.5129 99.7475C37.7413 100.151 38.1973 100.099 38.6091 100.093C39.0209 100.087 39.6107 100.132 39.4137 99.5684C39.3424 99.25 39.174 98.9573 38.9285 98.7251C38.7907 98.6398 38.7223 98.6814 38.5893 98.727C38.4025 98.7762 38.2265 98.8557 38.0697 98.962L38.0818 98.962Z" fill="white"/>
<path fill-rule="evenodd" clip-rule="evenodd" d="M43.1326 99.5737C43.2006 99.461 43.3003 99.247 43.4698 99.2274C43.6393 99.2077 43.66 99.2899 43.7613 99.3567C43.9882 99.5015 44.1993 99.6949 43.9827 99.9619C43.9192 100.024 43.841 100.072 43.7544 100.102C43.6677 100.131 43.5749 100.142 43.483 100.133C43.3335 100.112 43.0782 99.9483 43.1338 99.787L43.1326 99.5737Z" fill="white"/>
<path fill-rule="evenodd" clip-rule="evenodd" d="M64.0481 63.7072C63.9731 63.7979 63.9259 63.9056 63.9117 64.0191C63.8974 64.1325 63.9165 64.2474 63.9669 64.3515C64.0106 64.5996 64.1187 64.834 64.2817 65.0348C64.5375 65.2804 64.8844 65.2185 65.2037 65.2804C65.3053 65.316 65.4153 65.3258 65.5224 65.3087C65.6295 65.2916 65.7298 65.2484 65.8129 65.1834C66.0328 65.0133 66.2166 64.8066 66.3545 64.5739C66.554 64.1934 66.6618 63.7774 66.6706 63.3546C66.6794 62.9319 66.5888 62.5124 66.4053 62.1255C66.1765 61.6514 65.8343 61.1143 65.2561 60.9678C65.0152 60.9003 64.7589 60.8954 64.515 60.9535C64.2711 61.0116 64.0491 61.1306 63.873 61.2975C63.711 61.4762 63.5972 61.6881 63.5409 61.9155C63.4846 62.143 63.4875 62.3796 63.5493 62.6057L63.648 62.9271C63.6629 63.0665 63.6637 63.2068 63.6503 63.3464C63.6794 63.4959 63.765 63.6302 64.0481 63.7072Z" fill="white"/>
<path fill-rule="evenodd" clip-rule="evenodd" d="M63.1343 64.9177C63.4586 65.1517 63.41 65.1145 63.4601 65.4137C63.4608 65.5447 63.5377 65.5742 63.5102 65.6979C63.4751 65.7826 63.4133 65.8556 63.333 65.9074C63.2527 65.9593 63.1574 65.9876 63.0596 65.9887C62.9263 65.9894 62.715 65.7436 62.6539 65.6466C62.6171 65.5892 62.5996 65.523 62.6035 65.4563C62.6075 65.3896 62.6327 65.3255 62.676 65.2721L63.1343 64.9177Z" fill="white"/>
<path fill-rule="evenodd" clip-rule="evenodd" d="M30.9293 65.0281C30.8622 65.2868 30.771 65.5943 31.0789 65.7759C31.2009 65.8142 31.3319 65.8208 31.4578 65.795C31.5836 65.7692 31.6994 65.7121 31.7928 65.6297C32.092 65.3743 32.2965 65.0377 32.3769 64.6681C32.4194 64.3384 31.9935 63.989 31.6662 63.9534C31.0077 63.8822 30.6579 64.8575 30.6241 65.3143L30.9293 65.0281Z" fill="white"/>
<path fill-rule="evenodd" clip-rule="evenodd" d="M30.4851 67.8681C30.4483 67.7971 30.2856 67.5884 30.3134 67.4947C30.3411 67.4009 30.3777 67.4419 30.4017 67.4081C30.4318 67.3455 30.4767 67.2899 30.533 67.2455C30.5894 67.2011 30.6558 67.1691 30.7273 67.1517C30.8731 67.1189 31.0265 67.1324 31.163 67.19C31.2995 67.2476 31.4112 67.3459 31.4801 67.4694C31.5401 67.543 31.5686 67.6345 31.5601 67.7265C31.5517 67.8184 31.507 67.9042 31.4345 67.9675C31.3429 68.0583 31.2171 68.1129 31.0833 68.1199C30.9495 68.1269 30.8179 68.0859 30.716 68.0053L30.4851 67.8681Z" fill="white"/>
<path fill-rule="evenodd" clip-rule="evenodd" d="M59.9721 100.613C59.7791 101.055 59.7478 101.543 59.883 102.002C59.9453 102.305 59.996 102.702 60.344 102.834C61.1533 103.144 61.782 101.512 61.9487 100.995C62.0838 100.543 62.1128 100.069 62.0337 99.6056C61.9667 99.2387 61.7617 98.9056 61.4551 98.6656C61.273 98.6022 61.0729 98.599 60.8886 98.6567C60.7042 98.7143 60.5469 98.8292 60.4434 98.982C59.9301 99.61 60.0477 100.41 59.8296 101.123L59.9721 100.613Z" fill="white"/>
<path fill-rule="evenodd" clip-rule="evenodd" d="M59.5476 100.507C59.3485 100.521 59.1528 100.562 58.9668 100.63C58.8742 100.687 58.7334 100.773 58.7057 100.875C58.6983 100.946 58.7106 101.017 58.7414 101.082C58.7721 101.148 58.8203 101.205 58.8815 101.248C58.9189 101.283 58.9651 101.308 59.016 101.323C59.0668 101.337 59.1207 101.339 59.1726 101.329C59.2452 101.302 59.3052 101.204 59.3533 101.144C59.4329 101.037 59.4986 100.921 59.5492 100.799C59.5838 100.743 59.6106 100.684 59.629 100.622C59.6284 100.521 59.5757 100.488 59.547 100.409L59.5476 100.507Z" fill="white"/>
<path fill-rule="evenodd" clip-rule="evenodd" d="M59.1137 104.485L59.3889 104.599C59.3895 104.7 59.4144 104.816 59.3098 104.884C59.1971 104.919 59.0756 104.919 58.9625 104.886C58.906 104.871 58.8563 104.839 58.8211 104.795C58.7859 104.752 58.767 104.698 58.7673 104.644C58.7666 104.509 58.9035 104.452 59.0367 104.429L59.1137 104.485Z" fill="white"/>
<path fill-rule="evenodd" clip-rule="evenodd" d="M46.4454 109.909C46.4155 109.961 46.4043 110.02 46.4133 110.077C46.4223 110.135 46.4512 110.189 46.4956 110.231C46.5637 110.305 46.6606 110.352 46.7655 110.361C46.8704 110.37 46.9751 110.341 47.0572 110.28C47.1986 110.179 47.3117 110.047 47.3867 109.897C47.4618 109.747 47.4967 109.582 47.4884 109.416C47.4429 109.226 47.1792 109.01 46.9739 109.124C46.8566 109.183 46.7472 109.255 46.6481 109.339C46.5188 109.492 46.4475 109.681 46.4452 109.875L46.4454 109.909Z" fill="white"/>
<path fill-rule="evenodd" clip-rule="evenodd" d="M56.2268 47.2284C56.1304 47.3113 56.0821 47.3377 56.0625 47.4502C56.0221 47.5748 56.0359 47.709 56.1009 47.8243C56.3175 48.0561 56.6135 48.2117 56.9393 48.265C57.0531 48.2965 57.1734 48.3027 57.2905 48.2832C57.4075 48.2637 57.5179 48.219 57.6129 48.1526C57.728 48.0801 57.8255 47.9862 57.8993 47.8769C57.973 47.7676 58.0214 47.6452 58.0414 47.5176C58.0741 47.3929 58.0641 47.2619 58.0127 47.1428C57.9614 47.0237 57.8713 46.9223 57.755 46.8529C57.5285 46.6959 57.2695 46.5839 56.994 46.524C56.888 46.5071 56.7791 46.5142 56.6766 46.5447C56.5741 46.5753 56.4811 46.6284 56.4055 46.6996C56.2406 46.8203 56.0279 47.0386 56.2268 47.2284Z" fill="white"/>
<path fill-rule="evenodd" clip-rule="evenodd" d="M58.3758 48.0996C58.3754 48.0285 58.3749 47.9424 58.4515 47.9195C58.5258 47.9156 58.6001 47.926 58.6697 47.9501C58.7393 47.9742 58.8028 48.0115 58.8561 48.0595C58.929 48.1373 58.9696 48.2366 58.9707 48.3396C58.9475 48.4078 58.8992 48.4663 58.8344 48.5051C58.7888 48.5345 58.7347 48.5504 58.6792 48.5507C58.6237 48.551 58.5694 48.5357 58.5235 48.5068C58.4546 48.4698 58.2886 48.3884 58.3164 48.2946L58.3758 48.0996Z" fill="white"/>
<path fill-rule="evenodd" clip-rule="evenodd" d="M51.7818 38.7411C51.7672 38.8518 51.7935 38.9638 51.8563 39.0589C51.9757 39.2286 52.1336 39.372 52.319 39.4792C52.5559 39.631 52.8399 39.7069 53.1278 39.6955C53.229 39.672 53.3209 39.6218 53.3921 39.551C53.4633 39.4802 53.511 39.3918 53.5293 39.2965C53.5548 39.056 53.4877 38.815 53.3397 38.6163C53.203 38.4458 53.0246 38.308 52.819 38.2141C52.6135 38.1202 52.3868 38.0731 52.1576 38.0764C51.6329 38.1056 51.6208 38.8281 51.7818 38.7411Z" fill="white"/>
<path fill-rule="evenodd" clip-rule="evenodd" d="M54.0484 40.4315C53.9906 40.385 53.9483 40.3242 53.9263 40.2563C54.0028 40.2221 54.0266 40.1434 54.1113 40.1167C54.1595 40.1042 54.2101 40.1017 54.2594 40.1092C54.3088 40.1168 54.3558 40.1342 54.3971 40.1604C54.4384 40.1865 54.473 40.2208 54.4986 40.2606C54.5241 40.3005 54.5399 40.3451 54.5449 40.3913C54.5456 40.5185 54.5013 40.5413 54.3926 40.598C54.2839 40.6548 54.296 40.651 54.2109 40.599C54.153 40.5684 54.0987 40.5323 54.0488 40.4914L54.0484 40.4315Z" fill="white"/>
</g>
<path fill-rule="evenodd" clip-rule="evenodd" d="M37.3111 96.1814C37.3132 96.5557 37.0688 96.8902 36.7619 96.892C36.455 96.8937 36.2069 96.5619 36.2048 96.1876C36.2026 95.8133 36.447 95.475 36.7539 95.4733C37.0608 95.4716 37.3088 95.7734 37.3111 96.1814Z" fill="url(#paint26_linear_22_2532)"/>
<path d="M36.761 96.7272C37.0018 96.7258 37.1957 96.475 37.1939 96.167C37.1922 95.859 36.9955 95.6104 36.7547 95.6117C36.5139 95.6131 36.32 95.8639 36.3218 96.1719C36.3235 96.4799 36.5202 96.7286 36.761 96.7272Z" fill="white"/>
<path fill-rule="evenodd" clip-rule="evenodd" d="M59.413 94.5595C59.387 94.6659 59.3292 94.7635 59.2461 94.8409C59.1631 94.9183 59.0582 94.9724 58.9435 94.9971C58.8288 95.0218 58.709 95.0159 58.5977 94.9803C58.4865 94.9447 58.3884 94.8807 58.3147 94.7956C58.2409 94.7106 58.1946 94.608 58.1809 94.4996C58.1673 94.3913 58.1869 94.2815 58.2375 94.1829C58.2881 94.0843 58.3677 94.001 58.467 93.9424C58.5664 93.8838 58.6816 93.8524 58.7993 93.8517C58.9809 93.8723 59.1467 93.9577 59.2613 94.0899C59.3759 94.2221 59.4304 94.3906 59.413 94.5595Z" fill="url(#paint27_linear_22_2532)"/>
<path fill-rule="evenodd" clip-rule="evenodd" d="M59.2999 94.5601C59.2799 94.6441 59.2347 94.7211 59.1695 94.7823C59.1043 94.8436 59.0218 94.8865 58.9316 94.9063C58.8413 94.926 58.7468 94.9217 58.6591 94.8938C58.5714 94.866 58.4939 94.8158 58.4357 94.7489C58.3774 94.6821 58.3407 94.6013 58.3298 94.5159C58.3189 94.4305 58.3342 94.344 58.3739 94.2663C58.4137 94.1886 58.4763 94.1229 58.5546 94.0766C58.6328 94.0304 58.7235 94.0056 58.8163 94.0051C58.9594 94.0203 59.0902 94.0869 59.1807 94.1908C59.2712 94.2946 59.314 94.4272 59.2999 94.5601Z" fill="white"/>
<path fill-rule="evenodd" clip-rule="evenodd" d="M49.084 94.5091C49.0848 94.6498 49.0406 94.7875 48.9569 94.905C48.8733 95.0224 48.754 95.1142 48.6141 95.1688C48.4742 95.2235 48.3201 95.2384 48.1711 95.2118C48.0221 95.1852 47.885 95.1182 47.7772 95.0194C47.6693 94.9205 47.5956 94.7942 47.5652 94.6564C47.5348 94.5186 47.5492 94.3755 47.6065 94.2453C47.6639 94.115 47.7616 94.0033 47.8873 93.9245C48.013 93.8456 48.1611 93.8031 48.3128 93.8022C48.5163 93.8011 48.7118 93.8749 48.8565 94.0075C49.0011 94.14 49.0829 94.3205 49.084 94.5091Z" fill="url(#paint28_linear_22_2532)"/>
<path d="M48.3199 95.0712C48.6522 95.0693 48.9201 94.8181 48.9184 94.5101C48.9167 94.2021 48.6459 93.9539 48.3137 93.9557C47.9814 93.9576 47.7134 94.2088 47.7152 94.5169C47.7169 94.8249 47.9877 95.0731 48.3199 95.0712Z" fill="white"/>
<path style="mix-blend-mode:screen" d="M49.489 98.7723C51.8738 98.1883 53.298 95.923 52.67 93.7126C52.0421 91.5022 49.5998 90.1838 47.215 90.7679C44.8302 91.3519 43.406 93.6172 44.0339 95.8276C44.6619 98.038 47.1042 99.3564 49.489 98.7723Z" fill="url(#paint29_radial_22_2532)"/>
<path style="mix-blend-mode:screen" d="M69.6965 56.4657C69.9564 57.0719 70.0164 57.7361 69.8689 58.3742C69.7215 59.0123 69.3731 59.5957 68.8681 60.0505C68.363 60.5054 67.7239 60.8112 67.0316 60.9293C66.3393 61.0474 65.6249 60.9725 64.9789 60.7141C64.3329 60.4556 63.7842 60.0253 63.4024 59.4774C63.0206 58.9296 62.8227 58.289 62.8338 57.6365C62.845 56.9841 63.0647 56.3493 63.465 55.8123C63.8654 55.2754 64.4285 54.8604 65.083 54.6201C65.5169 54.4602 65.9805 54.3811 66.4472 54.3874C66.9139 54.3936 67.3746 54.4851 67.8031 54.6564C68.2315 54.8278 68.6192 55.0758 68.9441 55.3863C69.269 55.6967 69.5247 56.0635 69.6965 56.4657Z" fill="url(#paint30_radial_22_2532)"/>
<path style="mix-blend-mode:screen" d="M50.5933 34.2035C50.8532 34.8096 50.9132 35.4738 50.7657 36.1119C50.6182 36.7501 50.2699 37.3335 49.7648 37.7883C49.2598 38.2431 48.6206 38.5489 47.9283 38.667C47.236 38.7851 46.5217 38.7102 45.8756 38.4518C45.2296 38.1934 44.681 37.763 44.2991 37.2152C43.9173 36.6674 43.7194 36.0267 43.7306 35.3743C43.7417 34.7219 43.9614 34.087 44.3618 33.5501C44.7621 33.0131 45.3252 32.5982 45.9798 32.3578C46.8563 32.037 47.8338 32.0511 48.6985 32.397C49.5632 32.7429 50.2445 33.3925 50.5933 34.2035Z" fill="url(#paint31_radial_22_2532)"/>
<path style="mix-blend-mode:screen" d="M30.6903 57.0113C30.8232 57.3247 30.8528 57.6676 30.7754 57.9967C30.6981 58.3258 30.5173 58.6264 30.2558 58.8604C29.9943 59.0944 29.664 59.2513 29.3065 59.3114C28.949 59.3714 28.5804 59.3319 28.2473 59.1978C27.9142 59.0637 27.6315 58.841 27.4351 58.5578C27.2386 58.2747 27.1371 57.9439 27.1435 57.6072C27.1498 57.2704 27.2637 56.9429 27.4708 56.666C27.6778 56.3891 27.9687 56.1753 28.3066 56.0515C28.5313 55.9693 28.7711 55.9288 29.0125 55.9326C29.2539 55.9363 29.4921 55.9841 29.7135 56.0732C29.9349 56.1624 30.1351 56.2911 30.3027 56.4521C30.4703 56.613 30.602 56.8031 30.6903 57.0113Z" fill="url(#paint32_radial_22_2532)"/>
<path style="mix-blend-mode:screen" d="M60.0599 93.9831C60.1839 94.2758 60.2115 94.5961 60.1392 94.9035C60.0669 95.211 59.8979 95.4917 59.6536 95.7102C59.4093 95.9287 59.1006 96.0753 58.7666 96.1313C58.4327 96.1873 58.0884 96.1503 57.7773 96.0249C57.4662 95.8995 57.2022 95.6914 57.0188 95.4269C56.8354 95.1623 56.7407 94.8533 56.7468 94.5387C56.7529 94.2242 56.8594 93.9183 57.0529 93.6597C57.2464 93.4011 57.5182 93.2015 57.834 93.086C58.2578 92.9321 58.73 92.94 59.1472 93.1082C59.5644 93.2763 59.8925 93.5909 60.0599 93.9831Z" fill="url(#paint33_radial_22_2532)"/>
<path style="mix-blend-mode:screen" d="M38.0184 95.586C38.1426 95.8788 38.1705 96.1992 38.0986 96.5068C38.0267 96.8144 37.8582 97.0955 37.6145 97.3147C37.3707 97.5339 37.0624 97.6814 36.7286 97.7386C36.3947 97.7957 36.0501 97.7601 35.7382 97.636C35.4264 97.512 35.1611 97.3052 34.9759 97.0416C34.7907 96.778 34.6939 96.4694 34.6975 96.1547C34.7012 95.84 34.8052 95.5333 34.9964 95.2731C35.1877 95.013 35.4577 94.811 35.7724 94.6928C35.9831 94.613 36.2087 94.5729 36.4362 94.5748C36.6636 94.5766 36.8884 94.6203 37.0974 94.7035C37.3064 94.7866 37.4955 94.9074 37.6536 95.0589C37.8117 95.2104 37.9357 95.3896 38.0184 95.586Z" fill="url(#paint34_radial_22_2532)"/>
</g>
<defs>
<filter id="filter0_d_22_2532" x="0.143219" y="0.127012" width="122.805" height="177.433" filterUnits="userSpaceOnUse" color-interpolation-filters="sRGB">
<feFlood flood-opacity="0" result="BackgroundImageFix"/>
<feColorMatrix in="SourceAlpha" type="matrix" values="0 0 0 0 0 0 0 0 0 0 0 0 0 0 0 0 0 0 127 0" result="hardAlpha"/>
<feMorphology radius="2" operator="dilate" in="SourceAlpha" result="effect1_dropShadow_22_2532"/>
<feOffset dx="13" dy="8"/>
<feGaussianBlur stdDeviation="19"/>
<feComposite in2="hardAlpha" operator="out"/>
<feColorMatrix type="matrix" values="0 0 0 0 1 0 0 0 0 0 0 0 0 0 0.54 0 0 0 1 0"/>
<feBlend mode="normal" in2="BackgroundImageFix" result="effect1_dropShadow_22_2532"/>
<feBlend mode="normal" in="SourceGraphic" in2="effect1_dropShadow_22_2532" result="shape"/>
</filter>
<linearGradient id="paint0_linear_22_2532" x1="62.0158" y1="129.419" x2="61.8843" y2="106.098" gradientUnits="userSpaceOnUse">
<stop stop-color="#A43440"/>
<stop offset="1" stop-color="#C73634"/>
</linearGradient>
<linearGradient id="paint1_linear_22_2532" x1="34.2175" y1="129.575" x2="34.0861" y2="106.255" gradientUnits="userSpaceOnUse">
<stop stop-color="#A43440"/>
<stop offset="1" stop-color="#C73634"/>
</linearGradient>
<radialGradient id="paint2_radial_22_2532" cx="0" cy="0" r="1" gradientUnits="userSpaceOnUse" gradientTransform="translate(52.0634 63.4582) rotate(-0.323048) scale(28.1027 47.7291)">
<stop stop-color="#F4BAB3"/>
<stop offset="0.77" stop-color="#8D6FC7"/>
<stop offset="0.96" stop-color="#B695E5"/>
</radialGradient>
<radialGradient id="paint3_radial_22_2532" cx="0" cy="0" r="1" gradientUnits="userSpaceOnUse" gradientTransform="translate(47.5674 36.7984) rotate(-0.323048) scale(7.58289 6.39712)">
<stop offset="0.02" stop-color="#AB5E75"/>
<stop offset="0.25" stop-color="#9F577B"/>
<stop offset="0.67" stop-color="#7F458C"/>
<stop offset="0.99" stop-color="#61349C"/>
</radialGradient>
<linearGradient id="paint4_linear_22_2532" x1="47.3583" y1="36.2169" x2="47.3419" y2="33.3047" gradientUnits="userSpaceOnUse">
<stop stop-color="#FFFF18"/>
<stop offset="1" stop-color="#FF7400"/>
</linearGradient>
<radialGradient id="paint5_radial_22_2532" cx="0" cy="0" r="1" gradientUnits="userSpaceOnUse" gradientTransform="translate(47.6793 96.738) rotate(-0.323048) scale(13.3972 22.853)">
<stop offset="0.02" stop-color="#8881BC"/>
<stop offset="0.29" stop-color="#8375B7"/>
<stop offset="0.77" stop-color="#7555AA"/>
<stop offset="0.99" stop-color="#6D43A3"/>
</radialGradient>
<radialGradient id="paint6_radial_22_2532" cx="0" cy="0" r="1" gradientUnits="userSpaceOnUse" gradientTransform="translate(47.5479 61.9847) rotate(-0.323048) scale(14.2452 13.2062)">
<stop offset="0.02" stop-color="#8881BC"/>
<stop offset="0.29" stop-color="#8375B7"/>
<stop offset="0.77" stop-color="#7555AA"/>
<stop offset="0.99" stop-color="#6D43A3"/>
</radialGradient>
<radialGradient id="paint7_radial_22_2532" cx="0" cy="0" r="1" gradientUnits="userSpaceOnUse" gradientTransform="translate(47.2061 48.9195) rotate(-0.323048) scale(17.7572 27.5365)">
<stop offset="0.02" stop-color="#725EB0"/>
<stop offset="0.38" stop-color="#6D52AA"/>
<stop offset="0.99" stop-color="#61349C"/>
</radialGradient>
<linearGradient id="paint8_linear_22_2532" x1="47.7114" y1="70.2004" x2="47.5965" y2="49.83" gradientUnits="userSpaceOnUse">
<stop stop-color="#FFFF97"/>
<stop offset="1" stop-color="#FF7E59"/>
</linearGradient>
<radialGradient id="paint9_radial_22_2532" cx="0" cy="0" r="1" gradientUnits="userSpaceOnUse" gradientTransform="translate(48.0214 115.877) rotate(-0.323048) scale(5.26522 8.98139)">
<stop offset="0.02" stop-color="#725EB0"/>
<stop offset="0.38" stop-color="#6D52AA"/>
<stop offset="0.99" stop-color="#61349C"/>
</radialGradient>
<radialGradient id="paint10_radial_22_2532" cx="0" cy="0" r="1" gradientUnits="userSpaceOnUse" gradientTransform="translate(47.5725 44.8589) rotate(-0.323048) scale(9.69867 8.99128)">
<stop offset="0.02" stop-color="#8881BC"/>
<stop offset="0.125" stop-color="#7555AA"/>
<stop offset="0.9899" stop-color="#8375B7"/>
<stop offset="0.99" stop-color="#6D43A3"/>
</radialGradient>
<linearGradient id="paint11_linear_22_2532" x1="47.0738" y1="88.1793" x2="47.0668" y2="86.9515" gradientUnits="userSpaceOnUse">
<stop stop-color="#8DC7FF"/>
<stop offset="0.32" stop-color="#5C4D86"/>
</linearGradient>
<radialGradient id="paint12_radial_22_2532" cx="0" cy="0" r="1" gradientUnits="userSpaceOnUse" gradientTransform="translate(47.1659 87.3253) rotate(-0.323048) scale(0.52087 0.482878)">
<stop offset="0.02" stop-color="#8881BC"/>
<stop offset="0.29" stop-color="#8375B7"/>
<stop offset="0.77" stop-color="#7555AA"/>
<stop offset="1" stop-color="#6D43A3"/>
</radialGradient>
<linearGradient id="paint13_linear_22_2532" x1="47.0567" y1="85.1473" x2="47.0498" y2="83.9195" gradientUnits="userSpaceOnUse">
<stop stop-color="#8DC7FF"/>
<stop offset="0.32" stop-color="#5C4D86"/>
</linearGradient>
<radialGradient id="paint14_radial_22_2532" cx="0" cy="0" r="1" gradientUnits="userSpaceOnUse" gradientTransform="translate(47.1488 84.2933) rotate(-0.323048) scale(0.520869 0.48288)">
<stop offset="0.02" stop-color="#8881BC"/>
<stop offset="0.29" stop-color="#8375B7"/>
<stop offset="0.77" stop-color="#7555AA"/>
<stop offset="1" stop-color="#6D43A3"/>
</radialGradient>
<radialGradient id="paint15_radial_22_2532" cx="0" cy="0" r="1" gradientUnits="userSpaceOnUse" gradientTransform="translate(36.1144 63.685) rotate(-0.323048) scale(0.52087 0.48288)">
<stop stop-color="#F4BAB3"/>
<stop offset="1" stop-color="#8D6FC7"/>
</radialGradient>
<radialGradient id="paint16_radial_22_2532" cx="0" cy="0" r="1" gradientUnits="userSpaceOnUse" gradientTransform="translate(37.2282 54.9793) rotate(-0.323048) scale(0.52087 0.482878)">
<stop stop-color="#F4BAB3"/>
<stop offset="1" stop-color="#8D6FC7"/>
</radialGradient>
<radialGradient id="paint17_radial_22_2532" cx="0" cy="0" r="1" gradientUnits="userSpaceOnUse" gradientTransform="translate(42.3591 70.5225) rotate(-0.323048) scale(0.520868 0.48288)">
<stop stop-color="#F4BAB3"/>
<stop offset="1" stop-color="#8D6FC7"/>
</radialGradient>
<radialGradient id="paint18_radial_22_2532" cx="0" cy="0" r="1" gradientUnits="userSpaceOnUse" gradientTransform="translate(52.631 71.202) rotate(-0.323048) scale(0.520867 0.482878)">
<stop stop-color="#F4BAB3"/>
<stop offset="1" stop-color="#8D6FC7"/>
</radialGradient>
<radialGradient id="paint19_radial_22_2532" cx="0" cy="0" r="1" gradientUnits="userSpaceOnUse" gradientTransform="translate(59.5516 65.4283) rotate(-0.323048) scale(0.52087 0.48288)">
<stop stop-color="#F4BAB3"/>
<stop offset="1" stop-color="#8D6FC7"/>
</radialGradient>
<radialGradient id="paint20_radial_22_2532" cx="0" cy="0" r="1" gradientUnits="userSpaceOnUse" gradientTransform="translate(58.4242 54.5416) rotate(-0.323048) scale(0.52087 0.482881)">
<stop stop-color="#F4BAB3"/>
<stop offset="1" stop-color="#8D6FC7"/>
</radialGradient>
<radialGradient id="paint21_radial_22_2532" cx="0" cy="0" r="1" gradientUnits="userSpaceOnUse" gradientTransform="translate(53.1678 48.9525) rotate(-0.323048) scale(0.52087 0.482881)">
<stop stop-color="#F4BAB3"/>
<stop offset="0.0240385" stop-color="#C195BD"/>
<stop offset="1" stop-color="#8D6FC7"/>
</radialGradient>
<radialGradient id="paint22_radial_22_2532" cx="0" cy="0" r="1" gradientUnits="userSpaceOnUse" gradientTransform="translate(44.3647 48.1225) rotate(-0.323048) scale(0.520869 0.482869)">
<stop stop-color="#F4BAB3"/>
<stop offset="0.0240385" stop-color="#C195BD"/>
<stop offset="1" stop-color="#8D6FC7"/>
</radialGradient>
<linearGradient id="paint23_linear_22_2532" x1="52.9178" y1="122.064" x2="52.7717" y2="96.1504" gradientUnits="userSpaceOnUse">
<stop stop-color="#A43411"/>
<stop offset="1" stop-color="#C73634"/>
</linearGradient>
<linearGradient id="paint24_linear_22_2532" x1="65.6841" y1="58.098" x2="67.3436" y2="58.0886" gradientUnits="userSpaceOnUse">
<stop stop-color="#FFFF18"/>
<stop offset="1" stop-color="#FF7400"/>
</linearGradient>
<linearGradient id="paint25_linear_22_2532" x1="28.204" y1="57.89" x2="29.7585" y2="57.8813" gradientUnits="userSpaceOnUse">
<stop stop-color="#FFFF18"/>
<stop offset="1" stop-color="#FF7400"/>
</linearGradient>
<linearGradient id="paint26_linear_22_2532" x1="36.7618" y1="96.877" x2="36.7538" y2="95.4583" gradientUnits="userSpaceOnUse">
<stop stop-color="#8DC7FF"/>
<stop offset="0.32" stop-color="#5C4D86"/>
</linearGradient>
<linearGradient id="paint27_linear_22_2532" x1="58.8235" y1="95.2778" x2="58.8155" y2="93.8554" gradientUnits="userSpaceOnUse">
<stop stop-color="#8DC7FF"/>
<stop offset="0.32" stop-color="#5C4D86"/>
</linearGradient>
<linearGradient id="paint28_linear_22_2532" x1="48.3208" y1="95.2246" x2="48.3128" y2="93.8022" gradientUnits="userSpaceOnUse">
<stop stop-color="#8DC7FF"/>
<stop offset="0.32" stop-color="#5C4D86"/>
</linearGradient>
<radialGradient id="paint29_radial_22_2532" cx="0" cy="0" r="1" gradientTransform="matrix(4.15705 -1.49903 1.61341 3.85259 48.3171 94.8385)" gradientUnits="userSpaceOnUse">
<stop stop-color="#003CEE"/>
<stop offset="0.06" stop-color="#0036D6"/>
<stop offset="0.2" stop-color="#00289E"/>
<stop offset="0.34" stop-color="#001C6D"/>
<stop offset="0.48" stop-color="#001246"/>
<stop offset="0.62" stop-color="#000A27"/>
<stop offset="0.75" stop-color="#000412"/>
<stop offset="0.88" stop-color="#000104"/>
<stop offset="1"/>
</radialGradient>
<radialGradient id="paint30_radial_22_2532" cx="0" cy="0" r="1" gradientTransform="matrix(3.30842 -1.20953 1.30185 3.0661 66.3216 57.7678)" gradientUnits="userSpaceOnUse">
<stop stop-color="#FF9A00"/>
<stop offset="0.09" stop-color="#D68100"/>
<stop offset="0.23" stop-color="#9E5F00"/>
<stop offset="0.36" stop-color="#6E4200"/>
<stop offset="0.5" stop-color="#462A00"/>
<stop offset="0.63" stop-color="#271800"/>
<stop offset="0.76" stop-color="#120B00"/>
<stop offset="0.89" stop-color="#040300"/>
<stop offset="1"/>
</radialGradient>
<radialGradient id="paint31_radial_22_2532" cx="0" cy="0" r="1" gradientTransform="matrix(3.30843 -1.20953 1.30186 3.0661 47.2197 35.5161)" gradientUnits="userSpaceOnUse">
<stop stop-color="#FF9A00"/>
<stop offset="0.09" stop-color="#D68100"/>
<stop offset="0.23" stop-color="#9E5F00"/>
<stop offset="0.36" stop-color="#6E4200"/>
<stop offset="0.5" stop-color="#462A00"/>
<stop offset="0.63" stop-color="#271800"/>
<stop offset="0.76" stop-color="#120B00"/>
<stop offset="0.89" stop-color="#040300"/>
<stop offset="1"/>
</radialGradient>
<radialGradient id="paint32_radial_22_2532" cx="0" cy="0" r="1" gradientTransform="matrix(1.71221 -0.625965 0.673748 1.58679 28.9528 57.7285)" gradientUnits="userSpaceOnUse">
<stop stop-color="#FF9A00"/>
<stop offset="0.09" stop-color="#D68100"/>
<stop offset="0.23" stop-color="#9E5F00"/>
<stop offset="0.36" stop-color="#6E4200"/>
<stop offset="0.5" stop-color="#462A00"/>
<stop offset="0.63" stop-color="#271800"/>
<stop offset="0.76" stop-color="#120B00"/>
<stop offset="0.89" stop-color="#040300"/>
<stop offset="1"/>
</radialGradient>
<radialGradient id="paint33_radial_22_2532" cx="0" cy="0" r="1" gradientTransform="matrix(1.59622 -0.583565 0.628107 1.47931 58.418 94.6349)" gradientUnits="userSpaceOnUse">
<stop stop-color="#003CEE"/>
<stop offset="0.06" stop-color="#0036D6"/>
<stop offset="0.173077" stop-color="#002BAB"/>
<stop offset="0.2" stop-color="#00289E"/>
<stop offset="0.34" stop-color="#001C6D"/>
<stop offset="0.6199" stop-color="#001246"/>
<stop offset="0.62" stop-color="#000A27"/>
<stop offset="0.673077" stop-color="#00081E"/>
<stop offset="0.75" stop-color="#000412"/>
<stop offset="0.88" stop-color="#000104"/>
<stop offset="1"/>
</radialGradient>
<radialGradient id="paint34_radial_22_2532" cx="0" cy="0" r="1" gradientTransform="matrix(1.59622 -0.583564 0.628107 1.47931 36.3709 96.2379)" gradientUnits="userSpaceOnUse">
<stop stop-color="#003CEE"/>
<stop offset="0.06" stop-color="#0036D6"/>
<stop offset="0.2" stop-color="#00289E"/>
<stop offset="0.34" stop-color="#001C6D"/>
<stop offset="0.48" stop-color="#001246"/>
<stop offset="0.62" stop-color="#000A27"/>
<stop offset="0.75" stop-color="#000412"/>
<stop offset="0.88" stop-color="#000104"/>
<stop offset="1"/>
</radialGradient>
</defs>
</svg>
