<svg width="263" height="161" viewBox="0 0 263 161" fill="none" xmlns="http://www.w3.org/2000/svg">
<g filter="url(#filter0_d_26_9)">
<rect x="27" y="32" width="183" height="81" rx="40.5" fill="#0F0E5F" fill-opacity="0.5" shape-rendering="crispEdges"/>
<rect x="29" y="34" width="179" height="77" rx="38.5" stroke="#A65CF1" stroke-width="4" shape-rendering="crispEdges"/>
<path d="M64.3389 81.12V78L78.1389 78.024C78.8429 78.024 79.3789 77.864 79.7469 77.544C80.1309 77.208 80.3229 76.672 80.3229 75.936C80.3229 75.2 80.1309 74.672 79.7469 74.352C79.3789 74.016 78.8429 73.848 78.1389 73.848H69.5469C67.7709 73.848 66.3869 73.424 65.3949 72.576C64.4189 71.712 63.9309 70.448 63.9309 68.784C63.9309 67.12 64.4189 65.864 65.3949 65.016C66.3869 64.152 67.7709 63.72 69.5469 63.72H83.0349V66.84L69.9549 66.816C69.2669 66.816 68.7309 66.976 68.3469 67.296C67.9629 67.6 67.7709 68.096 67.7709 68.784C67.7709 69.472 67.9629 69.976 68.3469 70.296C68.7309 70.6 69.2669 70.752 69.9549 70.752H78.5469C80.3229 70.752 81.6989 71.192 82.6749 72.072C83.6669 72.936 84.1629 74.224 84.1629 75.936C84.1629 77.632 83.6669 78.92 82.6749 79.8C81.6989 80.68 80.3229 81.12 78.5469 81.12H64.3389ZM85.9706 72.528V63.84H107.091V72.528H103.203V66.96H97.9706V81H94.1306V66.96H89.8586V72.528H85.9706ZM106.013 81L113.741 63.84H119.669L127.397 81H123.221L121.589 77.376H111.821L110.189 81H106.013ZM113.213 74.256H120.197L116.861 66.84H116.549L113.213 74.256ZM129.321 81V63.84H143.697C145.473 63.84 146.849 64.288 147.825 65.184C148.817 66.08 149.313 67.44 149.313 69.264C149.313 70.816 148.953 72.032 148.233 72.912C147.513 73.792 146.489 74.344 145.161 74.568L149.121 81H144.753L141.081 74.688H133.161V81H129.321ZM143.241 66.96H133.161V71.544L143.241 71.568C143.945 71.568 144.481 71.392 144.849 71.04C145.233 70.688 145.425 70.096 145.425 69.264C145.425 68.416 145.233 67.824 144.849 67.488C144.481 67.136 143.945 66.96 143.241 66.96ZM151.596 72.528V63.84H172.716V72.528H168.828V66.96H163.596V81H159.756V66.96H155.484V72.528H151.596Z" fill="white"/>
</g>
<defs>
<filter id="filter0_d_26_9" x="0" y="0" width="263" height="161" filterUnits="userSpaceOnUse" color-interpolation-filters="sRGB">
<feFlood flood-opacity="0" result="BackgroundImageFix"/>
<feColorMatrix in="SourceAlpha" type="matrix" values="0 0 0 0 0 0 0 0 0 0 0 0 0 0 0 0 0 0 127 0" result="hardAlpha"/>
<feMorphology radius="2" operator="dilate" in="SourceAlpha" result="effect1_dropShadow_26_9"/>
<feOffset dx="13" dy="8"/>
<feGaussianBlur stdDeviation="19"/>
<feComposite in2="hardAlpha" operator="out"/>
<feColorMatrix type="matrix" values="0 0 0 0 1 0 0 0 0 0.9 0 0 0 0 0 0 0 0 1 0"/>
<feBlend mode="normal" in2="BackgroundImageFix" result="effect1_dropShadow_26_9"/>
<feBlend mode="normal" in="SourceGraphic" in2="effect1_dropShadow_26_9" result="shape"/>
</filter>
</defs>
</svg>
