<svg width="73" height="75" viewBox="0 0 73 75" fill="none" xmlns="http://www.w3.org/2000/svg">
<rect width="73" height="75" rx="9" fill="#343434"/>
<path d="M37.829 42.6892V41.7581C37.829 41.1143 37.9612 40.5251 38.2256 39.9906C38.4958 39.4503 38.8866 39.0192 39.3982 38.6973C39.9155 38.3697 40.542 38.2059 41.2777 38.2059C42.025 38.2059 42.6515 38.3697 43.1573 38.6973C43.6631 39.0192 44.0454 39.4503 44.304 39.9906C44.5627 40.5251 44.692 41.1143 44.692 41.7581V42.6892C44.692 43.333 44.5598 43.925 44.2954 44.4653C44.0367 44.9999 43.6516 45.431 43.1401 45.7586C42.6343 46.0805 42.0135 46.2414 41.2777 46.2414C40.5305 46.2414 39.9011 46.0805 39.3896 45.7586C38.878 45.431 38.49 44.9999 38.2256 44.4653C37.9612 43.925 37.829 43.333 37.829 42.6892ZM39.5879 41.7581V42.6892C39.5879 43.2238 39.7143 43.7037 39.9672 44.1291C40.2201 44.5487 40.657 44.7585 41.2777 44.7585C41.8813 44.7585 42.3066 44.5487 42.5538 44.1291C42.8067 43.7037 42.9331 43.2238 42.9331 42.6892V41.7581C42.9331 41.2235 42.8124 40.7464 42.571 40.3268C42.3296 39.9015 41.8985 39.6888 41.2777 39.6888C40.6742 39.6888 40.2403 39.9015 39.9759 40.3268C39.7172 40.7464 39.5879 41.2235 39.5879 41.7581ZM29.0348 32.5844V31.6533C29.0348 31.0095 29.167 30.4204 29.4314 29.8858C29.7015 29.3455 30.0924 28.9144 30.6039 28.5925C31.1212 28.2649 31.7478 28.1011 32.4835 28.1011C33.2307 28.1011 33.8572 28.2649 34.363 28.5925C34.8689 28.9144 35.2511 29.3455 35.5097 29.8858C35.7684 30.4204 35.8977 31.0095 35.8977 31.6533V32.5844C35.8977 33.2282 35.7655 33.8202 35.5011 34.3605C35.2425 34.8951 34.8574 35.3262 34.3458 35.6538C33.84 35.9757 33.2192 36.1366 32.4835 36.1366C31.7363 36.1366 31.1069 35.9757 30.5953 35.6538C30.0837 35.3262 29.6958 34.8951 29.4314 34.3605C29.167 33.8202 29.0348 33.2282 29.0348 32.5844ZM30.7936 31.6533V32.5844C30.7936 33.119 30.9201 33.5989 31.173 34.0243C31.4259 34.4439 31.8627 34.6537 32.4835 34.6537C33.087 34.6537 33.5124 34.4439 33.7595 34.0243C34.0124 33.5989 34.1389 33.119 34.1389 32.5844V31.6533C34.1389 31.1187 34.0182 30.6416 33.7768 30.2221C33.5353 29.7967 33.1043 29.584 32.4835 29.584C31.88 29.584 31.446 29.7967 31.1816 30.2221C30.9229 30.6416 30.7936 31.1187 30.7936 31.6533ZM29.69 46L41.8295 28.3425H43.7953L31.6558 46H29.69Z" fill="#66FF7F"/>
</svg>
