<svg width="73" height="75" viewBox="0 0 73 75" fill="none" xmlns="http://www.w3.org/2000/svg">
<rect width="73" height="75" rx="9" fill="#343434"/>
<path d="M29.7102 51V48.6989L38.3523 39.2386C39.3665 38.1307 40.2017 37.1676 40.858 36.3494C41.5142 35.5227 42 34.7472 42.3153 34.0227C42.6392 33.2898 42.8011 32.5227 42.8011 31.7216C42.8011 30.8011 42.5795 30.0043 42.1364 29.331C41.7017 28.6577 41.1051 28.1378 40.3466 27.7713C39.5881 27.4048 38.7358 27.2216 37.7898 27.2216C36.7841 27.2216 35.9062 27.4304 35.1562 27.848C34.4148 28.2571 33.8395 28.8324 33.4304 29.5739C33.0298 30.3153 32.8295 31.1847 32.8295 32.1818H29.8125C29.8125 30.6477 30.1662 29.3011 30.8736 28.142C31.581 26.983 32.544 26.0795 33.7628 25.4318C34.9901 24.7841 36.3665 24.4602 37.892 24.4602C39.4261 24.4602 40.7855 24.7841 41.9702 25.4318C43.1548 26.0795 44.0838 26.9531 44.7571 28.0526C45.4304 29.152 45.767 30.375 45.767 31.7216C45.767 32.6847 45.5923 33.6264 45.2429 34.5469C44.902 35.4588 44.3054 36.4773 43.4531 37.6023C42.6094 38.7187 41.4375 40.0824 39.9375 41.6932L34.0568 47.983V48.1875H46.2273V51H29.7102Z" fill="white"/>
</svg>
