<svg width="73" height="75" viewBox="0 0 73 75" fill="none" xmlns="http://www.w3.org/2000/svg">
<rect width="73" height="75" rx="9" fill="#343434"/>
<path d="M38.4034 51.358C37.3295 51.3409 36.2557 51.1364 35.1818 50.7443C34.108 50.3523 33.1278 49.6918 32.2415 48.7628C31.3551 47.8253 30.6435 46.5597 30.1065 44.9659C29.5696 43.3636 29.3011 41.3523 29.3011 38.9318C29.3011 36.6136 29.5185 34.5597 29.9531 32.7699C30.3878 30.9716 31.0185 29.4588 31.8452 28.2315C32.6719 26.9957 33.669 26.0582 34.8366 25.419C36.0128 24.7798 37.3381 24.4602 38.8125 24.4602C40.2784 24.4602 41.5824 24.7543 42.7244 25.3423C43.875 25.9219 44.8125 26.7315 45.5369 27.7713C46.2614 28.8111 46.7301 30.0085 46.9432 31.3636H43.8239C43.5341 30.1875 42.9716 29.2116 42.1364 28.4361C41.3011 27.6605 40.1932 27.2727 38.8125 27.2727C36.7841 27.2727 35.1861 28.1548 34.0185 29.919C32.8594 31.6832 32.2756 34.1591 32.267 37.3466H32.4716C32.9489 36.6222 33.5156 36.0043 34.1719 35.4929C34.8366 34.973 35.5696 34.5724 36.3707 34.2912C37.1719 34.0099 38.0199 33.8693 38.9148 33.8693C40.4148 33.8693 41.7869 34.2443 43.0312 34.9943C44.2756 35.7358 45.2727 36.7628 46.0227 38.0753C46.7727 39.3793 47.1477 40.875 47.1477 42.5625C47.1477 44.1818 46.7855 45.6648 46.0611 47.0114C45.3366 48.3494 44.3182 49.4148 43.0057 50.2074C41.7017 50.9915 40.1676 51.375 38.4034 51.358ZM38.4034 48.5455C39.4773 48.5455 40.4403 48.277 41.2926 47.7401C42.1534 47.2031 42.831 46.483 43.3253 45.5795C43.8281 44.6761 44.0795 43.6705 44.0795 42.5625C44.0795 41.4801 43.8366 40.4957 43.3509 39.6094C42.8736 38.7145 42.2131 38.0028 41.3693 37.4744C40.5341 36.946 39.5795 36.6818 38.5057 36.6818C37.696 36.6818 36.9418 36.8437 36.2429 37.1676C35.544 37.483 34.9304 37.9176 34.402 38.4716C33.8821 39.0256 33.473 39.6605 33.1747 40.3764C32.8764 41.0838 32.7273 41.8295 32.7273 42.6136C32.7273 43.6534 32.9702 44.625 33.456 45.5284C33.9503 46.4318 34.6236 47.1605 35.4759 47.7145C36.3366 48.2685 37.3125 48.5455 38.4034 48.5455Z" fill="white"/>
</svg>
