<svg width="73" height="75" viewBox="0 0 73 75" fill="none" xmlns="http://www.w3.org/2000/svg">
<rect width="73" height="75" rx="9" fill="#FF5959"/>
<path d="M47.2386 33H44.0682C43.8807 32.0881 43.5526 31.2869 43.0838 30.5966C42.6236 29.9062 42.0611 29.3267 41.3963 28.858C40.7401 28.3807 40.0114 28.0227 39.2102 27.7841C38.4091 27.5455 37.5739 27.4261 36.7045 27.4261C35.1193 27.4261 33.6832 27.8267 32.3963 28.6278C31.1179 29.429 30.0994 30.6094 29.3409 32.169C28.5909 33.7287 28.2159 35.642 28.2159 37.9091C28.2159 40.1761 28.5909 42.0895 29.3409 43.6491C30.0994 45.2088 31.1179 46.3892 32.3963 47.1903C33.6832 47.9915 35.1193 48.392 36.7045 48.392C37.5739 48.392 38.4091 48.2727 39.2102 48.0341C40.0114 47.7955 40.7401 47.4418 41.3963 46.973C42.0611 46.4957 42.6236 45.9119 43.0838 45.2216C43.5526 44.5227 43.8807 43.7216 44.0682 42.8182H47.2386C47 44.1562 46.5653 45.3537 45.9347 46.4105C45.304 47.4673 44.5199 48.3665 43.5824 49.108C42.6449 49.8409 41.5923 50.3991 40.4247 50.7827C39.2656 51.1662 38.0256 51.358 36.7045 51.358C34.4716 51.358 32.4858 50.8125 30.7472 49.7216C29.0085 48.6307 27.6406 47.0795 26.6435 45.0682C25.6463 43.0568 25.1477 40.6705 25.1477 37.9091C25.1477 35.1477 25.6463 32.7614 26.6435 30.75C27.6406 28.7386 29.0085 27.1875 30.7472 26.0966C32.4858 25.0057 34.4716 24.4602 36.7045 24.4602C38.0256 24.4602 39.2656 24.652 40.4247 25.0355C41.5923 25.419 42.6449 25.9815 43.5824 26.723C44.5199 27.456 45.304 28.3509 45.9347 29.4077C46.5653 30.456 47 31.6534 47.2386 33Z" fill="#343434"/>
</svg>
