<svg width="73" height="75" viewBox="0 0 73 75" fill="none" xmlns="http://www.w3.org/2000/svg">
<rect width="73" height="75" rx="9" fill="#343434"/>
<path d="M36.25 51.358C34.3239 51.358 32.6832 50.8338 31.3281 49.7855C29.973 48.7287 28.9375 47.1989 28.2216 45.196C27.5057 43.1847 27.1477 40.7557 27.1477 37.9091C27.1477 35.0795 27.5057 32.6634 28.2216 30.6605C28.946 28.6491 29.9858 27.1151 31.3409 26.0582C32.7045 24.9929 34.3409 24.4602 36.25 24.4602C38.1591 24.4602 39.7912 24.9929 41.1463 26.0582C42.5099 27.1151 43.5497 28.6491 44.2656 30.6605C44.9901 32.6634 45.3523 35.0795 45.3523 37.9091C45.3523 40.7557 44.9943 43.1847 44.2784 45.196C43.5625 47.1989 42.527 48.7287 41.1719 49.7855C39.8168 50.8338 38.1761 51.358 36.25 51.358ZM36.25 48.5455C38.1591 48.5455 39.642 47.625 40.6989 45.7841C41.7557 43.9432 42.2841 41.3182 42.2841 37.9091C42.2841 35.642 42.0412 33.7116 41.5554 32.1179C41.0781 30.5241 40.3878 29.3097 39.4844 28.4744C38.5895 27.6392 37.5114 27.2216 36.25 27.2216C34.358 27.2216 32.8793 28.1548 31.8139 30.0213C30.7486 31.8793 30.2159 34.5085 30.2159 37.9091C30.2159 40.1761 30.4545 42.1023 30.9318 43.6875C31.4091 45.2727 32.0952 46.4787 32.9901 47.3054C33.8935 48.1321 34.9801 48.5455 36.25 48.5455Z" fill="white"/>
</svg>
