<svg width="73" height="75" viewBox="0 0 73 75" fill="none" xmlns="http://www.w3.org/2000/svg">
<rect width="73" height="75" rx="9" fill="#343434"/>
<path d="M38.0966 51.358C36.3409 51.358 34.7898 51.0469 33.4432 50.4247C32.1051 49.794 31.0611 48.929 30.3111 47.8295C29.5611 46.7216 29.1903 45.4602 29.1989 44.0455C29.1903 42.9375 29.4077 41.9148 29.8509 40.9773C30.294 40.0312 30.8991 39.2429 31.6662 38.6122C32.4418 37.973 33.3068 37.5682 34.2614 37.3977V37.2443C33.0085 36.9205 32.0114 36.2173 31.2699 35.1349C30.5284 34.044 30.1619 32.804 30.1705 31.4148C30.1619 30.0852 30.4986 28.8963 31.1804 27.848C31.8622 26.7997 32.7997 25.973 33.9929 25.3679C35.1946 24.7628 36.5625 24.4602 38.0966 24.4602C39.6136 24.4602 40.9688 24.7628 42.1619 25.3679C43.3551 25.973 44.2926 26.7997 44.9744 27.848C45.6648 28.8963 46.0142 30.0852 46.0227 31.4148C46.0142 32.804 45.6349 34.044 44.8849 35.1349C44.1435 36.2173 43.1591 36.9205 41.9318 37.2443V37.3977C42.8778 37.5682 43.7301 37.973 44.4886 38.6122C45.2472 39.2429 45.8523 40.0312 46.304 40.9773C46.7557 41.9148 46.9858 42.9375 46.9943 44.0455C46.9858 45.4602 46.6023 46.7216 45.8438 47.8295C45.0938 48.929 44.0497 49.794 42.7116 50.4247C41.3821 51.0469 39.8438 51.358 38.0966 51.358ZM38.0966 48.5455C39.2813 48.5455 40.304 48.3537 41.1648 47.9702C42.0256 47.5866 42.6903 47.0455 43.1591 46.3466C43.6278 45.6477 43.8665 44.8295 43.875 43.892C43.8665 42.9034 43.6108 42.0298 43.108 41.2713C42.6051 40.5128 41.919 39.9162 41.0497 39.4815C40.1889 39.0469 39.2045 38.8295 38.0966 38.8295C36.9801 38.8295 35.983 39.0469 35.1051 39.4815C34.2358 39.9162 33.5497 40.5128 33.0469 41.2713C32.5526 42.0298 32.3097 42.9034 32.3182 43.892C32.3097 44.8295 32.5355 45.6477 32.9957 46.3466C33.4645 47.0455 34.1335 47.5866 35.0028 47.9702C35.8722 48.3537 36.9034 48.5455 38.0966 48.5455ZM38.0966 36.1193C39.0341 36.1193 39.8651 35.9318 40.5895 35.5568C41.3224 35.1818 41.8977 34.6577 42.3153 33.9844C42.733 33.3111 42.946 32.5227 42.9545 31.6193C42.946 30.733 42.7372 29.9616 42.3281 29.3054C41.919 28.6406 41.3523 28.1293 40.6278 27.7713C39.9034 27.4048 39.0597 27.2216 38.0966 27.2216C37.1165 27.2216 36.2599 27.4048 35.527 27.7713C34.794 28.1293 34.2273 28.6406 33.8267 29.3054C33.4261 29.9616 33.2301 30.733 33.2386 31.6193C33.2301 32.5227 33.4304 33.3111 33.8395 33.9844C34.2571 34.6577 34.8324 35.1818 35.5653 35.5568C36.2983 35.9318 37.142 36.1193 38.0966 36.1193Z" fill="white"/>
</svg>
