<svg width="73" height="75" viewBox="0 0 73 75" fill="none" xmlns="http://www.w3.org/2000/svg">
<rect width="73" height="75" rx="9" fill="#343434"/>
<path d="M38.5568 51.358C36.8693 51.358 35.3651 51.0682 34.044 50.4886C32.7315 49.9091 31.6875 49.1037 30.9119 48.0724C30.1449 47.0327 29.7273 45.8267 29.6591 44.4545H32.8807C32.9489 45.2983 33.2386 46.027 33.75 46.6406C34.2614 47.2457 34.9304 47.7145 35.7571 48.0469C36.5838 48.3793 37.5 48.5455 38.5057 48.5455C39.6307 48.5455 40.6278 48.3494 41.4972 47.9574C42.3665 47.5653 43.0483 47.0199 43.5426 46.321C44.0369 45.6222 44.2841 44.8125 44.2841 43.892C44.2841 42.929 44.0455 42.081 43.5682 41.348C43.0909 40.6065 42.392 40.027 41.4716 39.6094C40.5511 39.1918 39.4261 38.983 38.0966 38.983H36V36.1705H38.0966C39.1364 36.1705 40.0483 35.983 40.8324 35.608C41.625 35.233 42.2429 34.7045 42.6861 34.0227C43.1378 33.3409 43.3636 32.5398 43.3636 31.6193C43.3636 30.733 43.1676 29.9616 42.7756 29.3054C42.3835 28.6491 41.8295 28.1378 41.1136 27.7713C40.4063 27.4048 39.571 27.2216 38.608 27.2216C37.7045 27.2216 36.8523 27.3878 36.0511 27.7202C35.2585 28.044 34.6108 28.517 34.108 29.1392C33.6051 29.7528 33.3324 30.4943 33.2898 31.3636H30.2216C30.2727 29.9915 30.6861 28.7898 31.4616 27.7585C32.2372 26.7187 33.2514 25.9091 34.5043 25.3295C35.7656 24.75 37.1506 24.4602 38.6591 24.4602C40.2784 24.4602 41.6676 24.7884 42.8267 25.4446C43.9858 26.0923 44.8764 26.9489 45.4986 28.0142C46.1207 29.0795 46.4318 30.2301 46.4318 31.4659C46.4318 32.9403 46.044 34.1974 45.2685 35.2372C44.5014 36.277 43.4574 36.9972 42.1364 37.3977V37.6023C43.7898 37.875 45.081 38.5781 46.0099 39.7116C46.9389 40.8366 47.4034 42.2301 47.4034 43.892C47.4034 45.3153 47.0156 46.5938 46.2401 47.7273C45.473 48.8523 44.4247 49.7386 43.0952 50.3864C41.7656 51.0341 40.2528 51.358 38.5568 51.358Z" fill="white"/>
</svg>
