<svg width="73" height="75" viewBox="0 0 73 75" fill="none" xmlns="http://www.w3.org/2000/svg">
<rect width="73" height="75" rx="9" fill="#343434"/>
<path d="M37.892 51.358C36.392 51.358 35.0412 51.0597 33.8395 50.4631C32.6378 49.8665 31.6747 49.0483 30.9503 48.0085C30.2259 46.9688 29.8295 45.7841 29.7614 44.4545H32.8295C32.9489 45.6392 33.4858 46.6193 34.4403 47.3949C35.4034 48.1619 36.554 48.5455 37.892 48.5455C38.9659 48.5455 39.9205 48.294 40.7557 47.7912C41.5994 47.2884 42.2599 46.598 42.7372 45.7202C43.223 44.8338 43.4659 43.8324 43.4659 42.7159C43.4659 41.5739 43.2145 40.5554 42.7116 39.6605C42.2173 38.7571 41.5355 38.0455 40.6662 37.5256C39.7969 37.0057 38.804 36.7415 37.6875 36.733C36.8864 36.7244 36.0639 36.848 35.2202 37.1037C34.3764 37.3509 33.6818 37.6705 33.1364 38.0625L30.1705 37.7045L31.7557 24.8182H45.358V27.6307H34.4148L33.4943 35.3523H33.6477C34.1847 34.9261 34.858 34.5724 35.6676 34.2912C36.4773 34.0099 37.321 33.8693 38.1989 33.8693C39.8011 33.8693 41.2287 34.2528 42.4815 35.0199C43.7429 35.7784 44.7315 36.8182 45.4474 38.1392C46.1719 39.4602 46.5341 40.9687 46.5341 42.6648C46.5341 44.3352 46.1591 45.8267 45.4091 47.1392C44.6676 48.4432 43.6449 49.4744 42.3409 50.233C41.0369 50.983 39.554 51.358 37.892 51.358Z" fill="white"/>
</svg>
