<svg width="73" height="75" viewBox="0 0 73 75" fill="none" xmlns="http://www.w3.org/2000/svg">
<rect width="73" height="75" rx="9" fill="#343434"/>
<path d="M38.0455 24.4602C39.1193 24.4687 40.1932 24.6733 41.267 25.0739C42.3409 25.4744 43.321 26.1392 44.2074 27.0682C45.0938 27.9886 45.8054 29.2457 46.3423 30.8395C46.8793 32.4332 47.1477 34.4318 47.1477 36.8352C47.1477 39.1619 46.9261 41.2287 46.483 43.0355C46.0483 44.8338 45.4176 46.3509 44.5909 47.5866C43.7727 48.8224 42.7756 49.7599 41.5994 50.3991C40.4318 51.0384 39.1108 51.358 37.6364 51.358C36.1705 51.358 34.8622 51.0682 33.7116 50.4886C32.5696 49.9006 31.6321 49.0866 30.8991 48.0469C30.1747 46.9986 29.7102 45.7841 29.5057 44.4034H32.625C32.9062 45.6051 33.4645 46.598 34.2997 47.3821C35.1435 48.1577 36.2557 48.5455 37.6364 48.5455C39.6563 48.5455 41.25 47.6634 42.4176 45.8991C43.5938 44.1349 44.1818 41.642 44.1818 38.4205H43.9773C43.5 39.1364 42.9332 39.7543 42.277 40.2741C41.6207 40.794 40.892 41.1946 40.0909 41.4759C39.2898 41.7571 38.4375 41.8977 37.5341 41.8977C36.0341 41.8977 34.6577 41.527 33.4048 40.7855C32.1605 40.0355 31.1634 39.0085 30.4134 37.7045C29.6719 36.392 29.3011 34.892 29.3011 33.2045C29.3011 31.6023 29.6591 30.1364 30.375 28.8068C31.0994 27.4687 32.1136 26.4034 33.4176 25.6108C34.7301 24.8182 36.2727 24.4347 38.0455 24.4602ZM38.0455 27.2727C36.9716 27.2727 36.0043 27.5412 35.1435 28.0781C34.2912 28.6065 33.6136 29.3224 33.1108 30.2259C32.6165 31.1207 32.3693 32.1136 32.3693 33.2045C32.3693 34.2955 32.608 35.2884 33.0852 36.1832C33.571 37.0696 34.2315 37.777 35.0668 38.3054C35.9105 38.8253 36.8693 39.0852 37.9432 39.0852C38.7528 39.0852 39.5071 38.9276 40.206 38.6122C40.9048 38.2884 41.5142 37.8494 42.0341 37.2955C42.5625 36.733 42.9759 36.098 43.2741 35.3906C43.5724 34.6747 43.7216 33.929 43.7216 33.1534C43.7216 32.1307 43.4744 31.1719 42.9801 30.277C42.4943 29.3821 41.821 28.6577 40.9602 28.1037C40.108 27.5497 39.1364 27.2727 38.0455 27.2727Z" fill="white"/>
</svg>
