<svg width="73" height="75" viewBox="0 0 73 75" fill="none" xmlns="http://www.w3.org/2000/svg">
<rect width="73" height="75" rx="9" fill="#343434"/>
<path d="M36.9602 51.2045C36.3295 51.2045 35.7884 50.9787 35.3366 50.527C34.8849 50.0753 34.6591 49.5341 34.6591 48.9034C34.6591 48.2727 34.8849 47.7315 35.3366 47.2798C35.7884 46.8281 36.3295 46.6023 36.9602 46.6023C37.5909 46.6023 38.1321 46.8281 38.5838 47.2798C39.0355 47.7315 39.2614 48.2727 39.2614 48.9034C39.2614 49.321 39.1548 49.7045 38.9418 50.054C38.7372 50.4034 38.4602 50.6847 38.1108 50.8977C37.7699 51.1023 37.3864 51.2045 36.9602 51.2045Z" fill="white"/>
</svg>
